<?xml version="1.0" standalone="no"?>
<!DOCTYPE svg PUBLIC "-//W3C//DTD SVG 1.1//EN" "http://www.w3.org/Graphics/SVG/1.1/DTD/svg11.dtd" >
<svg xmlns="http://www.w3.org/2000/svg" xmlns:xlink="http://www.w3.org/1999/xlink" version="1.1">
<metadata>
Created by FontForge 20170731 at Wed Feb  8 17:45:01 2023
 By Aleksey,,,
Serbian Cyrillic
</metadata>
<defs>
<font id="GrtskZetta-Semibold" horiz-adv-x="1024" >
  <font-face 
    font-family="Grtsk Zetta Semibold"
    font-weight="600"
    font-stretch="normal"
    units-per-em="2048"
    panose-1="0 0 0 0 0 0 0 0 0 0"
    ascent="1536"
    descent="-512"
    x-height="1122"
    cap-height="1434"
    bbox="-109 -430 2206 1989"
    underline-thickness="198"
    underline-position="-515"
    unicode-range="U+000D-F6C3"
  />
<missing-glyph horiz-adv-x="1208" 
d="M152 0v1434h905v-1434h-905zM432 246h344v942h-344v-942z" />
    <glyph glyph-name=".notdef" horiz-adv-x="1208" 
d="M152 0v1434h905v-1434h-905zM432 246h344v942h-344v-942z" />
    <glyph glyph-name=".null" horiz-adv-x="0" 
 />
    <glyph glyph-name=".null" horiz-adv-x="0" 
 />
    <glyph glyph-name="nonmarkingreturn" horiz-adv-x="682" 
 />
    <glyph glyph-name="CR" unicode="&#xd;" horiz-adv-x="0" 
 />
    <glyph glyph-name="space" unicode=" " horiz-adv-x="282" 
 />
    <glyph glyph-name="exclam" unicode="!" horiz-adv-x="583" 
d="M414 432h-246l-21 1002h287zM150 0v274h284v-274h-284z" />
    <glyph glyph-name="quotedbl" unicode="&#x22;" horiz-adv-x="958" 
d="M139 836l-16 598h268l-16 -598h-236zM584 836l-19 598h271l-17 -598h-235z" />
    <glyph glyph-name="numbersign" unicode="#" horiz-adv-x="1275" 
d="M86 0l86 313h-149v228h210l95 352h-203v227h264l86 314h250l-86 -314h213l86 314h252l-86 -314h149v-227h-211l-94 -352h203v-228h-264l-86 -313h-252l86 313h-213l-86 -313h-250zM483 541h213l95 352h-213z" />
    <glyph glyph-name="dollar" unicode="$" horiz-adv-x="1046" 
d="M59 446l263 35q9 -225 151 -256v363l-72 28q-151 61 -231 164.5t-80 261.5q0 180 101.5 287t281.5 119v149h107v-149q171 -17 263.5 -124t114.5 -310l-262 -37q-9 191 -116 229v-358l94 -39q154 -66 225.5 -160t71.5 -254q0 -179 -103.5 -286.5t-287.5 -122.5v-150h-107
v150q-194 11 -292.5 119.5t-121.5 340.5zM362 1059q0 -56 26.5 -93.5t84.5 -68.5v311q-53 -11 -82 -49.5t-29 -99.5zM690 377q0 59 -26 97t-84 69v-318q54 12 82 51t28 101z" />
    <glyph glyph-name="percent" unicode="%" horiz-adv-x="1794" 
d="M416 1450q153 0 251.5 -99t98.5 -255q0 -158 -98.5 -258.5t-251.5 -100.5q-154 0 -252 100.5t-98 258.5q0 155 98 254.5t252 99.5zM1194 1434h262l-858 -1434h-260zM416 940q59 0 93 42t34 114q0 69 -34.5 110t-92.5 41q-60 0 -93.5 -40t-33.5 -111t34 -113.5t93 -42.5z
M1378 696q153 0 252 -100t99 -258q0 -156 -99 -255t-252 -99t-251.5 99t-98.5 255q0 157 99 257.5t251 100.5zM1378 186q60 0 93.5 40.5t33.5 111.5t-33.5 112.5t-93.5 41.5t-93.5 -41t-33.5 -113q0 -69 34.5 -110.5t92.5 -41.5z" />
    <glyph glyph-name="ampersand" unicode="&#x26;" horiz-adv-x="1171" 
d="M481 -16q-184 0 -296.5 104t-112.5 270q0 113 54.5 202.5t192.5 189.5q-75 105 -103 177.5t-28 159.5q0 160 105.5 261.5t273.5 101.5q158 0 258.5 -94.5t100.5 -239.5q0 -112 -59.5 -203t-215.5 -192l164 -213q30 80 45 184l236 -30q-20 -196 -121 -365l227 -297h-315
l-80 106q-153 -122 -326 -122zM436 1085q0 -45 18.5 -87t71.5 -113q88 62 120 109t32 108q0 54 -31 86.5t-88 32.5q-55 0 -89 -38.5t-34 -97.5zM340 385q0 -71 44 -114.5t118 -43.5q87 0 164 62l-217 289q-61 -50 -85 -93.5t-24 -99.5z" />
    <glyph glyph-name="quotesingle" unicode="'" horiz-adv-x="514" 
d="M139 836l-16 598h268l-16 -598h-236z" />
    <glyph glyph-name="parenleft" unicode="(" horiz-adv-x="692" 
d="M420 -307q-299 410 -299 870q0 455 299 871h256q-262 -459 -262 -871q0 -210 63.5 -422.5t198.5 -447.5h-256z" />
    <glyph glyph-name="parenright" unicode=")" horiz-adv-x="692" 
d="M272 1434q299 -410 299 -871q0 -454 -299 -870h-256q263 460 263 870q0 411 -263 871h256z" />
    <glyph glyph-name="asterisk" unicode="*" horiz-adv-x="837" 
d="M739 834l-196 -144l-123 213l-125 -213l-197 144l156 172l-211 49l72 221l209 -92l-27 250h244l-27 -250l209 92l74 -221l-213 -51z" />
    <glyph glyph-name="plus" unicode="+" horiz-adv-x="915" 
d="M834 612h-263v-299h-229v299h-260v228h260v301h229v-301h263v-228z" />
    <glyph glyph-name="comma" unicode="," horiz-adv-x="505" 
d="M111 274h284v-284q0 -173 -64.5 -242t-224.5 -72l-16 162q77 0 103 21.5t26 87.5v53h-108v274z" />
    <glyph glyph-name="hyphen" unicode="-" horiz-adv-x="765" 
d="M96 498v243h574v-243h-574z" />
    <glyph glyph-name="period" unicode="." horiz-adv-x="505" 
d="M111 0v274h284v-274h-284z" />
    <glyph glyph-name="slash" unicode="/" horiz-adv-x="690" 
d="M-37 -307l416 1741h287l-416 -1741h-287z" />
    <glyph glyph-name="zero" unicode="0" horiz-adv-x="1124" 
d="M563 -16q-229 0 -349 187t-120 546t120 546t349 187t348 -187t119 -546t-119 -546t-348 -187zM563 227q94 0 136 116t42 374t-42 373.5t-136 115.5t-137 -116t-43 -373t43 -373.5t137 -116.5z" />
    <glyph glyph-name="one" unicode="1" horiz-adv-x="845" 
d="M31 0v244h280v919l-254 -55v260l262 66h271v-1190h248v-244h-807z" />
    <glyph glyph-name="two" unicode="2" horiz-adv-x="995" 
d="M82 244l379 458q87 106 121 178t34 148q0 178 -139 178q-85 0 -126.5 -64.5t-45.5 -203.5l-270 45q13 232 132.5 349.5t324.5 117.5q191 0 302 -108.5t111 -290.5q0 -72 -13.5 -131t-50 -123t-77.5 -118t-117 -144l-246 -291h517v-244h-836v244z" />
    <glyph glyph-name="three" unicode="3" horiz-adv-x="1032" 
d="M958 399q0 -190 -122 -302.5t-320 -112.5q-211 0 -332.5 111t-134.5 341l273 43q9 -132 53 -196t129 -64q80 0 123 49.5t43 145.5q0 200 -172 200h-107v228h111q75 0 116 49t41 141q0 86 -38.5 134t-114.5 48q-161 0 -178 -241l-265 43q17 202 135 318t314 116t309 -102
t113 -279q0 -120 -54 -204.5t-157 -125.5q235 -79 235 -340z" />
    <glyph glyph-name="four" unicode="4" horiz-adv-x="1017" 
d="M836 0h-263v260h-548v221l565 953h246v-949h149v-225h-149v-260zM279 485h294v502z" />
    <glyph glyph-name="five" unicode="5" horiz-adv-x="1046" 
d="M528 -16q-189 0 -303.5 94.5t-144.5 283.5l276 52q21 -187 168 -187q79 0 123.5 61.5t44.5 178.5q0 125 -42.5 188.5t-119.5 63.5q-110 0 -161 -111l-254 25l51 801h739v-246h-493l-25 -328q80 86 213 86q172 0 272.5 -123t100.5 -340q0 -237 -122.5 -368t-322.5 -131z
" />
    <glyph glyph-name="six" unicode="6" horiz-adv-x="1079" 
d="M92 705q0 369 130 557t372 188q158 0 260.5 -91.5t140.5 -268.5l-270 -54q-27 170 -150 170q-99 0 -146 -108t-50 -348q42 71 110.5 110t157.5 39q163 0 261 -121t98 -323q0 -218 -115 -344.5t-313 -126.5q-235 0 -360.5 185.5t-125.5 535.5zM573 219q78 0 120 58.5
t42 166.5q0 115 -41.5 175.5t-122.5 60.5q-75 0 -120 -61t-45 -162q0 -113 44 -175.5t123 -62.5z" />
    <glyph glyph-name="seven" unicode="7" horiz-adv-x="833" 
d="M805 1188l-420 -1188h-291l441 1188h-523v246h793v-246z" />
    <glyph glyph-name="eight" unicode="8" horiz-adv-x="1060" 
d="M530 -16q-220 0 -336 106.5t-116 296.5q0 123 57.5 214.5t161.5 139.5q-86 50 -133 134.5t-47 195.5q0 175 110.5 277t302.5 102q191 0 302.5 -102t111.5 -279q0 -112 -46.5 -196t-133.5 -132q105 -48 162 -139t57 -215q0 -190 -116.5 -296.5t-336.5 -106.5zM678 1047
q0 93 -38.5 142.5t-109.5 49.5t-109 -48.5t-38 -141.5q0 -91 38 -140t109 -49t109.5 49t38.5 138zM530 195q80 0 122 53.5t42 154.5q0 103 -42 157t-122 54q-79 0 -121 -54t-42 -157q0 -101 42 -154.5t121 -53.5z" />
    <glyph glyph-name="nine" unicode="9" horiz-adv-x="1079" 
d="M987 729q0 -368 -130.5 -556.5t-371.5 -188.5q-160 0 -262.5 91.5t-140.5 268.5l270 53q30 -170 150 -170q99 0 146 108.5t50 348.5q-42 -71 -110.5 -110t-157.5 -39q-163 0 -260.5 121t-97.5 323q0 218 115 344.5t313 126.5q236 0 361.5 -185.5t125.5 -535.5zM506 1214
q-78 0 -121 -59t-43 -166q0 -115 41.5 -175t122.5 -60q76 0 121 60.5t45 162.5q0 113 -43.5 175t-122.5 62z" />
    <glyph glyph-name="colon" unicode=":" horiz-adv-x="505" 
d="M111 848v274h284v-274h-284zM111 0v274h284v-274h-284z" />
    <glyph glyph-name="semicolon" unicode=";" horiz-adv-x="505" 
d="M111 848v274h284v-274h-284zM111 274h284v-284q0 -173 -64.5 -242t-224.5 -72l-16 162q77 0 103 21.5t26 87.5v53h-108v274z" />
    <glyph glyph-name="less" unicode="&#x3c;" horiz-adv-x="915" 
d="M72 612v209l751 396v-271l-444 -219l444 -219v-291z" />
    <glyph glyph-name="equal" unicode="=" horiz-adv-x="915" 
d="M834 836h-752v225h752v-225zM834 391h-752v225h752v-225z" />
    <glyph glyph-name="greater" unicode="&#x3e;" horiz-adv-x="915" 
d="M844 821v-209l-752 -395v272l443 220l-443 219v289z" />
    <glyph glyph-name="question" unicode="?" horiz-adv-x="1011" 
d="M518 1206q-83 0 -130 -66t-60 -202l-267 53q26 219 147.5 339t317.5 120q182 0 296 -107.5t114 -275.5q0 -75 -16.5 -135.5t-43 -102t-58.5 -77t-65.5 -68t-61.5 -66.5t-48 -81.5t-25 -104.5h-262q5 83 29.5 152t58 113t71.5 88t70 79t53 84t21 105q0 72 -36.5 112.5
t-104.5 40.5zM354 0v274h267v-274h-267z" />
    <glyph glyph-name="at" unicode="@" horiz-adv-x="1757" 
d="M1270 -16q-193 0 -248 145q-70 -145 -231 -145q-121 0 -190 75t-69 207q0 129 73 209t222 115l177 41v59q0 81 -26.5 118.5t-82.5 37.5q-63 0 -92.5 -46t-32.5 -145l-219 25q20 178 106.5 264t249.5 86q328 0 328 -328v-440q0 -123 94 -123q80 0 132 111.5t52 322.5
q0 338 -167 538t-445 200q-195 0 -345.5 -109t-232 -302.5t-81.5 -440.5q0 -352 165.5 -558t460.5 -206q222 0 422 104l49 -110q-216 -115 -471 -115q-233 0 -405 108.5t-263 308.5t-91 468q0 213 60 395.5t165 309.5t251.5 198.5t315.5 71.5q160 0 297.5 -60.5t237 -170.5
t156.5 -272.5t57 -357.5q0 -268 -101 -428.5t-278 -160.5zM768 287q0 -113 98 -113q138 0 138 232v49l-103 -23q-70 -17 -101.5 -51.5t-31.5 -93.5z" />
    <glyph glyph-name="A" unicode="A" horiz-adv-x="1069" 
d="M770 0l-63 293h-361l-65 -293h-263l359 1434h315l359 -1434h-281zM397 532h256l-127 580z" />
    <glyph glyph-name="B" unicode="B" horiz-adv-x="1095" 
d="M152 0v1434h411q193 0 307.5 -102.5t114.5 -274.5q0 -236 -209 -316q248 -71 248 -360q0 -174 -111.5 -277.5t-300.5 -103.5h-460zM549 1200h-135v-358h135q174 0 174 178q0 180 -174 180zM575 608h-161v-375h161q86 0 131.5 48t45.5 139q0 90 -45.5 139t-131.5 49z" />
    <glyph glyph-name="C" unicode="C" horiz-adv-x="1112" 
d="M86 717q0 356 126.5 544.5t367.5 188.5q203 0 319 -127.5t148 -386.5l-271 -53q-20 168 -66.5 245.5t-129.5 77.5q-105 0 -155 -119t-50 -370q0 -253 49.5 -371.5t153.5 -118.5q90 0 137.5 79.5t62.5 252.5l277 -53q-43 -268 -158 -395t-319 -127q-239 0 -365.5 188
t-126.5 545z" />
    <glyph glyph-name="D" unicode="D" horiz-adv-x="1175" 
d="M152 0v1434h383q557 0 557 -723q0 -711 -557 -711h-383zM532 244q140 0 205.5 112.5t65.5 354.5q0 248 -65.5 362.5t-205.5 114.5h-100v-944h100z" />
    <glyph glyph-name="E" unicode="E" horiz-adv-x="942" 
d="M152 0v1434h706v-246h-432v-332h377v-246h-377v-366h442v-244h-716z" />
    <glyph glyph-name="F" unicode="F" horiz-adv-x="915" 
d="M152 0v1434h700v-246h-426v-391h373v-246h-373v-551h-274z" />
    <glyph glyph-name="G" unicode="G" horiz-adv-x="1165" 
d="M86 717q0 358 132 545.5t380 187.5q193 0 303.5 -118t145.5 -363l-271 -54q-17 151 -62 221t-124 70q-109 0 -162 -118.5t-53 -370.5q0 -254 53.5 -372t167.5 -118q187 0 205 297h-213v219h477v-743h-184l-33 201q-99 -217 -309 -217q-213 0 -333 193.5t-120 539.5z" />
    <glyph glyph-name="H" unicode="H" horiz-adv-x="1208" 
d="M152 0v1434h280v-576h344v576h281v-1434h-281v612h-344v-612h-280z" />
    <glyph glyph-name="I" unicode="I" horiz-adv-x="583" 
d="M152 0v1434h280v-1434h-280z" />
    <glyph glyph-name="J" unicode="J" horiz-adv-x="632" 
d="M489 348q0 -187 -77.5 -275.5t-237.5 -88.5q-86 0 -141 14l-8 235q30 -6 61 -6q71 0 98 27.5t27 99.5v1080h278v-1086z" />
    <glyph glyph-name="K" unicode="K" horiz-adv-x="1110" 
d="M152 0v1434h270v-576l387 576h297l-438 -637l452 -797h-315l-307 549l-76 -109v-440h-270z" />
    <glyph glyph-name="L" unicode="L" horiz-adv-x="909" 
d="M152 0v1434h280v-1190h432v-244h-712z" />
    <glyph glyph-name="M" unicode="M" horiz-adv-x="1505" 
d="M152 0v1434h319l289 -832l289 832h305v-1434h-262v952l-238 -669h-201l-239 673v-956h-262z" />
    <glyph glyph-name="N" unicode="N" horiz-adv-x="1214" 
d="M152 0v1434h282l375 -932v932h254v-1434h-283l-374 932v-932h-254z" />
    <glyph glyph-name="O" unicode="O" horiz-adv-x="1155" 
d="M578 -16q-492 0 -492 733t492 733q489 0 489 -733t-489 -733zM578 227q103 0 151.5 117.5t48.5 372.5t-48.5 372t-151.5 117q-104 0 -153.5 -117.5t-49.5 -371.5t49.5 -372t153.5 -118z" />
    <glyph glyph-name="P" unicode="P" horiz-adv-x="1073" 
d="M152 0v1434h409q226 0 344.5 -128t118.5 -372q0 -240 -125 -366t-364 -126h-103v-442h-280zM528 1196h-96v-514h96q111 0 164 61t53 191q0 136 -53 199t-164 63z" />
    <glyph glyph-name="Q" unicode="Q" horiz-adv-x="1155" 
d="M578 -16q-492 0 -492 733t492 733q489 0 489 -733q0 -397 -145 -580l170 -303h-267l-96 170q-64 -20 -151 -20zM578 227q30 0 55 11l-105 182h226q24 114 24 297q0 255 -48.5 372t-151.5 117q-104 0 -153.5 -117.5t-49.5 -371.5t49.5 -372t153.5 -118z" />
    <glyph glyph-name="R" unicode="R" horiz-adv-x="1124" 
d="M152 0v1434h452q206 0 314 -116t108 -337q0 -155 -59 -256.5t-172 -144.5l286 -580h-307l-246 528h-96v-528h-280zM573 1196h-141v-428h146q81 0 127.5 55t46.5 158q0 106 -45.5 160.5t-133.5 54.5z" />
    <glyph glyph-name="S" unicode="S" horiz-adv-x="1046" 
d="M59 446l263 35q12 -262 202 -262q79 0 122.5 41.5t43.5 116.5q0 71 -39.5 113t-130.5 79l-119 47q-151 61 -231 164.5t-80 261.5q0 190 114 299t314 109t308.5 -108t131.5 -328l-262 -37q-12 237 -174 237q-75 0 -117.5 -41t-42.5 -114t45 -115.5t158 -89.5l109 -45
q156 -65 226.5 -160t70.5 -254q0 -193 -119.5 -302t-327.5 -109q-221 0 -330.5 107.5t-134.5 354.5z" />
    <glyph glyph-name="T" unicode="T" horiz-adv-x="929" 
d="M324 0v1188h-299v246h880v-246h-303v-1188h-278z" />
    <glyph glyph-name="U" unicode="U" horiz-adv-x="1155" 
d="M1022 446q0 -236 -111.5 -349t-332.5 -113q-445 0 -445 462v988h279v-1016q0 -99 40 -145t126 -46q85 0 125 46.5t40 144.5v1016h279v-988z" />
    <glyph glyph-name="V" unicode="V" horiz-adv-x="1042" 
d="M307 1434l219 -1076l222 1076h274l-334 -1434h-334l-334 1434h287z" />
    <glyph glyph-name="W" unicode="W" horiz-adv-x="1658" 
d="M317 0l-288 1434h278l182 -988l205 988h260l209 -1008l185 1008h282l-307 -1434h-285l-217 1004l-217 -1004h-287z" />
    <glyph glyph-name="X" unicode="X" horiz-adv-x="1036" 
d="M315 0h-288l313 737l-309 697h297l196 -484l193 484h287l-316 -713l322 -721h-297l-209 489z" />
    <glyph glyph-name="Y" unicode="Y" 
d="M371 0v530l-365 904h289l227 -603l217 603h279l-367 -910v-524h-280z" />
    <glyph glyph-name="Z" unicode="Z" horiz-adv-x="917" 
d="M72 0v262l495 909h-495v263h784v-263l-477 -909h477v-262h-784z" />
    <glyph glyph-name="bracketleft" unicode="[" horiz-adv-x="688" 
d="M152 -307v1741h524v-238h-244v-1266h244v-237h-524z" />
    <glyph glyph-name="backslash" unicode="\" horiz-adv-x="690" 
d="M727 -307h-287l-415 1741h286z" />
    <glyph glyph-name="bracketright" unicode="]" horiz-adv-x="688" 
d="M537 -307h-525v237h244v1266h-244v238h525v-1741z" />
    <glyph glyph-name="asciicircum" unicode="^" horiz-adv-x="911" 
d="M305 1434h299l264 -861h-266l-149 588l-152 -588h-258z" />
    <glyph glyph-name="underscore" unicode="_" horiz-adv-x="962" 
d="M57 -244v244h848v-244h-848z" />
    <glyph glyph-name="grave" unicode="`" 
d="M614 1245h-211l-231 330h305z" />
    <glyph glyph-name="a" unicode="a" horiz-adv-x="905" 
d="M63 756q20 195 115.5 289t276.5 94q180 0 268 -88.5t88 -270.5v-540q0 -47 37 -47q19 0 29 2l-5 -191q-79 -20 -133 -20q-80 0 -123 35t-55 112q-78 -147 -237 -147q-132 0 -206.5 82.5t-74.5 230.5q0 280 319 356l193 45v68q0 89 -28.5 129.5t-88.5 40.5
q-67 0 -98.5 -50t-34.5 -157zM301 319q0 -65 27.5 -94.5t83.5 -29.5q143 0 143 247v68l-111 -27q-75 -19 -109 -58.5t-34 -105.5z" />
    <glyph glyph-name="b" unicode="b" horiz-adv-x="968" 
d="M317 0h-219v1536h262v-561q79 164 236 164q152 0 231.5 -147.5t79.5 -430.5q0 -284 -79.5 -430.5t-231.5 -146.5q-173 0 -252 202zM496 219q72 0 105.5 82t33.5 260q0 183 -32.5 266.5t-104.5 83.5q-138 0 -138 -350q0 -342 136 -342z" />
    <glyph glyph-name="c" unicode="c" horiz-adv-x="894" 
d="M850 713l-246 -35q-9 139 -39 198.5t-92 59.5q-75 0 -108 -86t-33 -289q0 -204 32 -289.5t107 -85.5q63 0 94.5 61.5t40.5 203.5l248 -35q-47 -432 -393 -432q-400 0 -400 577q0 291 101.5 434.5t308.5 143.5q170 0 260 -101.5t119 -324.5z" />
    <glyph glyph-name="d" unicode="d" horiz-adv-x="968" 
d="M373 -16q-154 0 -233 146.5t-79 430.5t79 431t233 147q155 0 233 -160v557h262v-1536h-219l-26 184q-78 -200 -250 -200zM473 219q133 0 133 342q0 350 -135 350q-72 0 -105.5 -83t-33.5 -267q0 -178 34.5 -260t106.5 -82z" />
    <glyph glyph-name="e" unicode="e" horiz-adv-x="923" 
d="M481 -16q-217 0 -322.5 143t-105.5 438q0 574 420 574q195 0 298 -130t103 -380q0 -77 -12 -142h-536q6 -162 42.5 -231.5t112.5 -69.5q66 0 100 45.5t48 151.5l243 -35q-22 -179 -121 -271.5t-270 -92.5zM475 936q-70 0 -105 -60.5t-42 -197.5h282q-3 258 -135 258z" />
    <glyph glyph-name="f" unicode="f" horiz-adv-x="608" 
d="M18 1122h125v47q0 199 81 291t255 92q72 0 121 -14l-6 -231q-40 8 -78 8q-57 0 -82.5 -30t-25.5 -97v-66h186v-219h-186v-903h-265v903h-125v219z" />
    <glyph glyph-name="g" unicode="g" horiz-adv-x="915" 
d="M426 1139q163 0 260 -82q42 66 100.5 97.5t124.5 21.5l-6 -258q-64 16 -129 6q23 -71 23 -146q0 -173 -99 -271.5t-274 -98.5q-42 0 -82 6q-51 -20 -51 -76q0 -39 27 -56.5t86 -19.5l155 -6q175 -4 264.5 -83.5t89.5 -225.5q0 -171 -128 -272t-355 -101q-217 0 -324.5 70
t-107.5 204q0 162 182 222q-123 48 -123 188q0 148 152 203q-74 46 -114 127.5t-40 189.5q0 170 98 265.5t271 95.5zM545 778q0 97 -28.5 142t-90.5 45q-59 0 -87 -45.5t-28 -141.5q0 -101 28 -148.5t87 -47.5q61 0 90 47.5t29 148.5zM233 -117q0 -143 201 -143
q105 0 165 38.5t60 108.5q0 64 -36.5 94.5t-112.5 32.5l-139 4q-64 -3 -101 -38.5t-37 -96.5z" />
    <glyph glyph-name="h" unicode="h" horiz-adv-x="970" 
d="M98 0v1536h262v-571q44 86 113 130t156 44q122 0 186 -85t64 -247v-807h-265v748q0 139 -100 139q-70 0 -112 -60t-42 -186v-641h-262z" />
    <glyph glyph-name="i" unicode="i" horiz-adv-x="460" 
d="M96 1257v275h269v-275h-269zM98 0v1122h262v-1122h-262z" />
    <glyph glyph-name="j" unicode="j" horiz-adv-x="460" 
d="M96 1257v275h269v-275h-269zM98 -78v1200h262v-1200q0 -182 -71 -265t-228 -83q-65 0 -108 14l-6 230q30 -6 67 -6q44 0 64 26.5t20 83.5z" />
    <glyph glyph-name="k" unicode="k" horiz-adv-x="921" 
d="M98 0v1536h254v-836l279 422h274l-330 -473l353 -649h-289l-231 428l-56 -92v-336h-254z" />
    <glyph glyph-name="l" unicode="l" horiz-adv-x="460" 
d="M360 0h-262v1536h262v-1536z" />
    <glyph glyph-name="m" unicode="m" horiz-adv-x="1443" 
d="M98 0v1122h219l27 -182q44 97 114.5 148t159.5 51q86 0 143.5 -48.5t80.5 -142.5q44 93 114 142t158 49q115 0 176.5 -84t61.5 -244v-811h-265v733q0 80 -24 117t-76 37q-131 0 -131 -230v-657h-262v733q0 79 -24.5 116.5t-75.5 37.5q-64 0 -99 -58t-35 -172v-657h-262z
" />
    <glyph glyph-name="n" unicode="n" horiz-adv-x="970" 
d="M98 0v1122h219l29 -192q41 103 114 156t169 53q122 0 186 -85t64 -247v-807h-265v748q0 139 -100 139q-70 0 -112 -60t-42 -186v-641h-262z" />
    <glyph glyph-name="o" unicode="o" horiz-adv-x="929" 
d="M465 -16q-404 0 -404 577q0 578 404 578q204 0 303.5 -143.5t99.5 -434.5t-99.5 -434t-303.5 -143zM465 186q72 0 102.5 85t30.5 290t-30.5 290t-102.5 85q-71 0 -102 -85.5t-31 -289.5t31 -289.5t102 -85.5z" />
    <glyph glyph-name="p" unicode="p" horiz-adv-x="968" 
d="M596 -16q-158 0 -236 166v-560h-262v1532h219l27 -188q79 205 252 205q154 0 232.5 -146.5t78.5 -431.5q0 -284 -78.5 -430.5t-232.5 -146.5zM496 219q72 0 105.5 82t33.5 260q0 184 -32.5 267t-104.5 83q-138 0 -138 -350q0 -342 136 -342z" />
    <glyph glyph-name="q" unicode="q" horiz-adv-x="968" 
d="M373 -16q-154 0 -233 146.5t-79 430.5t79 431t233 147q172 0 250 -203l26 186h219v-1532h-262v557q-78 -163 -233 -163zM473 219q133 0 133 342q0 350 -135 350q-72 0 -105.5 -83t-33.5 -267q0 -178 34.5 -260t106.5 -82z" />
    <glyph glyph-name="r" unicode="r" horiz-adv-x="636" 
d="M98 0v1122h219l31 -202q41 105 104.5 162t139.5 57q4 0 13.5 -1t12.5 -1l-8 -316q-32 8 -57 8q-92 0 -142.5 -77.5t-50.5 -219.5v-532h-262z" />
    <glyph glyph-name="s" unicode="s" horiz-adv-x="813" 
d="M408 928q-51 0 -80 -27t-29 -74q0 -50 27.5 -78t99.5 -55l104 -39q125 -47 186.5 -125.5t61.5 -205.5q0 -161 -98 -250.5t-268 -89.5q-356 0 -379 368l231 35q0 -89 38.5 -140.5t109.5 -51.5q57 0 88.5 29.5t31.5 80.5q0 50 -25.5 79.5t-86.5 53.5l-113 43
q-254 95 -254 328q0 152 95.5 241t259.5 89q161 0 250.5 -88t99.5 -260l-226 -35q0 83 -32.5 127.5t-91.5 44.5z" />
    <glyph glyph-name="t" unicode="t" horiz-adv-x="651" 
d="M147 283v620h-133v219h74q23 0 37 2.5t27 13.5t19.5 27.5t13 50.5t9.5 75.5t7 109.5h209v-279h204v-219h-204v-557q0 -75 27.5 -105t99.5 -30q42 0 90 10l-6 -219q-82 -16 -168 -16q-306 0 -306 297z" />
    <glyph glyph-name="u" unicode="u" horiz-adv-x="952" 
d="M590 487v635h262v-1122h-217l-27 166q-74 -182 -248 -182q-129 0 -198.5 83.5t-69.5 241.5v813h262v-735q0 -77 24.5 -114t76.5 -37q69 0 102 61t33 190z" />
    <glyph glyph-name="v" unicode="v" horiz-adv-x="851" 
d="M287 0l-279 1122h262l160 -774l162 774h250l-289 -1122h-266z" />
    <glyph glyph-name="w" unicode="w" horiz-adv-x="1249" 
d="M231 0l-217 1122h250l109 -737l162 737h186l162 -747l114 747h240l-225 -1122h-228l-161 717l-166 -717h-226z" />
    <glyph glyph-name="x" unicode="x" horiz-adv-x="868" 
d="M266 0h-260l266 582l-262 540h271l151 -336l143 336h261l-258 -538l284 -584h-270l-168 375z" />
    <glyph glyph-name="y" unicode="y" horiz-adv-x="866" 
d="M604 1122h256l-311 -1177q-54 -206 -134.5 -288.5t-228.5 -82.5q-56 0 -108 14l-8 230q30 -6 69 -6q76 0 110 39.5t66 168.5l-309 1102h270l175 -727z" />
    <glyph glyph-name="z" unicode="z" horiz-adv-x="727" 
d="M43 0v219l391 684h-387v219h647v-219l-383 -684h381v-219h-649z" />
    <glyph glyph-name="braceleft" unicode="{" horiz-adv-x="720" 
d="M244 563q127 -28 184 -111t57 -239v-133q0 -90 29.5 -126t99.5 -36q30 0 93 10l10 -223q-91 -16 -154 -16q-350 0 -350 362v213q0 92 -36.5 133t-133.5 54v225q98 13 134 53t36 133v213q0 363 350 363q57 0 154 -17l-10 -223q-63 10 -93 10q-68 0 -98.5 -38t-30.5 -126
v-149q0 -147 -57 -226.5t-184 -105.5z" />
    <glyph glyph-name="bar" unicode="|" horiz-adv-x="565" 
d="M414 -348h-262v1904h262v-1904z" />
    <glyph glyph-name="braceright" unicode="}" horiz-adv-x="720" 
d="M676 676v-225q-96 -13 -132 -54t-36 -133v-213q0 -362 -350 -362q-63 0 -154 16l10 223q62 -10 92 -10q70 0 100 36t30 126v133q0 156 57 239t184 111q-127 26 -184 105.5t-57 226.5v149q0 88 -31 126t-99 38q-30 0 -92 -10l-10 223q97 17 154 17q350 0 350 -363v-213
q0 -93 36 -133t132 -53z" />
    <glyph glyph-name="asciitilde" unicode="~" horiz-adv-x="915" 
d="M270 694q-37 0 -78 -18.5t-110 -65.5v234q112 82 197 82q53 0 108 -20.5t93 -45t83 -45t82 -20.5q72 0 189 84v-236q-105 -80 -197 -80q-54 0 -109 20.5t-92 45t-82.5 45t-83.5 20.5z" />
    <glyph glyph-name="uni00A0" unicode="&#xa0;" horiz-adv-x="282" 
 />
    <glyph glyph-name="exclamdown" unicode="&#xa1;" horiz-adv-x="583" 
d="M434 1122v-274h-284v274h284zM168 692h246l20 -1003h-287z" />
    <glyph glyph-name="cent" unicode="&#xa2;" horiz-adv-x="890" 
d="M250 -164l39 182q-228 104 -228 543q0 291 101.5 434.5t308.5 143.5q35 0 49 -2l29 133h104l-32 -156q96 -38 151.5 -135.5t77.5 -265.5l-246 -35q-9 131 -35 190l-141 -673q21 -9 43 -9q63 0 94.5 60.5t40.5 204.5l248 -35q-47 -432 -393 -432q-39 0 -74 6l-33 -154
h-104zM332 561q0 -155 18 -244l129 621h-6q-75 0 -108 -86.5t-33 -290.5z" />
    <glyph glyph-name="sterling" unicode="&#xa3;" horiz-adv-x="1079" 
d="M76 590v155h180q-28 74 -38.5 103.5t-24 92t-13.5 118.5q0 178 110.5 284.5t289.5 106.5q181 0 288.5 -99.5t143.5 -316.5l-260 -51q-19 117 -57.5 174t-104.5 57q-59 0 -93 -40.5t-34 -108.5q0 -39 9 -83.5t19 -74.5t29.5 -83t28.5 -79h340v-155h-299q8 -41 8 -94
q0 -78 -39 -144.5t-108 -107.5h548v-244h-923v244h43q96 0 146 59t50 164q0 65 -12 123h-227z" />
    <glyph glyph-name="currency" unicode="&#xa4;" horiz-adv-x="968" 
d="M485 356q-79 0 -149 31l-160 -162l-149 150l159 157q-41 80 -41 185t41 182l-159 160l149 149l164 -164q69 29 145 29q77 0 146 -29l162 164l149 -149l-160 -158q41 -80 41 -184q0 -105 -41 -185l160 -157l-149 -150l-160 162q-67 -31 -148 -31zM485 551q63 0 99.5 44.5
t36.5 121.5q0 76 -37 119t-99 43q-63 0 -100 -43t-37 -119q0 -77 36.5 -121.5t100.5 -44.5z" />
    <glyph glyph-name="yen" unicode="&#xa5;" horiz-adv-x="1030" 
d="M375 0v512h-285v106h248l-55 136h-207v104h166l-232 576h289l225 -600l217 600h279l-232 -576h166v-104h-206l-56 -136h248v-106h-287v-512h-278z" />
    <glyph glyph-name="brokenbar" unicode="&#xa6;" horiz-adv-x="565" 
d="M414 727h-262v829h262v-829zM414 -348h-262v870h262v-870z" />
    <glyph glyph-name="section" unicode="&#xa7;" horiz-adv-x="1124" 
d="M565 -426q-213 0 -330 103.5t-137 322.5l262 41q12 -231 209 -231q79 0 125.5 42.5t46.5 110.5q0 60 -37.5 97t-152.5 75l-125 39q-168 54 -242.5 138t-74.5 204q0 196 172 320q-168 107 -168 315q0 184 121.5 292.5t324.5 108.5q209 0 318.5 -98.5t128.5 -304.5
l-263 -41q-9 109 -53.5 159t-130.5 50q-73 0 -114.5 -38.5t-41.5 -104.5q0 -60 34 -96t124 -68l111 -37q206 -70 284 -153t78 -212q0 -184 -172 -305q92 -57 131 -131t39 -178q0 -190 -123.5 -305t-343.5 -115zM670 389l10 -4q80 68 80 158q0 61 -39 100t-152 74l-100 33
l-8 2q-78 -63 -78 -154q0 -63 37.5 -100t138.5 -72z" />
    <glyph glyph-name="dieresis" unicode="&#xa8;" 
d="M561 1257v295h234v-295h-234zM229 1257v295h232v-295h-232z" />
    <glyph glyph-name="copyright" unicode="&#xa9;" horiz-adv-x="1552" 
d="M776 -98q-203 0 -358.5 97.5t-243.5 283t-88 434.5t88 434.5t243.5 283t358.5 97.5q308 0 498 -220t190 -595q0 -186 -50.5 -339.5t-141 -257.5t-218 -161t-278.5 -57zM776 23q257 0 406 184t149 510q0 325 -149 509.5t-406 184.5t-406 -184.5t-149 -509.5
q0 -326 149 -510t406 -184zM1069 821l-172 -30q-11 70 -35.5 104.5t-68.5 34.5q-55 0 -86 -55.5t-31 -155.5q0 -98 31 -153.5t86 -55.5q46 0 71.5 35t36.5 110l168 -28q-20 -129 -92 -199t-184 -70q-138 0 -217.5 97.5t-79.5 263.5q0 167 80 264.5t217 97.5q226 0 276 -260z
" />
    <glyph glyph-name="ordfeminine" unicode="&#xaa;" horiz-adv-x="739" 
d="M92 1227q44 221 277 221q254 0 254 -264v-242q0 -37 39 -37q10 0 22 4l-4 -145q-35 -12 -84 -12q-123 0 -152 96q-59 -98 -180 -98q-84 0 -136 52t-52 138q0 85 53.5 134t181.5 75l123 25v10q0 59 -18.5 84.5t-55.5 25.5q-35 0 -54 -22.5t-25 -71.5zM264 963
q0 -64 64 -64q48 0 78 36t30 99v21l-100 -23q-72 -14 -72 -69z" />
    <glyph glyph-name="guillemotleft" unicode="&#xab;" horiz-adv-x="1177" 
d="M539 391v-291l-463 322v283l463 321v-283l-287 -176zM1087 391v-291l-462 322v283l462 321v-283l-286 -176z" />
    <glyph glyph-name="logicalnot" unicode="&#xac;" horiz-adv-x="915" 
d="M82 840h752v-527h-230v299h-522v228z" />
    <glyph glyph-name="uni00AD" unicode="&#xad;" horiz-adv-x="0" 
 />
    <glyph glyph-name="registered" unicode="&#xae;" horiz-adv-x="1429" 
d="M715 -16q-136 0 -252 51t-199.5 144t-130.5 231.5t-47 306.5t47 306.5t130.5 231.5t199.5 144t252 51t251.5 -51t198.5 -144t129.5 -231.5t46.5 -306.5t-46.5 -306.5t-129.5 -231.5t-198.5 -144t-251.5 -51zM715 104q229 0 361 162.5t132 450.5t-132 450t-361 162
t-361.5 -162t-132.5 -450t132.5 -450.5t361.5 -162.5zM494 369v702h241q118 0 176 -57t58 -162q0 -143 -109 -195l135 -288h-174l-110 249h-58v-249h-159zM721 938h-68v-186h68q88 0 88 94q0 92 -88 92z" />
    <glyph glyph-name="macron" unicode="&#xaf;" 
d="M254 1266v211h516v-211h-516z" />
    <glyph glyph-name="degree" unicode="&#xb0;" horiz-adv-x="882" 
d="M440 1466q154 0 252.5 -99t98.5 -257q0 -157 -98.5 -256.5t-252.5 -99.5q-153 0 -251.5 99.5t-98.5 256.5q0 156 98.5 256t251.5 100zM440 956q60 0 93.5 41t33.5 113q0 70 -34 112t-93 42q-58 0 -92.5 -41.5t-34.5 -112.5t34.5 -112.5t92.5 -41.5z" />
    <glyph glyph-name="plusminus" unicode="&#xb1;" horiz-adv-x="915" 
d="M834 664h-263v-299h-229v299h-260v227h260v301h229v-301h263v-227zM834 14h-752v228h752v-228z" />
    <glyph glyph-name="twosuperior" unicode="&#xb2;" horiz-adv-x="649" 
d="M74 1069l225 207q52 48 72 83t20 73q0 84 -74 84q-39 0 -61 -29.5t-23 -85.5l-174 24q8 109 79.5 172.5t189.5 63.5q110 0 175.5 -60t65.5 -161q0 -71 -30.5 -125.5t-120.5 -140.5l-94 -89h251v-149h-501v133z" />
    <glyph glyph-name="threesuperior" unicode="&#xb3;" horiz-adv-x="653" 
d="M588 1137q0 -93 -73 -151t-196 -58q-120 0 -191 55.5t-77 161.5l164 22q9 -98 98 -98q45 0 69 21.5t24 62.5q0 37 -25.5 57.5t-71.5 20.5h-61v135h65q40 0 62 21t22 59q0 74 -82 74q-41 0 -66.5 -25.5t-29.5 -73.5l-162 23q9 101 80 159t189 58q114 0 183 -52.5
t69 -140.5q0 -119 -115 -163q125 -42 125 -168z" />
    <glyph glyph-name="acute" unicode="&#xb4;" 
d="M410 1245l135 330h307l-231 -330h-211z" />
    <glyph glyph-name="paragraph" unicode="&#xb6;" horiz-adv-x="1335" 
d="M745 -307h-264v934h-4q-180 0 -289.5 109.5t-109.5 289.5q0 186 109.5 297t289.5 111h268v-1741zM1184 -307h-262v1741h262v-1741z" />
    <glyph glyph-name="periodcentered" unicode="&#xb7;" 
d="M369 584v274h284v-274h-284z" />
    <glyph glyph-name="cedilla" unicode="&#xb8;" 
d="M778 -238q0 -189 -272 -192q-92 0 -205 22l6 125q110 -22 176 -22q111 0 111 65q0 52 -53 52q-30 0 -56 -23l-112 12l22 215h150l-8 -100q34 12 67 12q82 0 128 -43.5t46 -122.5z" />
    <glyph glyph-name="onesuperior" unicode="&#xb9;" horiz-adv-x="600" 
d="M70 936v151h155v410l-143 -31v148l166 39h162v-566h139v-151h-479z" />
    <glyph glyph-name="ordmasculine" unicode="&#xba;" horiz-adv-x="739" 
d="M369 750q-139 0 -219 92t-80 258q0 165 80 256.5t219 91.5q140 0 220.5 -91.5t80.5 -256.5q0 -166 -80 -258t-221 -92zM369 913q98 0 98 187q0 184 -98 184q-99 0 -99 -184q0 -187 99 -187z" />
    <glyph glyph-name="guillemotright" unicode="&#xbb;" horiz-adv-x="1177" 
d="M551 422l-463 -322v283l287 176l-287 176v291l463 -321v-283zM1100 422l-463 -322v283l287 176l-287 176v291l463 -321v-283z" />
    <glyph glyph-name="onequarter" unicode="&#xbc;" horiz-adv-x="1662" 
d="M70 717v151h155v410l-143 -31v148l166 39h162v-566h139v-151h-479zM555 0h-238l854 1434h238zM1524 0h-178v123h-320v131l328 465h170v-457h86v-139h-86v-123zM1186 262h160v232z" />
    <glyph glyph-name="onehalf" unicode="&#xbd;" horiz-adv-x="1714" 
d="M70 717v151h155v410l-143 -31v148l166 39h162v-566h139v-151h-479zM555 0h-238l854 1434h238zM1137 133l225 207q52 48 72 83t20 73q0 84 -74 84q-39 0 -61 -29.5t-23 -85.5l-174 24q8 109 79.5 172.5t189.5 63.5q110 0 175.5 -60t65.5 -161q0 -71 -30.5 -125.5
t-120.5 -140.5l-95 -88h252v-150h-501v133z" />
    <glyph glyph-name="threequarters" unicode="&#xbe;" horiz-adv-x="1658" 
d="M588 918q0 -93 -73 -151t-196 -58q-120 0 -191 55.5t-77 161.5l164 22q9 -98 98 -98q45 0 69 21.5t24 62.5q0 37 -25.5 57.5t-71.5 20.5h-61v135h65q40 0 62 21t22 59q0 73 -82 73q-41 0 -66.5 -25t-29.5 -73l-162 23q9 101 80 159t189 58q114 0 183 -52.5t69 -140.5
q0 -120 -115 -164q125 -42 125 -167zM553 0h-238l854 1434h238zM1522 0h-179v123h-319v131l328 465h170v-457h86v-139h-86v-123zM1184 262h159v232z" />
    <glyph glyph-name="questiondown" unicode="&#xbf;" horiz-adv-x="1011" 
d="M657 1122v-274h-266v274h266zM494 -82q83 0 130 65t60 201l266 -53q-26 -219 -147.5 -339t-317.5 -120q-182 0 -295.5 107.5t-113.5 275.5q0 75 16.5 135.5t42.5 102t58.5 77t65.5 68t61 67t48 82.5t25 105h262q-4 -72 -23 -133.5t-46 -104t-58.5 -80.5t-62.5 -71
t-56.5 -66.5t-41 -76t-15.5 -90.5q0 -71 37 -111.5t105 -40.5z" />
    <glyph glyph-name="Agrave" unicode="&#xc0;" horiz-adv-x="1069" 
d="M637 1556h-211l-231 330h305zM770 0l-63 293h-361l-65 -293h-263l359 1434h315l359 -1434h-281zM397 532h256l-127 580z" />
    <glyph glyph-name="Aacute" unicode="&#xc1;" horiz-adv-x="1069" 
d="M432 1556l135 330h307l-231 -330h-211zM770 0l-63 293h-361l-65 -293h-263l359 1434h315l359 -1434h-281zM397 532h256l-127 580z" />
    <glyph glyph-name="Acircumflex" unicode="&#xc2;" horiz-adv-x="1069" 
d="M662 1556l-130 185l-131 -185h-202l182 330h307l180 -330h-206zM770 0l-63 293h-361l-65 -293h-263l359 1434h315l359 -1434h-281zM397 532h256l-127 580z" />
    <glyph glyph-name="Atilde" unicode="&#xc3;" horiz-adv-x="1069" 
d="M834 1872q25 -167 -19 -244.5t-131 -77.5q-40 0 -81.5 20t-69.5 44.5t-56 44.5t-45 20q-45 0 -29 -110h-167q-23 165 20.5 242t128.5 77q40 0 81.5 -19.5t69 -43t55.5 -43t44 -19.5q44 0 31 109h168zM770 0l-63 293h-361l-65 -293h-263l359 1434h315l359 -1434h-281z
M397 532h256l-127 580z" />
    <glyph glyph-name="Adieresis" unicode="&#xc4;" horiz-adv-x="1069" 
d="M584 1569v295h233v-295h-233zM252 1569v295h231v-295h-231zM770 0l-63 293h-361l-65 -293h-263l359 1434h315l359 -1434h-281zM397 532h256l-127 580z" />
    <glyph glyph-name="Aring" unicode="&#xc5;" horiz-adv-x="1069" 
d="M537 1536q-115 0 -183.5 61t-68.5 164q0 101 68.5 161t183.5 60q112 0 178.5 -60t66.5 -161q0 -103 -66.5 -164t-178.5 -61zM537 1669q43 0 67.5 24.5t24.5 67.5q0 41 -24.5 65.5t-67.5 24.5q-44 0 -70.5 -24.5t-26.5 -65.5q0 -43 26.5 -67.5t70.5 -24.5zM770 0l-63 293
h-361l-65 -293h-263l359 1434h315l359 -1434h-281zM397 532h256l-127 580z" />
    <glyph glyph-name="AE" unicode="&#xc6;" horiz-adv-x="1517" 
d="M729 0v293h-364l-97 -293h-262l494 1434h932v-246h-426v-332h372v-246h-372v-366h438v-244h-715zM444 532h285v662h-67z" />
    <glyph glyph-name="Ccedilla" unicode="&#xc7;" horiz-adv-x="1112" 
d="M86 717q0 356 126.5 544.5t367.5 188.5q203 0 319 -127.5t148 -386.5l-271 -53q-20 168 -66.5 245.5t-129.5 77.5q-105 0 -155 -119t-50 -370q0 -253 49.5 -371.5t153.5 -118.5q90 0 137.5 79.5t62.5 252.5l277 -53q-40 -248 -140 -374.5t-274 -143.5l-6 -72q35 12 67 12
q82 0 128.5 -43.5t46.5 -122.5q0 -189 -273 -192q-92 0 -205 22l7 125q110 -22 176 -22q59 0 84.5 16t25.5 49q0 52 -53 52q-29 0 -55 -23l-113 12l21 189q-198 34 -302 219t-104 508z" />
    <glyph glyph-name="Egrave" unicode="&#xc8;" horiz-adv-x="942" 
d="M614 1556h-211l-231 330h305zM152 0v1434h706v-246h-432v-332h377v-246h-377v-366h442v-244h-716z" />
    <glyph glyph-name="Eacute" unicode="&#xc9;" horiz-adv-x="942" 
d="M389 1556l135 330h307l-231 -330h-211zM152 0v1434h706v-246h-432v-332h377v-246h-377v-366h442v-244h-716z" />
    <glyph glyph-name="Ecircumflex" unicode="&#xca;" horiz-adv-x="942" 
d="M633 1556l-129 185l-131 -185h-203l182 330h307l181 -330h-207zM152 0v1434h706v-246h-432v-332h377v-246h-377v-366h442v-244h-716z" />
    <glyph glyph-name="Edieresis" unicode="&#xcb;" horiz-adv-x="942" 
d="M551 1569v295h233v-295h-233zM219 1569v295h232v-295h-232zM152 0v1434h706v-246h-432v-332h377v-246h-377v-366h442v-244h-716z" />
    <glyph glyph-name="Igrave" unicode="&#xcc;" horiz-adv-x="583" 
d="M395 1556h-211l-231 330h305zM152 0v1434h280v-1434h-280z" />
    <glyph glyph-name="Iacute" unicode="&#xcd;" horiz-adv-x="583" 
d="M190 1556l136 330h307l-232 -330h-211zM152 0v1434h280v-1434h-280z" />
    <glyph glyph-name="Icircumflex" unicode="&#xce;" horiz-adv-x="583" 
d="M420 1556l-129 185l-131 -185h-203l182 330h307l181 -330h-207zM152 0v1434h280v-1434h-280z" />
    <glyph glyph-name="Idieresis" unicode="&#xcf;" horiz-adv-x="583" 
d="M342 1569v295h233v-295h-233zM10 1569v295h232v-295h-232zM152 0v1434h280v-1434h-280z" />
    <glyph glyph-name="Eth" unicode="&#xd0;" horiz-adv-x="1175" 
d="M152 0v641h-132v156h132v637h383q557 0 557 -723q0 -711 -557 -711h-383zM532 244q140 0 205.5 112.5t65.5 354.5q0 248 -65.5 362.5t-205.5 114.5h-100v-391h176v-156h-176v-397h100z" />
    <glyph glyph-name="Ntilde" unicode="&#xd1;" horiz-adv-x="1214" 
d="M907 1872q25 -168 -18.5 -245t-130.5 -77q-40 0 -81.5 20t-69.5 44.5t-56 44.5t-45 20q-45 0 -29 -110h-168q-23 165 21 242t129 77q40 0 81.5 -19.5t69 -43t55.5 -43t44 -19.5q43 0 30 109h168zM152 0v1434h282l375 -932v932h254v-1434h-283l-374 932v-932h-254z" />
    <glyph glyph-name="Ograve" unicode="&#xd2;" horiz-adv-x="1155" 
d="M680 1556h-211l-231 330h305zM578 -16q-492 0 -492 733t492 733q489 0 489 -733t-489 -733zM578 227q103 0 151.5 117.5t48.5 372.5t-48.5 372t-151.5 117q-104 0 -153.5 -117.5t-49.5 -371.5t49.5 -372t153.5 -118z" />
    <glyph glyph-name="Oacute" unicode="&#xd3;" horiz-adv-x="1155" 
d="M475 1556l135 330h308l-232 -330h-211zM578 -16q-492 0 -492 733t492 733q489 0 489 -733t-489 -733zM578 227q103 0 151.5 117.5t48.5 372.5t-48.5 372t-151.5 117q-104 0 -153.5 -117.5t-49.5 -371.5t49.5 -372t153.5 -118z" />
    <glyph glyph-name="Ocircumflex" unicode="&#xd4;" horiz-adv-x="1155" 
d="M705 1556l-130 185l-131 -185h-202l182 330h307l180 -330h-206zM578 -16q-492 0 -492 733t492 733q489 0 489 -733t-489 -733zM578 227q103 0 151.5 117.5t48.5 372.5t-48.5 372t-151.5 117q-104 0 -153.5 -117.5t-49.5 -371.5t49.5 -372t153.5 -118z" />
    <glyph glyph-name="Otilde" unicode="&#xd5;" horiz-adv-x="1155" 
d="M877 1872q25 -167 -19 -244.5t-131 -77.5q-40 0 -81.5 20t-69.5 44.5t-56 44.5t-45 20q-45 0 -29 -110h-167q-23 165 20.5 242t128.5 77q40 0 81.5 -19.5t69 -43t55.5 -43t44 -19.5q44 0 31 109h168zM578 -16q-492 0 -492 733t492 733q489 0 489 -733t-489 -733zM578 227
q103 0 151.5 117.5t48.5 372.5t-48.5 372t-151.5 117q-104 0 -153.5 -117.5t-49.5 -371.5t49.5 -372t153.5 -118z" />
    <glyph glyph-name="Odieresis" unicode="&#xd6;" horiz-adv-x="1155" 
d="M627 1569v295h233v-295h-233zM295 1569v295h231v-295h-231zM578 -16q-492 0 -492 733t492 733q489 0 489 -733t-489 -733zM578 227q103 0 151.5 117.5t48.5 372.5t-48.5 372t-151.5 117q-104 0 -153.5 -117.5t-49.5 -371.5t49.5 -372t153.5 -118z" />
    <glyph glyph-name="multiply" unicode="&#xd7;" horiz-adv-x="915" 
d="M649 379l-192 192l-193 -192l-153 153l192 193l-192 193l153 153l193 -192l192 192l154 -153l-193 -193l193 -193z" />
    <glyph glyph-name="Oslash" unicode="&#xd8;" horiz-adv-x="1155" 
d="M111 0l92 176q-117 186 -117 541q0 733 492 733q152 0 258 -74l30 58h178l-94 -179q117 -186 117 -538q0 -733 -489 -733q-154 0 -261 73l-30 -57h-176zM375 717q0 -105 10 -197l322 613q-46 73 -129 73q-104 0 -153.5 -117.5t-49.5 -371.5zM578 227q103 0 151.5 117.5
t48.5 372.5q0 120 -8 196l-324 -612q50 -74 132 -74z" />
    <glyph glyph-name="Ugrave" unicode="&#xd9;" horiz-adv-x="1155" 
d="M680 1556h-211l-231 330h305zM1022 446q0 -236 -111.5 -349t-332.5 -113q-445 0 -445 462v988h279v-1016q0 -99 40 -145t126 -46q85 0 125 46.5t40 144.5v1016h279v-988z" />
    <glyph glyph-name="Uacute" unicode="&#xda;" horiz-adv-x="1155" 
d="M475 1556l135 330h308l-232 -330h-211zM1022 446q0 -236 -111.5 -349t-332.5 -113q-445 0 -445 462v988h279v-1016q0 -99 40 -145t126 -46q85 0 125 46.5t40 144.5v1016h279v-988z" />
    <glyph glyph-name="Ucircumflex" unicode="&#xdb;" horiz-adv-x="1155" 
d="M705 1556l-130 185l-131 -185h-202l182 330h307l180 -330h-206zM1022 446q0 -236 -111.5 -349t-332.5 -113q-445 0 -445 462v988h279v-1016q0 -99 40 -145t126 -46q85 0 125 46.5t40 144.5v1016h279v-988z" />
    <glyph glyph-name="Udieresis" unicode="&#xdc;" horiz-adv-x="1155" 
d="M627 1569v295h233v-295h-233zM295 1569v295h231v-295h-231zM1022 446q0 -236 -111.5 -349t-332.5 -113q-445 0 -445 462v988h279v-1016q0 -99 40 -145t126 -46q85 0 125 46.5t40 144.5v1016h279v-988z" />
    <glyph glyph-name="Yacute" unicode="&#xdd;" 
d="M410 1556l135 330h307l-231 -330h-211zM371 0v530l-365 904h289l227 -603l217 603h279l-367 -910v-524h-280z" />
    <glyph glyph-name="Thorn" unicode="&#xde;" horiz-adv-x="1073" 
d="M152 0v1434h280v-213h129q226 0 344.5 -128t118.5 -372q0 -240 -125 -366t-364 -126h-103v-229h-280zM528 981h-96v-512h96q111 0 164 61t53 191q0 135 -53 197.5t-164 62.5z" />
    <glyph glyph-name="germandbls" unicode="&#xdf;" horiz-adv-x="1005" 
d="M98 0v1137q0 194 114.5 304.5t305.5 110.5q176 0 278.5 -105.5t102.5 -289.5q0 -110 -45 -192.5t-127 -120.5q113 -35 172 -142.5t59 -275.5q0 -213 -106 -327.5t-274 -114.5q-82 0 -152 22l33 223q40 -14 71 -14q73 0 115.5 59t42.5 185q0 248 -176 248h-45v221h43
q66 0 100.5 54t34.5 153q0 97 -36 146.5t-101 49.5q-67 0 -107.5 -48.5t-40.5 -143.5v-1139h-262z" />
    <glyph glyph-name="agrave" unicode="&#xe0;" horiz-adv-x="905" 
d="M545 1245h-211l-232 330h306zM63 756q20 195 115.5 289t276.5 94q180 0 268 -88.5t88 -270.5v-540q0 -47 37 -47q19 0 29 2l-5 -191q-79 -20 -133 -20q-80 0 -123 35t-55 112q-78 -147 -237 -147q-132 0 -206.5 82.5t-74.5 230.5q0 280 319 356l193 45v68
q0 89 -28.5 129.5t-88.5 40.5q-67 0 -98.5 -50t-34.5 -157zM301 319q0 -65 27.5 -94.5t83.5 -29.5q143 0 143 247v68l-111 -27q-75 -19 -109 -58.5t-34 -105.5z" />
    <glyph glyph-name="aacute" unicode="&#xe1;" horiz-adv-x="905" 
d="M340 1245l135 330h307l-231 -330h-211zM63 756q20 195 115.5 289t276.5 94q180 0 268 -88.5t88 -270.5v-540q0 -47 37 -47q19 0 29 2l-5 -191q-79 -20 -133 -20q-80 0 -123 35t-55 112q-78 -147 -237 -147q-132 0 -206.5 82.5t-74.5 230.5q0 280 319 356l193 45v68
q0 89 -28.5 129.5t-88.5 40.5q-67 0 -98.5 -50t-34.5 -157zM301 319q0 -65 27.5 -94.5t83.5 -29.5q143 0 143 247v68l-111 -27q-75 -19 -109 -58.5t-34 -105.5z" />
    <glyph glyph-name="acircumflex" unicode="&#xe2;" horiz-adv-x="905" 
d="M569 1245l-129 185l-131 -185h-203l183 330h307l180 -330h-207zM63 756q20 195 115.5 289t276.5 94q180 0 268 -88.5t88 -270.5v-540q0 -47 37 -47q19 0 29 2l-5 -191q-79 -20 -133 -20q-80 0 -123 35t-55 112q-78 -147 -237 -147q-132 0 -206.5 82.5t-74.5 230.5
q0 280 319 356l193 45v68q0 89 -28.5 129.5t-88.5 40.5q-67 0 -98.5 -50t-34.5 -157zM301 319q0 -65 27.5 -94.5t83.5 -29.5q143 0 143 247v68l-111 -27q-75 -19 -109 -58.5t-34 -105.5z" />
    <glyph glyph-name="atilde" unicode="&#xe3;" horiz-adv-x="905" 
d="M741 1561q25 -168 -18.5 -245t-130.5 -77q-40 0 -81.5 20t-69.5 44.5t-56 44.5t-45 20q-45 0 -29 -111h-168q-23 165 21 242.5t129 77.5q40 0 81.5 -19.5t69 -43t55.5 -43t44 -19.5q43 0 30 109h168zM63 756q20 195 115.5 289t276.5 94q180 0 268 -88.5t88 -270.5v-540
q0 -47 37 -47q19 0 29 2l-5 -191q-79 -20 -133 -20q-80 0 -123 35t-55 112q-78 -147 -237 -147q-132 0 -206.5 82.5t-74.5 230.5q0 280 319 356l193 45v68q0 89 -28.5 129.5t-88.5 40.5q-67 0 -98.5 -50t-34.5 -157zM301 319q0 -65 27.5 -94.5t83.5 -29.5q143 0 143 247v68
l-111 -27q-75 -19 -109 -58.5t-34 -105.5z" />
    <glyph glyph-name="adieresis" unicode="&#xe4;" horiz-adv-x="905" 
d="M492 1257v295h233v-295h-233zM160 1257v295h231v-295h-231zM63 756q20 195 115.5 289t276.5 94q180 0 268 -88.5t88 -270.5v-540q0 -47 37 -47q19 0 29 2l-5 -191q-79 -20 -133 -20q-80 0 -123 35t-55 112q-78 -147 -237 -147q-132 0 -206.5 82.5t-74.5 230.5
q0 280 319 356l193 45v68q0 89 -28.5 129.5t-88.5 40.5q-67 0 -98.5 -50t-34.5 -157zM301 319q0 -65 27.5 -94.5t83.5 -29.5q143 0 143 247v68l-111 -27q-75 -19 -109 -58.5t-34 -105.5z" />
    <glyph glyph-name="aring" unicode="&#xe5;" horiz-adv-x="905" 
d="M444 1225q-115 0 -183 61t-68 164q0 101 68 161t183 60q113 0 179.5 -60t66.5 -161q0 -103 -67 -164t-179 -61zM444 1358q43 0 68 24.5t25 67.5q0 41 -25 65.5t-68 24.5q-44 0 -70 -24.5t-26 -65.5q0 -43 26 -67.5t70 -24.5zM63 756q20 195 115.5 289t276.5 94
q180 0 268 -88.5t88 -270.5v-540q0 -47 37 -47q19 0 29 2l-5 -191q-79 -20 -133 -20q-80 0 -123 35t-55 112q-78 -147 -237 -147q-132 0 -206.5 82.5t-74.5 230.5q0 280 319 356l193 45v68q0 89 -28.5 129.5t-88.5 40.5q-67 0 -98.5 -50t-34.5 -157zM301 319
q0 -65 27.5 -94.5t83.5 -29.5q143 0 143 247v68l-111 -27q-75 -19 -109 -58.5t-34 -105.5z" />
    <glyph glyph-name="ae" unicode="&#xe6;" horiz-adv-x="1427" 
d="M367 -16q-152 0 -237 82.5t-85 230.5q0 280 320 356l192 45v68q0 89 -28 129.5t-89 40.5q-66 0 -97 -49.5t-36 -157.5l-241 27q22 195 116.5 289t274.5 94q178 0 258 -109q95 109 262 109q197 0 299 -130t102 -380q0 -77 -12 -142h-537q6 -162 43.5 -231.5t114.5 -69.5
q65 0 99 45.5t47 151.5l243 -35q-22 -179 -120 -271.5t-269 -92.5q-209 0 -305 159q-102 -159 -315 -159zM979 936q-70 0 -105.5 -60.5t-42.5 -197.5h283q-3 258 -135 258zM305 319q0 -65 27.5 -94.5t83.5 -29.5q141 0 141 247v68l-108 -27q-76 -19 -110 -58t-34 -106z" />
    <glyph glyph-name="ccedilla" unicode="&#xe7;" horiz-adv-x="894" 
d="M850 713l-246 -35q-9 139 -39 198.5t-92 59.5q-75 0 -108 -86t-33 -289q0 -204 32 -289.5t107 -85.5q63 0 94.5 61.5t40.5 203.5l248 -35q-44 -409 -356 -430l-6 -70q34 12 67 12q82 0 128 -43.5t46 -122.5q0 -189 -272 -192q-92 0 -205 22l6 125q110 -22 176 -22
q111 0 111 65q0 52 -53 52q-30 0 -56 -23l-112 12l20 195q-287 73 -287 565q0 291 101.5 434.5t308.5 143.5q170 0 260 -101.5t119 -324.5z" />
    <glyph glyph-name="egrave" unicode="&#xe8;" horiz-adv-x="923" 
d="M563 1245h-211l-231 330h305zM481 -16q-217 0 -322.5 143t-105.5 438q0 574 420 574q195 0 298 -130t103 -380q0 -77 -12 -142h-536q6 -162 42.5 -231.5t112.5 -69.5q66 0 100 45.5t48 151.5l243 -35q-22 -179 -121 -271.5t-270 -92.5zM475 936q-70 0 -105 -60.5
t-42 -197.5h282q-3 258 -135 258z" />
    <glyph glyph-name="eacute" unicode="&#xe9;" horiz-adv-x="923" 
d="M358 1245l136 330h307l-232 -330h-211zM481 -16q-217 0 -322.5 143t-105.5 438q0 574 420 574q195 0 298 -130t103 -380q0 -77 -12 -142h-536q6 -162 42.5 -231.5t112.5 -69.5q66 0 100 45.5t48 151.5l243 -35q-22 -179 -121 -271.5t-270 -92.5zM475 936
q-70 0 -105 -60.5t-42 -197.5h282q-3 258 -135 258z" />
    <glyph glyph-name="ecircumflex" unicode="&#xea;" horiz-adv-x="923" 
d="M588 1245l-129 185l-131 -185h-203l182 330h307l181 -330h-207zM481 -16q-217 0 -322.5 143t-105.5 438q0 574 420 574q195 0 298 -130t103 -380q0 -77 -12 -142h-536q6 -162 42.5 -231.5t112.5 -69.5q66 0 100 45.5t48 151.5l243 -35q-22 -179 -121 -271.5t-270 -92.5z
M475 936q-70 0 -105 -60.5t-42 -197.5h282q-3 258 -135 258z" />
    <glyph glyph-name="edieresis" unicode="&#xeb;" horiz-adv-x="923" 
d="M510 1257v295h233v-295h-233zM178 1257v295h232v-295h-232zM481 -16q-217 0 -322.5 143t-105.5 438q0 574 420 574q195 0 298 -130t103 -380q0 -77 -12 -142h-536q6 -162 42.5 -231.5t112.5 -69.5q66 0 100 45.5t48 151.5l243 -35q-22 -179 -121 -271.5t-270 -92.5z
M475 936q-70 0 -105 -60.5t-42 -197.5h282q-3 258 -135 258z" />
    <glyph glyph-name="igrave" unicode="&#xec;" horiz-adv-x="460" 
d="M334 1245h-211l-232 330h306zM98 0v1122h262v-1122h-262z" />
    <glyph glyph-name="iacute" unicode="&#xed;" horiz-adv-x="460" 
d="M129 1245l135 330h307l-231 -330h-211zM98 0v1122h262v-1122h-262z" />
    <glyph glyph-name="icircumflex" unicode="&#xee;" horiz-adv-x="460" 
d="M358 1245l-129 185l-131 -185h-202l182 330h307l180 -330h-207zM98 0v1122h262v-1122h-262z" />
    <glyph glyph-name="idieresis" unicode="&#xef;" horiz-adv-x="460" 
d="M281 1257v295h233v-295h-233zM-51 1257v295h231v-295h-231zM98 0v1122h262v-1122h-262z" />
    <glyph glyph-name="eth" unicode="&#xf0;" horiz-adv-x="931" 
d="M465 -16q-200 0 -302 129.5t-102 371.5q0 504 388 504q71 0 124 -33q-28 101 -98 222l-233 -88v165l145 56q-52 69 -154 190l261 55q72 -89 118 -161l226 86v-164l-146 -55q178 -337 178 -758q0 -252 -101.5 -386t-303.5 -134zM465 186q74 0 104.5 67.5t30.5 231.5
t-30.5 232.5t-104.5 68.5q-71 0 -102 -69t-31 -232t31 -231t102 -68z" />
    <glyph glyph-name="ntilde" unicode="&#xf1;" horiz-adv-x="970" 
d="M784 1561q25 -168 -18.5 -245t-130.5 -77q-40 0 -81.5 20t-69.5 44.5t-56 44.5t-45 20q-45 0 -29 -111h-168q-23 165 21 242.5t129 77.5q40 0 81.5 -19.5t69 -43t55.5 -43t44 -19.5q43 0 30 109h168zM98 0v1122h219l29 -192q41 103 114 156t169 53q122 0 186 -85t64 -247
v-807h-265v748q0 139 -100 139q-70 0 -112 -60t-42 -186v-641h-262z" />
    <glyph glyph-name="ograve" unicode="&#xf2;" horiz-adv-x="929" 
d="M567 1245h-211l-231 330h305zM465 -16q-404 0 -404 577q0 578 404 578q204 0 303.5 -143.5t99.5 -434.5t-99.5 -434t-303.5 -143zM465 186q72 0 102.5 85t30.5 290t-30.5 290t-102.5 85q-71 0 -102 -85.5t-31 -289.5t31 -289.5t102 -85.5z" />
    <glyph glyph-name="oacute" unicode="&#xf3;" horiz-adv-x="929" 
d="M362 1245l136 330h307l-232 -330h-211zM465 -16q-404 0 -404 577q0 578 404 578q204 0 303.5 -143.5t99.5 -434.5t-99.5 -434t-303.5 -143zM465 186q72 0 102.5 85t30.5 290t-30.5 290t-102.5 85q-71 0 -102 -85.5t-31 -289.5t31 -289.5t102 -85.5z" />
    <glyph glyph-name="ocircumflex" unicode="&#xf4;" horiz-adv-x="929" 
d="M592 1245l-129 185l-131 -185h-203l182 330h307l181 -330h-207zM465 -16q-404 0 -404 577q0 578 404 578q204 0 303.5 -143.5t99.5 -434.5t-99.5 -434t-303.5 -143zM465 186q72 0 102.5 85t30.5 290t-30.5 290t-102.5 85q-71 0 -102 -85.5t-31 -289.5t31 -289.5
t102 -85.5z" />
    <glyph glyph-name="otilde" unicode="&#xf5;" horiz-adv-x="929" 
d="M764 1561q25 -167 -19 -244.5t-131 -77.5q-40 0 -81.5 20t-69.5 44.5t-56 44.5t-45 20q-44 0 -28 -111h-168q-23 166 20.5 243t128.5 77q40 0 81.5 -19.5t69 -43t55.5 -43t44 -19.5q44 0 31 109h168zM465 -16q-404 0 -404 577q0 578 404 578q204 0 303.5 -143.5
t99.5 -434.5t-99.5 -434t-303.5 -143zM465 186q72 0 102.5 85t30.5 290t-30.5 290t-102.5 85q-71 0 -102 -85.5t-31 -289.5t31 -289.5t102 -85.5z" />
    <glyph glyph-name="odieresis" unicode="&#xf6;" horiz-adv-x="929" 
d="M514 1257v295h234v-295h-234zM182 1257v295h232v-295h-232zM465 -16q-404 0 -404 577q0 578 404 578q204 0 303.5 -143.5t99.5 -434.5t-99.5 -434t-303.5 -143zM465 186q72 0 102.5 85t30.5 290t-30.5 290t-102.5 85q-71 0 -102 -85.5t-31 -289.5t31 -289.5t102 -85.5z
" />
    <glyph glyph-name="divide" unicode="&#xf7;" horiz-adv-x="915" 
d="M303 995v279h309v-279h-309zM834 612h-752v228h752v-228zM303 180v277h309v-277h-309z" />
    <glyph glyph-name="oslash" unicode="&#xf8;" horiz-adv-x="929" 
d="M66 0l81 147q-86 145 -86 414q0 578 404 578q121 0 209 -54l20 37h174l-84 -151q84 -144 84 -410q0 -291 -99.5 -434t-303.5 -143q-127 0 -207 51l-20 -35h-172zM315 561q0 -77 2 -110l246 438q-32 49 -98 49q-80 0 -115 -86.5t-35 -290.5zM465 186q83 0 116 84t33 291
q0 74 -2 105l-243 -430q36 -50 96 -50z" />
    <glyph glyph-name="ugrave" unicode="&#xf9;" horiz-adv-x="952" 
d="M580 1245h-211l-232 330h305zM590 487v635h262v-1122h-217l-27 166q-74 -182 -248 -182q-129 0 -198.5 83.5t-69.5 241.5v813h262v-735q0 -77 24.5 -114t76.5 -37q69 0 102 61t33 190z" />
    <glyph glyph-name="uacute" unicode="&#xfa;" horiz-adv-x="952" 
d="M375 1245l135 330h307l-231 -330h-211zM590 487v635h262v-1122h-217l-27 166q-74 -182 -248 -182q-129 0 -198.5 83.5t-69.5 241.5v813h262v-735q0 -77 24.5 -114t76.5 -37q69 0 102 61t33 190z" />
    <glyph glyph-name="ucircumflex" unicode="&#xfb;" horiz-adv-x="952" 
d="M604 1245l-129 185l-131 -185h-203l183 330h307l180 -330h-207zM590 487v635h262v-1122h-217l-27 166q-74 -182 -248 -182q-129 0 -198.5 83.5t-69.5 241.5v813h262v-735q0 -77 24.5 -114t76.5 -37q69 0 102 61t33 190z" />
    <glyph glyph-name="udieresis" unicode="&#xfc;" horiz-adv-x="952" 
d="M526 1257v295h234v-295h-234zM195 1257v295h231v-295h-231zM590 487v635h262v-1122h-217l-27 166q-74 -182 -248 -182q-129 0 -198.5 83.5t-69.5 241.5v813h262v-735q0 -77 24.5 -114t76.5 -37q69 0 102 61t33 190z" />
    <glyph glyph-name="yacute" unicode="&#xfd;" horiz-adv-x="866" 
d="M332 1245l135 330h307l-231 -330h-211zM604 1122h256l-311 -1177q-54 -206 -134.5 -288.5t-228.5 -82.5q-56 0 -108 14l-8 230q30 -6 69 -6q76 0 110 39.5t66 168.5l-309 1102h270l175 -727z" />
    <glyph glyph-name="thorn" unicode="&#xfe;" horiz-adv-x="968" 
d="M596 -16q-158 0 -236 166v-560h-262v1946h262v-567q81 170 236 170q154 0 232.5 -146.5t78.5 -431.5q0 -284 -78.5 -430.5t-232.5 -146.5zM496 219q72 0 105.5 82t33.5 260q0 184 -32.5 267t-104.5 83q-138 0 -138 -350q0 -342 136 -342z" />
    <glyph glyph-name="ydieresis" unicode="&#xff;" horiz-adv-x="866" 
d="M483 1257v295h234v-295h-234zM152 1257v295h231v-295h-231zM604 1122h256l-311 -1177q-54 -206 -134.5 -288.5t-228.5 -82.5q-56 0 -108 14l-8 230q30 -6 69 -6q76 0 110 39.5t66 168.5l-309 1102h270l175 -727z" />
    <glyph glyph-name="Amacron" unicode="&#x100;" horiz-adv-x="1069" 
d="M276 1577v211h517v-211h-517zM770 0l-63 293h-361l-65 -293h-263l359 1434h315l359 -1434h-281zM397 532h256l-127 580z" />
    <glyph glyph-name="amacron" unicode="&#x101;" horiz-adv-x="905" 
d="M184 1266v211h516v-211h-516zM63 756q20 195 115.5 289t276.5 94q180 0 268 -88.5t88 -270.5v-540q0 -47 37 -47q19 0 29 2l-5 -191q-79 -20 -133 -20q-80 0 -123 35t-55 112q-78 -147 -237 -147q-132 0 -206.5 82.5t-74.5 230.5q0 280 319 356l193 45v68
q0 89 -28.5 129.5t-88.5 40.5q-67 0 -98.5 -50t-34.5 -157zM301 319q0 -65 27.5 -94.5t83.5 -29.5q143 0 143 247v68l-111 -27q-75 -19 -109 -58.5t-34 -105.5z" />
    <glyph glyph-name="Abreve" unicode="&#x102;" horiz-adv-x="1069" 
d="M637 1882h203q0 -173 -72.5 -256.5t-232.5 -83.5q-161 0 -234.5 83.5t-73.5 256.5h205q0 -85 25 -122.5t78 -37.5q54 0 78 37t24 123zM770 0l-63 293h-361l-65 -293h-263l359 1434h315l359 -1434h-281zM397 532h256l-127 580z" />
    <glyph glyph-name="abreve" unicode="&#x103;" horiz-adv-x="905" 
d="M545 1571h203q0 -173 -73 -256.5t-233 -83.5t-233.5 83.5t-73.5 256.5h205q0 -85 24.5 -122.5t77.5 -37.5q54 0 78.5 37t24.5 123zM63 756q20 195 115.5 289t276.5 94q180 0 268 -88.5t88 -270.5v-540q0 -47 37 -47q19 0 29 2l-5 -191q-79 -20 -133 -20q-80 0 -123 35
t-55 112q-78 -147 -237 -147q-132 0 -206.5 82.5t-74.5 230.5q0 280 319 356l193 45v68q0 89 -28.5 129.5t-88.5 40.5q-67 0 -98.5 -50t-34.5 -157zM301 319q0 -65 27.5 -94.5t83.5 -29.5q143 0 143 247v68l-111 -27q-75 -19 -109 -58.5t-34 -105.5z" />
    <glyph glyph-name="Aogonek" unicode="&#x104;" horiz-adv-x="1069" 
d="M643 -217q0 134 127 217l-63 293h-363l-63 -293h-263l359 1434h313l359 -1434q-92 -22 -137.5 -60.5t-45.5 -84.5q0 -72 92 -72q45 0 91 14l-7 -196q-77 -27 -157 -27q-118 0 -180 53t-62 156zM397 532h256l-129 584z" />
    <glyph glyph-name="aogonek" unicode="&#x105;" horiz-adv-x="905" 
d="M870 -399q-73 -27 -155 -27q-118 0 -180 48.5t-62 141.5q0 158 164 242q-61 34 -76 127q-76 -149 -235 -149q-132 0 -206.5 82.5t-74.5 230.5q0 280 320 356l192 45v68q0 89 -28 129.5t-89 40.5q-66 0 -97 -49.5t-36 -157.5l-241 27q22 195 116.5 289t274.5 94t269 -89
t89 -270v-540q0 -47 37 -47q17 0 27 2l-5 -191q-93 -29 -135.5 -68t-42.5 -81q0 -72 92 -72q45 0 91 14zM305 319q0 -65 27.5 -94.5t83.5 -29.5q141 0 141 247v68l-108 -27q-76 -19 -110 -58t-34 -106z" />
    <glyph glyph-name="Cacute" unicode="&#x106;" horiz-adv-x="1112" 
d="M475 1556l135 330h308l-232 -330h-211zM86 717q0 356 126.5 544.5t367.5 188.5q203 0 319 -127.5t148 -386.5l-271 -53q-20 168 -66.5 245.5t-129.5 77.5q-105 0 -155 -119t-50 -370q0 -253 49.5 -371.5t153.5 -118.5q90 0 137.5 79.5t62.5 252.5l277 -53
q-43 -268 -158 -395t-319 -127q-239 0 -365.5 188t-126.5 545z" />
    <glyph glyph-name="cacute" unicode="&#x107;" horiz-adv-x="894" 
d="M348 1245l135 330h308l-232 -330h-211zM850 713l-246 -35q-9 139 -39 198.5t-92 59.5q-75 0 -108 -86t-33 -289q0 -204 32 -289.5t107 -85.5q63 0 94.5 61.5t40.5 203.5l248 -35q-47 -432 -393 -432q-400 0 -400 577q0 291 101.5 434.5t308.5 143.5q170 0 260 -101.5
t119 -324.5z" />
    <glyph glyph-name="Ccircumflex" unicode="&#x108;" horiz-adv-x="1112" 
d="M705 1556l-130 185l-131 -185h-202l182 330h307l180 -330h-206zM86 717q0 356 126.5 544.5t367.5 188.5q203 0 319 -127.5t148 -386.5l-271 -53q-20 168 -66.5 245.5t-129.5 77.5q-105 0 -155 -119t-50 -370q0 -253 49.5 -371.5t153.5 -118.5q90 0 137.5 79.5t62.5 252.5
l277 -53q-43 -268 -158 -395t-319 -127q-239 0 -365.5 188t-126.5 545z" />
    <glyph glyph-name="ccircumflex" unicode="&#x109;" horiz-adv-x="894" 
d="M578 1245l-129 185l-132 -185h-202l182 330h307l180 -330h-206zM850 713l-246 -35q-9 139 -39 198.5t-92 59.5q-75 0 -108 -86t-33 -289q0 -204 32 -289.5t107 -85.5q63 0 94.5 61.5t40.5 203.5l248 -35q-47 -432 -393 -432q-400 0 -400 577q0 291 101.5 434.5
t308.5 143.5q170 0 260 -101.5t119 -324.5z" />
    <glyph glyph-name="Cdotaccent" unicode="&#x10a;" horiz-adv-x="1112" 
d="M434 1569v274h285v-274h-285zM86 717q0 356 126.5 544.5t367.5 188.5q203 0 319 -127.5t148 -386.5l-271 -53q-20 168 -66.5 245.5t-129.5 77.5q-105 0 -155 -119t-50 -370q0 -253 49.5 -371.5t153.5 -118.5q90 0 137.5 79.5t62.5 252.5l277 -53q-43 -268 -158 -395
t-319 -127q-239 0 -365.5 188t-126.5 545z" />
    <glyph glyph-name="cdotaccent" unicode="&#x10b;" horiz-adv-x="894" 
d="M307 1257v275h285v-275h-285zM850 713l-246 -35q-9 139 -39 198.5t-92 59.5q-75 0 -108 -86t-33 -289q0 -204 32 -289.5t107 -85.5q63 0 94.5 61.5t40.5 203.5l248 -35q-47 -432 -393 -432q-400 0 -400 577q0 291 101.5 434.5t308.5 143.5q170 0 260 -101.5t119 -324.5z
" />
    <glyph glyph-name="Ccaron" unicode="&#x10c;" horiz-adv-x="1112" 
d="M911 1886l-180 -330h-307l-182 330h209l129 -182l129 182h202zM86 717q0 356 126.5 544.5t367.5 188.5q203 0 319 -127.5t148 -386.5l-271 -53q-20 168 -66.5 245.5t-129.5 77.5q-105 0 -155 -119t-50 -370q0 -253 49.5 -371.5t153.5 -118.5q90 0 137.5 79.5t62.5 252.5
l277 -53q-43 -268 -158 -395t-319 -127q-239 0 -365.5 188t-126.5 545z" />
    <glyph glyph-name="ccaron" unicode="&#x10d;" horiz-adv-x="894" 
d="M784 1575l-180 -330h-307l-182 330h209l129 -182l129 182h202zM850 713l-246 -35q-9 139 -39 198.5t-92 59.5q-75 0 -108 -86t-33 -289q0 -204 32 -289.5t107 -85.5q63 0 94.5 61.5t40.5 203.5l248 -35q-47 -432 -393 -432q-400 0 -400 577q0 291 101.5 434.5
t308.5 143.5q170 0 260 -101.5t119 -324.5z" />
    <glyph glyph-name="Dcaron" unicode="&#x10e;" horiz-adv-x="1175" 
d="M922 1886l-181 -330h-307l-182 330h209l129 -182l129 182h203zM152 0v1434h383q557 0 557 -723q0 -711 -557 -711h-383zM532 244q140 0 205.5 112.5t65.5 354.5q0 248 -65.5 362.5t-205.5 114.5h-100v-944h100z" />
    <glyph glyph-name="dcaron" unicode="&#x10f;" horiz-adv-x="1169" 
d="M373 -16q-154 0 -233 146.5t-79 430.5t79 431t233 147q155 0 233 -160v557h262v-1536h-219l-26 184q-78 -200 -250 -200zM973 1087v449h280l-79 -449h-201zM473 219q133 0 133 342q0 350 -135 350q-72 0 -105.5 -83t-33.5 -267q0 -178 34.5 -260t106.5 -82z" />
    <glyph glyph-name="Dcroat" unicode="&#x110;" horiz-adv-x="1175" 
d="M152 0v641h-132v156h132v637h383q557 0 557 -723q0 -711 -557 -711h-383zM532 244q140 0 205.5 112.5t65.5 354.5q0 248 -65.5 362.5t-205.5 114.5h-100v-391h176v-156h-176v-397h100z" />
    <glyph glyph-name="dcroat" unicode="&#x111;" horiz-adv-x="964" 
d="M373 -16q-154 0 -233 142t-79 419q0 276 79 418.5t233 142.5t233 -158v293h-176v152h176v143h262v-143h119v-152h-119v-1241h-219l-26 180q-76 -196 -250 -196zM473 219q133 0 133 326q0 334 -135 334q-72 0 -105.5 -80t-33.5 -254q0 -169 34.5 -247.5t106.5 -78.5z" />
    <glyph glyph-name="Emacron" unicode="&#x112;" horiz-adv-x="942" 
d="M248 1577v211h516v-211h-516zM152 0v1434h706v-246h-432v-332h377v-246h-377v-366h442v-244h-716z" />
    <glyph glyph-name="emacron" unicode="&#x113;" horiz-adv-x="923" 
d="M203 1266v211h516v-211h-516zM481 -16q-217 0 -322.5 143t-105.5 438q0 574 420 574q195 0 298 -130t103 -380q0 -77 -12 -142h-536q6 -162 42.5 -231.5t112.5 -69.5q66 0 100 45.5t48 151.5l243 -35q-22 -179 -121 -271.5t-270 -92.5zM475 936q-70 0 -105 -60.5
t-42 -197.5h282q-3 258 -135 258z" />
    <glyph glyph-name="Ebreve" unicode="&#x114;" horiz-adv-x="942" 
d="M582 1882h202q0 -173 -72.5 -256.5t-232.5 -83.5t-233.5 83.5t-73.5 256.5h205q0 -85 24.5 -122.5t77.5 -37.5q54 0 78.5 37t24.5 123zM152 0v1434h706v-246h-432v-332h377v-246h-377v-366h442v-244h-716z" />
    <glyph glyph-name="ebreve" unicode="&#x115;" horiz-adv-x="923" 
d="M563 1571h203q0 -173 -72.5 -256.5t-232.5 -83.5t-233.5 83.5t-73.5 256.5h204q0 -85 25 -122.5t78 -37.5q54 0 78 37t24 123zM481 -16q-217 0 -322.5 143t-105.5 438q0 574 420 574q195 0 298 -130t103 -380q0 -77 -12 -142h-536q6 -162 42.5 -231.5t112.5 -69.5
q66 0 100 45.5t48 151.5l243 -35q-22 -179 -121 -271.5t-270 -92.5zM475 936q-70 0 -105 -60.5t-42 -197.5h282q-3 258 -135 258z" />
    <glyph glyph-name="Edotaccent" unicode="&#x116;" horiz-adv-x="942" 
d="M371 1569v274h284v-274h-284zM152 0v1434h706v-246h-432v-332h377v-246h-377v-366h442v-244h-716z" />
    <glyph glyph-name="edotaccent" unicode="&#x117;" horiz-adv-x="923" 
d="M317 1257v275h285v-275h-285zM481 -16q-217 0 -322.5 143t-105.5 438q0 574 420 574q195 0 298 -130t103 -380q0 -77 -12 -142h-536q6 -162 42.5 -231.5t112.5 -69.5q66 0 100 45.5t48 151.5l243 -35q-22 -179 -121 -271.5t-270 -92.5zM475 936q-70 0 -105 -60.5
t-42 -197.5h282q-3 258 -135 258z" />
    <glyph glyph-name="Eogonek" unicode="&#x118;" horiz-adv-x="942" 
d="M152 0v1434h706v-246h-432v-332h377v-246h-377v-366h442v-244q-92 -21 -137 -59.5t-45 -85.5q0 -72 94 -72q42 0 88 14l-6 -196q-73 -27 -157 -27q-118 0 -180 49t-62 144q0 148 151 233h-462z" />
    <glyph glyph-name="eogonek" unicode="&#x119;" horiz-adv-x="923" 
d="M862 -399q-73 -27 -157 -27q-117 0 -178.5 49t-61.5 144q0 104 88 223q-35 -6 -72 -6q-217 0 -322.5 143t-105.5 438q0 574 420 574q195 0 298 -130t103 -380q0 -77 -12 -142h-536q6 -162 42.5 -231.5t112.5 -69.5q66 0 100 45.5t48 151.5l243 -35q-8 -81 -39 -162
t-62.5 -133.5t-57 -107t-25.5 -90.5q0 -72 92 -72q44 0 90 14zM475 936q-70 0 -105 -60.5t-42 -197.5h282q-3 258 -135 258z" />
    <glyph glyph-name="Ecaron" unicode="&#x11a;" horiz-adv-x="942" 
d="M840 1886l-181 -330h-307l-182 330h209l129 -182l129 182h203zM152 0v1434h706v-246h-432v-332h377v-246h-377v-366h442v-244h-716z" />
    <glyph glyph-name="ecaron" unicode="&#x11b;" horiz-adv-x="923" 
d="M795 1575l-181 -330h-307l-182 330h209l129 -182l129 182h203zM481 -16q-217 0 -322.5 143t-105.5 438q0 574 420 574q195 0 298 -130t103 -380q0 -77 -12 -142h-536q6 -162 42.5 -231.5t112.5 -69.5q66 0 100 45.5t48 151.5l243 -35q-22 -179 -121 -271.5t-270 -92.5z
M475 936q-70 0 -105 -60.5t-42 -197.5h282q-3 258 -135 258z" />
    <glyph glyph-name="Gcircumflex" unicode="&#x11c;" horiz-adv-x="1165" 
d="M715 1556l-129 185l-131 -185h-203l182 330h307l181 -330h-207zM86 717q0 358 132 545.5t380 187.5q193 0 303.5 -118t145.5 -363l-271 -54q-17 151 -62 221t-124 70q-109 0 -162 -118.5t-53 -370.5q0 -254 53.5 -372t167.5 -118q187 0 205 297h-213v219h477v-743h-184
l-33 201q-99 -217 -309 -217q-213 0 -333 193.5t-120 539.5z" />
    <glyph glyph-name="gcircumflex" unicode="&#x11d;" horiz-adv-x="915" 
d="M561 1245l-129 185l-131 -185h-203l183 330h307l180 -330h-207zM426 1139q163 0 260 -82q42 66 100.5 97.5t124.5 21.5l-6 -258q-64 16 -129 6q23 -71 23 -146q0 -173 -99 -271.5t-274 -98.5q-42 0 -82 6q-51 -20 -51 -76q0 -39 27 -56.5t86 -19.5l155 -6
q175 -4 264.5 -83.5t89.5 -225.5q0 -171 -128 -272t-355 -101q-217 0 -324.5 70t-107.5 204q0 162 182 222q-123 48 -123 188q0 148 152 203q-74 46 -114 127.5t-40 189.5q0 170 98 265.5t271 95.5zM545 778q0 97 -28.5 142t-90.5 45q-59 0 -87 -45.5t-28 -141.5
q0 -101 28 -148.5t87 -47.5q61 0 90 47.5t29 148.5zM233 -117q0 -143 201 -143q105 0 165 38.5t60 108.5q0 64 -36.5 94.5t-112.5 32.5l-139 4q-64 -3 -101 -38.5t-37 -96.5z" />
    <glyph glyph-name="Gbreve" unicode="&#x11e;" horiz-adv-x="1165" 
d="M690 1882h203q0 -173 -72.5 -256.5t-232.5 -83.5t-233.5 83.5t-73.5 256.5h204q0 -85 25 -122.5t78 -37.5q54 0 78 37t24 123zM86 717q0 358 132 545.5t380 187.5q193 0 303.5 -118t145.5 -363l-271 -54q-17 151 -62 221t-124 70q-109 0 -162 -118.5t-53 -370.5
q0 -254 53.5 -372t167.5 -118q187 0 205 297h-213v219h477v-743h-184l-33 201q-99 -217 -309 -217q-213 0 -333 193.5t-120 539.5z" />
    <glyph glyph-name="gbreve" unicode="&#x11f;" horiz-adv-x="915" 
d="M537 1571h202q0 -173 -72.5 -256.5t-232.5 -83.5t-233.5 83.5t-73.5 256.5h205q0 -85 24.5 -122.5t77.5 -37.5q54 0 78.5 37t24.5 123zM426 1139q163 0 260 -82q42 66 100.5 97.5t124.5 21.5l-6 -258q-64 16 -129 6q23 -71 23 -146q0 -173 -99 -271.5t-274 -98.5
q-42 0 -82 6q-51 -20 -51 -76q0 -39 27 -56.5t86 -19.5l155 -6q175 -4 264.5 -83.5t89.5 -225.5q0 -171 -128 -272t-355 -101q-217 0 -324.5 70t-107.5 204q0 162 182 222q-123 48 -123 188q0 148 152 203q-74 46 -114 127.5t-40 189.5q0 170 98 265.5t271 95.5zM545 778
q0 97 -28.5 142t-90.5 45q-59 0 -87 -45.5t-28 -141.5q0 -101 28 -148.5t87 -47.5q61 0 90 47.5t29 148.5zM233 -117q0 -143 201 -143q105 0 165 38.5t60 108.5q0 64 -36.5 94.5t-112.5 32.5l-139 4q-64 -3 -101 -38.5t-37 -96.5z" />
    <glyph glyph-name="Gdotaccent" unicode="&#x120;" horiz-adv-x="1165" 
d="M444 1569v274h285v-274h-285zM86 717q0 358 132 545.5t380 187.5q193 0 303.5 -118t145.5 -363l-271 -54q-17 151 -62 221t-124 70q-109 0 -162 -118.5t-53 -370.5q0 -254 53.5 -372t167.5 -118q187 0 205 297h-213v219h477v-743h-184l-33 201q-99 -217 -309 -217
q-213 0 -333 193.5t-120 539.5z" />
    <glyph glyph-name="gdotaccent" unicode="&#x121;" horiz-adv-x="915" 
d="M291 1257v275h284v-275h-284zM426 1139q163 0 260 -82q42 66 100.5 97.5t124.5 21.5l-6 -258q-64 16 -129 6q23 -71 23 -146q0 -173 -99 -271.5t-274 -98.5q-42 0 -82 6q-51 -20 -51 -76q0 -39 27 -56.5t86 -19.5l155 -6q175 -4 264.5 -83.5t89.5 -225.5
q0 -171 -128 -272t-355 -101q-217 0 -324.5 70t-107.5 204q0 162 182 222q-123 48 -123 188q0 148 152 203q-74 46 -114 127.5t-40 189.5q0 170 98 265.5t271 95.5zM545 778q0 97 -28.5 142t-90.5 45q-59 0 -87 -45.5t-28 -141.5q0 -101 28 -148.5t87 -47.5q61 0 90 47.5
t29 148.5zM233 -117q0 -143 201 -143q105 0 165 38.5t60 108.5q0 64 -36.5 94.5t-112.5 32.5l-139 4q-64 -3 -101 -38.5t-37 -96.5z" />
    <glyph glyph-name="Gcommaaccent" unicode="&#x122;" horiz-adv-x="1165" 
d="M86 717q0 358 132 545.5t380 187.5q193 0 303.5 -118t145.5 -363l-271 -54q-17 151 -62 221t-124 70q-109 0 -162 -118.5t-53 -370.5q0 -254 53.5 -372t167.5 -118q187 0 205 297h-213v219h477v-743h-184l-33 201q-99 -217 -309 -217q-213 0 -333 193.5t-120 539.5z
M303 -418l119 297h303l-197 -297h-225z" />
    <glyph glyph-name="gcommaaccent" unicode="&#x123;" horiz-adv-x="915" 
d="M707 1542l-119 -297h-305l198 297h226zM426 1139q163 0 260 -82q42 66 100.5 97.5t124.5 21.5l-6 -258q-64 16 -129 6q23 -71 23 -146q0 -173 -99 -271.5t-274 -98.5q-42 0 -82 6q-51 -20 -51 -76q0 -39 27 -56.5t86 -19.5l155 -6q175 -4 264.5 -83.5t89.5 -225.5
q0 -171 -128 -272t-355 -101q-217 0 -324.5 70t-107.5 204q0 162 182 222q-123 48 -123 188q0 148 152 203q-74 46 -114 127.5t-40 189.5q0 170 98 265.5t271 95.5zM545 778q0 97 -28.5 142t-90.5 45q-59 0 -87 -45.5t-28 -141.5q0 -101 28 -148.5t87 -47.5q61 0 90 47.5
t29 148.5zM233 -117q0 -143 201 -143q105 0 165 38.5t60 108.5q0 64 -36.5 94.5t-112.5 32.5l-139 4q-64 -3 -101 -38.5t-37 -96.5z" />
    <glyph glyph-name="Hcircumflex" unicode="&#x124;" horiz-adv-x="1208" 
d="M731 1556l-129 185l-131 -185h-203l183 330h307l180 -330h-207zM152 0v1434h280v-576h344v576h281v-1434h-281v612h-344v-612h-280z" />
    <glyph glyph-name="hcircumflex" unicode="&#x125;" horiz-adv-x="970" 
d="M600 1659l-129 184l-131 -184h-203l182 330h308l180 -330h-207zM98 0v1536h262v-571q44 86 113 130t156 44q122 0 186 -85t64 -247v-807h-265v748q0 139 -100 139q-70 0 -112 -60t-42 -186v-641h-262z" />
    <glyph glyph-name="Hbar" unicode="&#x126;" horiz-adv-x="1208" 
d="M152 0v1079h-132v152h132v203h280v-203h344v203h281v-203h131v-152h-131v-1079h-281v612h-344v-612h-280zM432 858h344v221h-344v-221z" />
    <glyph glyph-name="hbar" unicode="&#x127;" horiz-adv-x="970" 
d="M98 0v1241h-112v152h112v143h262v-143h183v-152h-183v-295q89 176 269 176q122 0 186 -84.5t64 -246.5v-791h-265v731q0 137 -100 137q-70 0 -112 -59.5t-42 -183.5v-625h-262z" />
    <glyph glyph-name="Itilde" unicode="&#x128;" horiz-adv-x="583" 
d="M592 1872q25 -167 -19 -244.5t-131 -77.5q-40 0 -81.5 20t-69.5 44.5t-56 44.5t-45 20q-44 0 -28 -110h-168q-23 165 20.5 242t128.5 77q40 0 81.5 -19.5t69 -43t55.5 -43t44 -19.5q44 0 31 109h168zM152 0v1434h280v-1434h-280z" />
    <glyph glyph-name="itilde" unicode="&#x129;" horiz-adv-x="460" 
d="M530 1561q25 -168 -18.5 -245t-130.5 -77q-40 0 -81.5 20t-69.5 44.5t-56 44.5t-45 20q-45 0 -29 -111h-168q-23 165 21 242.5t129 77.5q40 0 81.5 -19.5t69 -43t55.5 -43t44 -19.5q43 0 30 109h168zM98 0v1122h262v-1122h-262z" />
    <glyph glyph-name="Imacron" unicode="&#x12a;" horiz-adv-x="583" 
d="M35 1577v211h516v-211h-516zM152 0v1434h280v-1434h-280z" />
    <glyph glyph-name="imacron" unicode="&#x12b;" horiz-adv-x="460" 
d="M-27 1266v211h516v-211h-516zM98 0v1122h262v-1122h-262z" />
    <glyph glyph-name="Ibreve" unicode="&#x12c;" horiz-adv-x="583" 
d="M395 1882h203q0 -173 -72.5 -256.5t-232.5 -83.5t-233.5 83.5t-73.5 256.5h204q0 -85 25 -122.5t78 -37.5q54 0 78 37t24 123zM152 0v1434h280v-1434h-280z" />
    <glyph glyph-name="ibreve" unicode="&#x12d;" horiz-adv-x="460" 
d="M334 1571h203q0 -173 -73 -256.5t-233 -83.5t-233.5 83.5t-73.5 256.5h205q0 -85 24.5 -122.5t77.5 -37.5q54 0 78.5 37t24.5 123zM98 0v1122h262v-1122h-262z" />
    <glyph glyph-name="Iogonek" unicode="&#x12e;" horiz-adv-x="583" 
d="M152 0v1434h280v-1434q-72 -18 -109.5 -58t-37.5 -87q0 -72 94 -72q44 0 90 14l-8 -196q-73 -27 -158 -27q-116 0 -179 57.5t-63 161.5q0 124 91 207z" />
    <glyph glyph-name="iogonek" unicode="&#x12f;" horiz-adv-x="460" 
d="M96 1257v275h269v-275h-269zM-8 -207q0 137 106 221v1108h262v-1122q-71 -18 -108 -58t-37 -87q0 -72 94 -72q41 0 90 14l-8 -196q-74 -27 -158 -27q-116 0 -178.5 57.5t-62.5 161.5z" />
    <glyph glyph-name="Idotaccent" unicode="&#x130;" horiz-adv-x="583" 
d="M150 1569v274h284v-274h-284zM152 0v1434h280v-1434h-280z" />
    <glyph glyph-name="dotlessi" unicode="&#x131;" horiz-adv-x="460" 
d="M98 0v1122h262v-1122h-262z" />
    <glyph glyph-name="IJ" unicode="&#x132;" horiz-adv-x="1216" 
d="M152 0v1434h280v-1434h-280zM1073 348q0 -187 -77.5 -275.5t-237.5 -88.5q-87 0 -142 14l-8 235q30 -6 62 -6q71 0 98 27.5t27 99.5v1080h278v-1086z" />
    <glyph glyph-name="ij" unicode="&#x133;" horiz-adv-x="921" 
d="M96 1257v275h269v-275h-269zM557 1257v275h268v-275h-268zM98 0v1122h262v-1122h-262zM559 -78v1200h262v-1200q0 -182 -71 -265t-228 -83q-65 0 -108 14l-6 230q30 -6 67 -6q44 0 64 26.5t20 83.5z" />
    <glyph glyph-name="Jcircumflex" unicode="&#x134;" horiz-adv-x="632" 
d="M477 1556l-129 185l-131 -185h-203l183 330h307l180 -330h-207zM489 348q0 -187 -77.5 -275.5t-237.5 -88.5q-86 0 -141 14l-8 235q30 -6 61 -6q71 0 98 27.5t27 99.5v1080h278v-1086z" />
    <glyph glyph-name="jcircumflex" unicode="&#x135;" horiz-adv-x="460" 
d="M358 1245l-129 185l-131 -185h-202l182 330h307l180 -330h-207zM98 -78v1200h262v-1200q0 -182 -71 -265t-228 -83q-65 0 -108 14l-6 230q30 -6 67 -6q44 0 64 26.5t20 83.5z" />
    <glyph glyph-name="Kcommaaccent" unicode="&#x136;" horiz-adv-x="1110" 
d="M152 0v1434h270v-576l387 576h297l-438 -637l452 -797h-315l-307 549l-76 -109v-440h-270zM293 -418l119 297h303l-197 -297h-225z" />
    <glyph glyph-name="kcommaaccent" unicode="&#x137;" horiz-adv-x="921" 
d="M98 0v1536h254v-836l279 422h274l-330 -473l353 -649h-289l-231 428l-56 -92v-336h-254zM215 -418l119 297h303l-197 -297h-225z" />
    <glyph glyph-name="kgreenlandic" unicode="&#x138;" horiz-adv-x="921" 
d="M98 0v1122h254v-422l279 422h274l-330 -473l353 -649h-289l-231 428l-56 -92v-336h-254z" />
    <glyph glyph-name="Lacute" unicode="&#x139;" horiz-adv-x="909" 
d="M190 1556l136 330h307l-232 -330h-211zM152 0v1434h280v-1190h432v-244h-712z" />
    <glyph glyph-name="lacute" unicode="&#x13a;" horiz-adv-x="460" 
d="M129 1659l135 330h307l-231 -330h-211zM360 0h-262v1536h262v-1536z" />
    <glyph glyph-name="Lcommaaccent" unicode="&#x13b;" horiz-adv-x="909" 
d="M152 0v1434h280v-1190h432v-244h-712zM227 -418l119 297h303l-196 -297h-226z" />
    <glyph glyph-name="lcommaaccent" unicode="&#x13c;" horiz-adv-x="460" 
d="M360 0h-262v1536h262v-1536zM-41 -418l119 297h303l-197 -297h-225z" />
    <glyph glyph-name="Lcaron" unicode="&#x13d;" horiz-adv-x="909" 
d="M152 0v1434h280v-1190h432v-244h-712zM586 985v449h280l-80 -449h-200z" />
    <glyph glyph-name="lcaron" unicode="&#x13e;" horiz-adv-x="657" 
d="M360 0h-262v1536h262v-1536zM461 1087v449h280l-79 -449h-201z" />
    <glyph glyph-name="Ldot" unicode="&#x13f;" horiz-adv-x="909" 
d="M152 0v1434h280v-1190h432v-244h-712zM604 610v275h285v-275h-285z" />
    <glyph glyph-name="ldot" unicode="&#x140;" horiz-adv-x="774" 
d="M360 0h-262v1536h262v-1536zM473 594v274h285v-274h-285z" />
    <glyph glyph-name="Lslash" unicode="&#x141;" horiz-adv-x="909" 
d="M152 0v575l-132 -43v162l132 43v697h280v-605l209 70v-162l-209 -69v-424h432v-244h-712z" />
    <glyph glyph-name="lslash" unicode="&#x142;" horiz-adv-x="569" 
d="M416 0h-262v635l-152 -60v166l152 60v735h262v-633l149 58v-164l-149 -60v-737z" />
    <glyph glyph-name="Nacute" unicode="&#x143;" horiz-adv-x="1214" 
d="M506 1556l135 330h307l-231 -330h-211zM152 0v1434h282l375 -932v932h254v-1434h-283l-374 932v-932h-254z" />
    <glyph glyph-name="nacute" unicode="&#x144;" horiz-adv-x="970" 
d="M383 1245l135 330h307l-231 -330h-211zM98 0v1122h219l29 -192q41 103 114 156t169 53q122 0 186 -85t64 -247v-807h-265v748q0 139 -100 139q-70 0 -112 -60t-42 -186v-641h-262z" />
    <glyph glyph-name="Ncommaaccent" unicode="&#x145;" horiz-adv-x="1214" 
d="M152 0v1434h282l375 -932v932h254v-1434h-283l-374 932v-932h-254zM332 -418l119 297h303l-197 -297h-225z" />
    <glyph glyph-name="ncommaaccent" unicode="&#x146;" horiz-adv-x="970" 
d="M98 0v1122h219l29 -192q41 103 114 156t169 53q122 0 186 -85t64 -247v-807h-265v748q0 139 -100 139q-70 0 -112 -60t-42 -186v-641h-262zM217 -418l119 297h303l-197 -297h-225z" />
    <glyph glyph-name="Ncaron" unicode="&#x147;" horiz-adv-x="1214" 
d="M942 1886l-180 -330h-307l-183 330h209l129 -182l129 182h203zM152 0v1434h282l375 -932v932h254v-1434h-283l-374 932v-932h-254z" />
    <glyph glyph-name="ncaron" unicode="&#x148;" horiz-adv-x="970" 
d="M819 1575l-180 -330h-307l-182 330h208l129 -182l129 182h203zM98 0v1122h219l29 -192q41 103 114 156t169 53q122 0 186 -85t64 -247v-807h-265v748q0 139 -100 139q-70 0 -112 -60t-42 -186v-641h-262z" />
    <glyph glyph-name="napostrophe" unicode="&#x149;" horiz-adv-x="970" 
d="M98 1237l119 297h303l-196 -297h-226zM98 0v1122h219l29 -192q41 103 114 156t169 53q122 0 186 -85t64 -247v-807h-265v748q0 139 -100 139q-70 0 -112 -60t-42 -186v-641h-262z" />
    <glyph glyph-name="Eng" unicode="&#x14a;" horiz-adv-x="1214" 
d="M152 0v1434h280l377 -889v889h254v-1489q0 -190 -77 -280.5t-238 -90.5q-89 0 -144 14l-6 236q30 -6 61 -6q85 0 117.5 27.5t32.5 99.5v55l-403 952v-952h-254z" />
    <glyph glyph-name="eng" unicode="&#x14b;" horiz-adv-x="970" 
d="M98 0v1122h219l29 -192q41 103 114 156t169 53q122 0 186 -85t64 -247v-885q0 -181 -72 -264.5t-229 -83.5q-63 0 -109 14l-6 230q35 -6 67 -6q45 0 64.5 26t19.5 84v826q0 139 -100 139q-70 0 -112 -60t-42 -186v-641h-262z" />
    <glyph glyph-name="Omacron" unicode="&#x14c;" horiz-adv-x="1155" 
d="M319 1577v211h517v-211h-517zM578 -16q-492 0 -492 733t492 733q489 0 489 -733t-489 -733zM578 227q103 0 151.5 117.5t48.5 372.5t-48.5 372t-151.5 117q-104 0 -153.5 -117.5t-49.5 -371.5t49.5 -372t153.5 -118z" />
    <glyph glyph-name="omacron" unicode="&#x14d;" horiz-adv-x="929" 
d="M207 1266v211h516v-211h-516zM465 -16q-404 0 -404 577q0 578 404 578q204 0 303.5 -143.5t99.5 -434.5t-99.5 -434t-303.5 -143zM465 186q72 0 102.5 85t30.5 290t-30.5 290t-102.5 85q-71 0 -102 -85.5t-31 -289.5t31 -289.5t102 -85.5z" />
    <glyph glyph-name="Obreve" unicode="&#x14e;" horiz-adv-x="1155" 
d="M680 1882h203q0 -173 -72.5 -256.5t-232.5 -83.5q-161 0 -234.5 83.5t-73.5 256.5h205q0 -85 25 -122.5t78 -37.5q54 0 78 37t24 123zM578 -16q-492 0 -492 733t492 733q489 0 489 -733t-489 -733zM578 227q103 0 151.5 117.5t48.5 372.5t-48.5 372t-151.5 117
q-104 0 -153.5 -117.5t-49.5 -371.5t49.5 -372t153.5 -118z" />
    <glyph glyph-name="obreve" unicode="&#x14f;" horiz-adv-x="929" 
d="M567 1571h203q0 -173 -72.5 -256.5t-232.5 -83.5t-233.5 83.5t-73.5 256.5h204q0 -85 25 -122.5t78 -37.5q54 0 78 37t24 123zM465 -16q-404 0 -404 577q0 578 404 578q204 0 303.5 -143.5t99.5 -434.5t-99.5 -434t-303.5 -143zM465 186q72 0 102.5 85t30.5 290
t-30.5 290t-102.5 85q-71 0 -102 -85.5t-31 -289.5t31 -289.5t102 -85.5z" />
    <glyph glyph-name="Ohungarumlaut" unicode="&#x150;" horiz-adv-x="1155" 
d="M330 1556l100 330h254l-180 -330h-174zM641 1556l98 330h256l-180 -330h-174zM578 -16q-492 0 -492 733t492 733q489 0 489 -733t-489 -733zM578 227q103 0 151.5 117.5t48.5 372.5t-48.5 372t-151.5 117q-104 0 -153.5 -117.5t-49.5 -371.5t49.5 -372t153.5 -118z" />
    <glyph glyph-name="ohungarumlaut" unicode="&#x151;" horiz-adv-x="929" 
d="M217 1245l100 330h254l-180 -330h-174zM528 1245l99 330h256l-181 -330h-174zM465 -16q-404 0 -404 577q0 578 404 578q204 0 303.5 -143.5t99.5 -434.5t-99.5 -434t-303.5 -143zM465 186q72 0 102.5 85t30.5 290t-30.5 290t-102.5 85q-71 0 -102 -85.5t-31 -289.5
t31 -289.5t102 -85.5z" />
    <glyph glyph-name="OE" unicode="&#x152;" horiz-adv-x="1521" 
d="M86 717q0 371 137 544t406 173h807v-246h-428v-332h374v-246h-374v-366h440v-244h-819q-269 0 -406 173t-137 544zM629 244h106v944h-106q-90 0 -144 -42t-82 -146t-28 -283q0 -181 28 -285t82 -146t144 -42z" />
    <glyph glyph-name="oe" unicode="&#x153;" horiz-adv-x="1476" 
d="M465 -16q-404 0 -404 577q0 578 404 578q185 0 278 -142q94 142 283 142q197 0 299 -130t102 -380q0 -70 -10 -142h-536q6 -163 42 -232t113 -69q65 0 99.5 46t46.5 151l243 -35q-22 -179 -120 -271.5t-269 -92.5q-196 0 -293 143q-93 -143 -278 -143zM1028 936
q-69 0 -103.5 -60t-43.5 -198h282q-3 258 -135 258zM465 186q72 0 102.5 85t30.5 290t-30.5 290t-102.5 85q-71 0 -102 -85.5t-31 -289.5t31 -289.5t102 -85.5z" />
    <glyph glyph-name="Racute" unicode="&#x154;" horiz-adv-x="1124" 
d="M449 1556l135 330h307l-232 -330h-210zM152 0v1434h452q206 0 314 -116t108 -337q0 -155 -59 -256.5t-172 -144.5l286 -580h-307l-246 528h-96v-528h-280zM573 1196h-141v-428h146q81 0 127.5 55t46.5 158q0 106 -45.5 160.5t-133.5 54.5z" />
    <glyph glyph-name="racute" unicode="&#x155;" horiz-adv-x="636" 
d="M231 1245l136 330h307l-232 -330h-211zM98 0v1122h219l31 -202q41 105 104.5 162t139.5 57q4 0 13.5 -1t12.5 -1l-8 -316q-32 8 -57 8q-92 0 -142.5 -77.5t-50.5 -219.5v-532h-262z" />
    <glyph glyph-name="Rcommaaccent" unicode="&#x156;" horiz-adv-x="1124" 
d="M152 0v1434h452q206 0 314 -116t108 -337q0 -155 -59 -256.5t-172 -144.5l286 -580h-307l-246 528h-96v-528h-280zM573 1196h-141v-428h146q81 0 127.5 55t46.5 158q0 106 -45.5 160.5t-133.5 54.5zM303 -418l119 297h303l-197 -297h-225z" />
    <glyph glyph-name="rcommaaccent" unicode="&#x157;" horiz-adv-x="636" 
d="M98 0v1122h219l31 -202q41 105 104.5 162t139.5 57q4 0 13.5 -1t12.5 -1l-8 -316q-32 8 -57 8q-92 0 -142.5 -77.5t-50.5 -219.5v-532h-262zM-41 -418l119 297h303l-197 -297h-225z" />
    <glyph glyph-name="Rcaron" unicode="&#x158;" horiz-adv-x="1124" 
d="M885 1886l-180 -330h-308l-182 330h209l129 -182l129 182h203zM152 0v1434h452q206 0 314 -116t108 -337q0 -155 -59 -256.5t-172 -144.5l286 -580h-307l-246 528h-96v-528h-280zM573 1196h-141v-428h146q81 0 127.5 55t46.5 158q0 106 -45.5 160.5t-133.5 54.5z" />
    <glyph glyph-name="rcaron" unicode="&#x159;" horiz-adv-x="636" 
d="M668 1575l-181 -330h-307l-182 330h209l129 -182l129 182h203zM98 0v1122h219l31 -202q41 105 104.5 162t139.5 57q4 0 13.5 -1t12.5 -1l-8 -316q-32 8 -57 8q-92 0 -142.5 -77.5t-50.5 -219.5v-532h-262z" />
    <glyph glyph-name="Sacute" unicode="&#x15a;" horiz-adv-x="1046" 
d="M406 1556l135 330h307l-232 -330h-210zM59 446l263 35q12 -262 202 -262q79 0 122.5 41.5t43.5 116.5q0 71 -39.5 113t-130.5 79l-119 47q-151 61 -231 164.5t-80 261.5q0 190 114 299t314 109t308.5 -108t131.5 -328l-262 -37q-12 237 -174 237q-75 0 -117.5 -41
t-42.5 -114t45 -115.5t158 -89.5l109 -45q156 -65 226.5 -160t70.5 -254q0 -193 -119.5 -302t-327.5 -109q-221 0 -330.5 107.5t-134.5 354.5z" />
    <glyph glyph-name="sacute" unicode="&#x15b;" horiz-adv-x="813" 
d="M305 1245l135 330h308l-232 -330h-211zM408 928q-51 0 -80 -27t-29 -74q0 -50 27.5 -78t99.5 -55l104 -39q125 -47 186.5 -125.5t61.5 -205.5q0 -161 -98 -250.5t-268 -89.5q-356 0 -379 368l231 35q0 -89 38.5 -140.5t109.5 -51.5q57 0 88.5 29.5t31.5 80.5
q0 50 -25.5 79.5t-86.5 53.5l-113 43q-254 95 -254 328q0 152 95.5 241t259.5 89q161 0 250.5 -88t99.5 -260l-226 -35q0 83 -32.5 127.5t-91.5 44.5z" />
    <glyph glyph-name="Scircumflex" unicode="&#x15c;" horiz-adv-x="1046" 
d="M651 1556l-129 185l-131 -185h-203l183 330h307l180 -330h-207zM59 446l263 35q12 -262 202 -262q79 0 122.5 41.5t43.5 116.5q0 71 -39.5 113t-130.5 79l-119 47q-151 61 -231 164.5t-80 261.5q0 190 114 299t314 109t308.5 -108t131.5 -328l-262 -37q-12 237 -174 237
q-75 0 -117.5 -41t-42.5 -114t45 -115.5t158 -89.5l109 -45q156 -65 226.5 -160t70.5 -254q0 -193 -119.5 -302t-327.5 -109q-221 0 -330.5 107.5t-134.5 354.5z" />
    <glyph glyph-name="scircumflex" unicode="&#x15d;" horiz-adv-x="813" 
d="M535 1245l-129 185l-132 -185h-202l182 330h307l180 -330h-206zM408 928q-51 0 -80 -27t-29 -74q0 -50 27.5 -78t99.5 -55l104 -39q125 -47 186.5 -125.5t61.5 -205.5q0 -161 -98 -250.5t-268 -89.5q-356 0 -379 368l231 35q0 -89 38.5 -140.5t109.5 -51.5
q57 0 88.5 29.5t31.5 80.5q0 50 -25.5 79.5t-86.5 53.5l-113 43q-254 95 -254 328q0 152 95.5 241t259.5 89q161 0 250.5 -88t99.5 -260l-226 -35q0 83 -32.5 127.5t-91.5 44.5z" />
    <glyph glyph-name="Scedilla" unicode="&#x15e;" horiz-adv-x="1046" 
d="M59 446l263 35q12 -262 202 -262q79 0 122.5 41.5t43.5 116.5q0 71 -39.5 113t-130.5 79l-119 47q-151 61 -231 164.5t-80 261.5q0 190 114 299t314 109t308.5 -108t131.5 -328l-262 -37q-12 237 -174 237q-75 0 -117.5 -41t-42.5 -114t45 -115.5t158 -89.5l109 -45
q156 -65 226.5 -160t70.5 -254q0 -185 -111 -293.5t-305 -117.5l-6 -68q35 12 67 12q82 0 128.5 -43.5t46.5 -122.5q0 -189 -273 -192q-92 0 -205 22l6 125q110 -22 177 -22q59 0 84.5 16t25.5 49q0 52 -53 52q-29 0 -55 -23l-113 12l21 191q-160 26 -242.5 134t-104.5 320z
" />
    <glyph glyph-name="scedilla" unicode="&#x15f;" horiz-adv-x="813" 
d="M408 928q-51 0 -80 -27t-29 -74q0 -50 27.5 -78t99.5 -55l104 -39q125 -47 186.5 -125.5t61.5 -205.5q0 -151 -85.5 -239t-237.5 -99l-6 -70q35 12 67 12q82 0 128 -43.5t46 -122.5q0 -189 -272 -192q-92 0 -205 22l6 125q110 -22 176 -22q111 0 111 65q0 52 -53 52
q-30 0 -56 -23l-112 12l20 193q-251 51 -272 358l231 35q0 -89 38.5 -140.5t109.5 -51.5q57 0 88.5 29.5t31.5 80.5q0 50 -25.5 79.5t-86.5 53.5l-113 43q-254 95 -254 328q0 152 95.5 241t259.5 89q161 0 250.5 -88t99.5 -260l-226 -35q0 83 -32.5 127.5t-91.5 44.5z" />
    <glyph glyph-name="Scaron" unicode="&#x160;" horiz-adv-x="1046" 
d="M858 1886l-180 -330h-307l-183 330h209l129 -182l129 182h203zM59 446l263 35q12 -262 202 -262q79 0 122.5 41.5t43.5 116.5q0 71 -39.5 113t-130.5 79l-119 47q-151 61 -231 164.5t-80 261.5q0 190 114 299t314 109t308.5 -108t131.5 -328l-262 -37q-12 237 -174 237
q-75 0 -117.5 -41t-42.5 -114t45 -115.5t158 -89.5l109 -45q156 -65 226.5 -160t70.5 -254q0 -193 -119.5 -302t-327.5 -109q-221 0 -330.5 107.5t-134.5 354.5z" />
    <glyph glyph-name="scaron" unicode="&#x161;" horiz-adv-x="813" 
d="M741 1575l-180 -330h-307l-182 330h209l129 -182l129 182h202zM408 928q-51 0 -80 -27t-29 -74q0 -50 27.5 -78t99.5 -55l104 -39q125 -47 186.5 -125.5t61.5 -205.5q0 -161 -98 -250.5t-268 -89.5q-356 0 -379 368l231 35q0 -89 38.5 -140.5t109.5 -51.5q57 0 88.5 29.5
t31.5 80.5q0 50 -25.5 79.5t-86.5 53.5l-113 43q-254 95 -254 328q0 152 95.5 241t259.5 89q161 0 250.5 -88t99.5 -260l-226 -35q0 83 -32.5 127.5t-91.5 44.5z" />
    <glyph glyph-name="uni0162" unicode="&#x162;" horiz-adv-x="929" 
d="M324 0v1188h-299v246h880v-246h-303v-1188h-278zM193 -418l118 297h303l-196 -297h-225z" />
    <glyph glyph-name="uni0163" unicode="&#x163;" horiz-adv-x="651" 
d="M147 283v620h-133v219h74q23 0 37 2.5t27 13.5t19.5 27.5t13 50.5t9.5 75.5t7 109.5h209v-279h204v-219h-204v-557q0 -75 27.5 -105t99.5 -30q42 0 90 10l-6 -219q-82 -16 -168 -16q-306 0 -306 297zM113 -418l118 297h304l-197 -297h-225z" />
    <glyph glyph-name="Tcaron" unicode="&#x164;" horiz-adv-x="929" 
d="M799 1886l-181 -330h-307l-182 330h209l129 -182l129 182h203zM324 0v1188h-299v246h880v-246h-303v-1188h-278z" />
    <glyph glyph-name="tcaron" unicode="&#x165;" horiz-adv-x="651" 
d="M512 1225v448h281l-80 -448h-201zM147 283v620h-133v219h74q23 0 37 2.5t27 13.5t19.5 27.5t13 50.5t9.5 75.5t7 109.5h209v-279h204v-219h-204v-557q0 -75 27.5 -105t99.5 -30q42 0 90 10l-6 -219q-82 -16 -168 -16q-306 0 -306 297z" />
    <glyph glyph-name="Tbar" unicode="&#x166;" horiz-adv-x="929" 
d="M324 0v596h-177v154h177v438h-299v246h880v-246h-303v-438h176v-154h-176v-596h-278z" />
    <glyph glyph-name="tbar" unicode="&#x167;" horiz-adv-x="651" 
d="M147 283v209h-122v151h122v260h-133v219h74q23 0 37 2.5t27 13.5t19.5 27.5t13 50.5t9.5 75.5t7 109.5h209v-279h204v-219h-204v-260h165v-151h-165v-146q0 -75 27.5 -105t99.5 -30q42 0 90 10l-6 -219q-82 -16 -168 -16q-306 0 -306 297z" />
    <glyph glyph-name="Utilde" unicode="&#x168;" horiz-adv-x="1155" 
d="M879 1872q25 -167 -19 -244.5t-131 -77.5q-40 0 -81.5 20t-69.5 44.5t-56 44.5t-45 20q-44 0 -28 -110h-168q-23 165 20.5 242t128.5 77q40 0 81.5 -19.5t69 -43t55.5 -43t44 -19.5q44 0 31 109h168zM1022 446q0 -236 -111.5 -349t-332.5 -113q-445 0 -445 462v988h279
v-1016q0 -99 40 -145t126 -46q85 0 125 46.5t40 144.5v1016h279v-988z" />
    <glyph glyph-name="utilde" unicode="&#x169;" horiz-adv-x="952" 
d="M776 1561q25 -168 -18.5 -245t-130.5 -77q-40 0 -81.5 20t-69.5 44.5t-56 44.5t-45 20q-45 0 -29 -111h-168q-23 165 21 242.5t129 77.5q40 0 81.5 -19.5t69 -43t55.5 -43t44 -19.5q43 0 30 109h168zM590 487v635h262v-1122h-217l-27 166q-74 -182 -248 -182
q-129 0 -198.5 83.5t-69.5 241.5v813h262v-735q0 -77 24.5 -114t76.5 -37q69 0 102 61t33 190z" />
    <glyph glyph-name="Umacron" unicode="&#x16a;" horiz-adv-x="1155" 
d="M319 1577v211h517v-211h-517zM1022 446q0 -236 -111.5 -349t-332.5 -113q-445 0 -445 462v988h279v-1016q0 -99 40 -145t126 -46q85 0 125 46.5t40 144.5v1016h279v-988z" />
    <glyph glyph-name="umacron" unicode="&#x16b;" horiz-adv-x="952" 
d="M219 1266v211h516v-211h-516zM590 487v635h262v-1122h-217l-27 166q-74 -182 -248 -182q-129 0 -198.5 83.5t-69.5 241.5v813h262v-735q0 -77 24.5 -114t76.5 -37q69 0 102 61t33 190z" />
    <glyph glyph-name="Ubreve" unicode="&#x16c;" horiz-adv-x="1155" 
d="M680 1882h203q0 -173 -72.5 -256.5t-232.5 -83.5q-161 0 -234.5 83.5t-73.5 256.5h205q0 -85 25 -122.5t78 -37.5q54 0 78 37t24 123zM1022 446q0 -236 -111.5 -349t-332.5 -113q-445 0 -445 462v988h279v-1016q0 -99 40 -145t126 -46q85 0 125 46.5t40 144.5v1016h279
v-988z" />
    <glyph glyph-name="ubreve" unicode="&#x16d;" horiz-adv-x="952" 
d="M580 1571h202q0 -173 -72.5 -256.5t-232.5 -83.5t-233.5 83.5t-73.5 256.5h205q0 -85 24.5 -122.5t77.5 -37.5q54 0 78.5 37t24.5 123zM590 487v635h262v-1122h-217l-27 166q-74 -182 -248 -182q-129 0 -198.5 83.5t-69.5 241.5v813h262v-735q0 -77 24.5 -114t76.5 -37
q69 0 102 61t33 190z" />
    <glyph glyph-name="Uring" unicode="&#x16e;" horiz-adv-x="1155" 
d="M580 1536q-115 0 -183.5 61t-68.5 164q0 101 68.5 161t183.5 60q112 0 178.5 -60t66.5 -161q0 -103 -66.5 -164t-178.5 -61zM580 1669q43 0 67.5 24.5t24.5 67.5q0 41 -24.5 65.5t-67.5 24.5q-44 0 -70.5 -24.5t-26.5 -65.5q0 -43 26.5 -67.5t70.5 -24.5zM1022 446
q0 -236 -111.5 -349t-332.5 -113q-445 0 -445 462v988h279v-1016q0 -99 40 -145t126 -46q85 0 125 46.5t40 144.5v1016h279v-988z" />
    <glyph glyph-name="uring" unicode="&#x16f;" horiz-adv-x="952" 
d="M479 1225q-115 0 -183.5 61t-68.5 164q0 101 68.5 161t183.5 60q113 0 179.5 -60t66.5 -161q0 -103 -67 -164t-179 -61zM479 1358q43 0 67.5 24.5t24.5 67.5q0 41 -24.5 65.5t-67.5 24.5q-44 0 -70 -24.5t-26 -65.5q0 -43 26 -67.5t70 -24.5zM590 487v635h262v-1122h-217
l-27 166q-74 -182 -248 -182q-129 0 -198.5 83.5t-69.5 241.5v813h262v-735q0 -77 24.5 -114t76.5 -37q69 0 102 61t33 190z" />
    <glyph glyph-name="Uhungarumlaut" unicode="&#x170;" horiz-adv-x="1155" 
d="M330 1556l100 330h254l-180 -330h-174zM641 1556l98 330h256l-180 -330h-174zM1022 446q0 -236 -111.5 -349t-332.5 -113q-445 0 -445 462v988h279v-1016q0 -99 40 -145t126 -46q85 0 125 46.5t40 144.5v1016h279v-988z" />
    <glyph glyph-name="uhungarumlaut" unicode="&#x171;" horiz-adv-x="952" 
d="M229 1245l101 330h254l-181 -330h-174zM541 1245l98 330h256l-180 -330h-174zM590 487v635h262v-1122h-217l-27 166q-74 -182 -248 -182q-129 0 -198.5 83.5t-69.5 241.5v813h262v-735q0 -77 24.5 -114t76.5 -37q69 0 102 61t33 190z" />
    <glyph glyph-name="Uogonek" unicode="&#x172;" horiz-adv-x="1155" 
d="M672 -426q-116 0 -179 57.5t-63 161.5q0 118 84 193q-381 31 -381 460v988h279v-1016q0 -99 40 -145t126 -46q85 0 125 46.5t40 144.5v1016h279v-988q0 -249 -123 -360q-31 -27 -81 -60t-82.5 -54t-57.5 -52.5t-25 -64.5q0 -72 92 -72q45 0 91 14l-7 -196
q-74 -27 -157 -27z" />
    <glyph glyph-name="uogonek" unicode="&#x173;" horiz-adv-x="952" 
d="M446 -233q0 165 187 249l-25 150q-74 -182 -248 -182q-129 0 -198.5 83.5t-69.5 241.5v813h262v-735q0 -77 24.5 -114t76.5 -37q69 0 102 61t33 190v635h262v-1122q-92 -21 -137 -59.5t-45 -85.5q0 -72 94 -72q42 0 88 14l-6 -196q-73 -27 -158 -27q-118 0 -180 49
t-62 144z" />
    <glyph glyph-name="Wcircumflex" unicode="&#x174;" horiz-adv-x="1658" 
d="M956 1556l-129 185l-131 -185h-202l182 330h307l180 -330h-207zM317 0l-288 1434h278l182 -988l205 988h260l209 -1008l185 1008h282l-307 -1434h-285l-217 1004l-217 -1004h-287z" />
    <glyph glyph-name="wcircumflex" unicode="&#x175;" horiz-adv-x="1249" 
d="M752 1245l-129 185l-131 -185h-203l182 330h307l180 -330h-206zM231 0l-217 1122h250l109 -737l162 737h186l162 -747l114 747h240l-225 -1122h-228l-161 717l-166 -717h-226z" />
    <glyph glyph-name="Ycircumflex" unicode="&#x176;" 
d="M639 1556l-129 185l-131 -185h-203l182 330h308l180 -330h-207zM371 0v530l-365 904h289l227 -603l217 603h279l-367 -910v-524h-280z" />
    <glyph glyph-name="ycircumflex" unicode="&#x177;" horiz-adv-x="866" 
d="M561 1245l-129 185l-131 -185h-203l183 330h307l180 -330h-207zM604 1122h256l-311 -1177q-54 -206 -134.5 -288.5t-228.5 -82.5q-56 0 -108 14l-8 230q30 -6 69 -6q76 0 110 39.5t66 168.5l-309 1102h270l175 -727z" />
    <glyph glyph-name="Ydieresis" unicode="&#x178;" 
d="M561 1569v295h234v-295h-234zM229 1569v295h232v-295h-232zM371 0v530l-365 904h289l227 -603l217 603h279l-367 -910v-524h-280z" />
    <glyph glyph-name="Zacute" unicode="&#x179;" horiz-adv-x="917" 
d="M358 1556l136 330h307l-232 -330h-211zM72 0v262l495 909h-495v263h784v-263l-477 -909h477v-262h-784z" />
    <glyph glyph-name="zacute" unicode="&#x17a;" horiz-adv-x="727" 
d="M264 1245l135 330h308l-232 -330h-211zM43 0v219l391 684h-387v219h647v-219l-383 -684h381v-219h-649z" />
    <glyph glyph-name="Zdotaccent" unicode="&#x17b;" horiz-adv-x="917" 
d="M319 1569v274h285v-274h-285zM72 0v262l495 909h-495v263h784v-263l-477 -909h477v-262h-784z" />
    <glyph glyph-name="zdotaccent" unicode="&#x17c;" horiz-adv-x="727" 
d="M227 1257v275h285v-275h-285zM43 0v219l391 684h-387v219h647v-219l-383 -684h381v-219h-649z" />
    <glyph glyph-name="Zcaron" unicode="&#x17d;" horiz-adv-x="917" 
d="M795 1886l-181 -330h-307l-182 330h209l129 -182l129 182h203zM72 0v262l495 909h-495v263h784v-263l-477 -909h477v-262h-784z" />
    <glyph glyph-name="zcaron" unicode="&#x17e;" horiz-adv-x="727" 
d="M705 1575l-181 -330h-307l-182 330h209l129 -182l129 182h203zM43 0v219l391 684h-387v219h647v-219l-383 -684h381v-219h-649z" />
    <glyph glyph-name="uni0191" unicode="&#x191;" horiz-adv-x="915" 
d="M152 1434h700v-246h-426v-391h373v-246h-373v-606q0 -191 -75.5 -281t-235.5 -90q-87 0 -144 14l-6 236q30 -6 62 -6q71 0 98 27.5t27 99.5v1489z" />
    <glyph glyph-name="uni0192" unicode="&#x192;" horiz-adv-x="604" 
d="M143 -78v981h-125v219h125v47q0 199 81 291t255 92q72 0 121 -14l-6 -231q-40 8 -78 8q-57 0 -82.5 -30t-25.5 -97v-66h186v-219h-186v-981q0 -181 -72.5 -264.5t-229.5 -83.5q-62 0 -108 14l-6 230q30 -6 67 -6q44 0 64 26.5t20 83.5z" />
    <glyph glyph-name="uni0218" unicode="&#x218;" horiz-adv-x="1046" 
d="M59 446l263 35q12 -262 202 -262q79 0 122.5 41.5t43.5 116.5q0 71 -39.5 113t-130.5 79l-119 47q-151 61 -231 164.5t-80 261.5q0 190 114 299t314 109t308.5 -108t131.5 -328l-262 -37q-12 237 -174 237q-75 0 -117.5 -41t-42.5 -114t45 -115.5t158 -89.5l109 -45
q156 -65 226.5 -160t70.5 -254q0 -193 -119.5 -302t-327.5 -109q-221 0 -330.5 107.5t-134.5 354.5zM256 -418l119 297h303l-197 -297h-225z" />
    <glyph glyph-name="uni0219" unicode="&#x219;" horiz-adv-x="813" 
d="M408 928q-51 0 -80 -27t-29 -74q0 -50 27.5 -78t99.5 -55l104 -39q125 -47 186.5 -125.5t61.5 -205.5q0 -161 -98 -250.5t-268 -89.5q-356 0 -379 368l231 35q0 -89 38.5 -140.5t109.5 -51.5q57 0 88.5 29.5t31.5 80.5q0 50 -25.5 79.5t-86.5 53.5l-113 43
q-254 95 -254 328q0 152 95.5 241t259.5 89q161 0 250.5 -88t99.5 -260l-226 -35q0 83 -32.5 127.5t-91.5 44.5zM139 -418l119 297h303l-196 -297h-226z" />
    <glyph glyph-name="uni021A" unicode="&#x21a;" horiz-adv-x="929" 
d="M324 0v1188h-299v246h880v-246h-303v-1188h-278zM193 -418l118 297h303l-196 -297h-225z" />
    <glyph glyph-name="uni021B" unicode="&#x21b;" horiz-adv-x="651" 
d="M147 283v620h-133v219h74q23 0 37 2.5t27 13.5t19.5 27.5t13 50.5t9.5 75.5t7 109.5h209v-279h204v-219h-204v-557q0 -75 27.5 -105t99.5 -30q42 0 90 10l-6 -219q-82 -16 -168 -16q-306 0 -306 297zM111 -418l118 297h303l-196 -297h-225z" />
    <glyph glyph-name="dotlessj" unicode="&#x237;" horiz-adv-x="460" 
d="M98 -78v1200h262v-1200q0 -182 -71 -265t-228 -83q-65 0 -108 14l-6 230q30 -6 67 -6q44 0 64 26.5t20 83.5z" />
    <glyph glyph-name="circumflex" unicode="&#x2c6;" 
d="M639 1245l-129 185l-131 -185h-203l182 330h308l180 -330h-207z" />
    <glyph glyph-name="caron" unicode="&#x2c7;" 
d="M846 1575l-180 -330h-308l-182 330h209l129 -182l129 182h203z" />
    <glyph glyph-name="breve" unicode="&#x2d8;" 
d="M614 1571h203q0 -173 -72.5 -256.5t-232.5 -83.5t-233.5 83.5t-73.5 256.5h205q0 -85 24.5 -122.5t77.5 -37.5q54 0 78 37t24 123z" />
    <glyph glyph-name="dotaccent" unicode="&#x2d9;" 
d="M369 1257v275h284v-275h-284z" />
    <glyph glyph-name="ring" unicode="&#x2da;" 
d="M514 1225q-115 0 -183.5 61t-68.5 164q0 101 68.5 161t183.5 60q113 0 179.5 -60t66.5 -161q0 -103 -67 -164t-179 -61zM514 1358q43 0 67.5 24.5t24.5 67.5q0 41 -24.5 65.5t-67.5 24.5q-44 0 -70 -24.5t-26 -65.5q0 -43 26 -67.5t70 -24.5z" />
    <glyph glyph-name="ogonek" unicode="&#x2db;" 
d="M496 -233q0 234 364 305l41 -72q-92 -21 -137 -59.5t-45 -85.5q0 -72 94 -72q42 0 88 14l-6 -196q-73 -27 -158 -27q-117 0 -179 49t-62 144z" />
    <glyph glyph-name="tilde" unicode="&#x2dc;" 
d="M811 1561q25 -168 -18.5 -245t-130.5 -77q-40 0 -81.5 20t-69.5 44.5t-56 44.5t-45 20q-45 0 -29 -111h-168q-23 166 20.5 243t128.5 77q40 0 81.5 -19.5t69 -43t55.5 -43t44 -19.5q44 0 31 109h168z" />
    <glyph glyph-name="hungarumlaut" unicode="&#x2dd;" 
d="M264 1245l101 330h253l-180 -330h-174zM575 1245l99 330h256l-180 -330h-175z" />
    <glyph glyph-name="pi" unicode="&#x3c0;" horiz-adv-x="1136" 
d="M35 887v235h1065v-235h-133v-887h-262v887h-277v-887h-264v887h-129z" />
    <glyph glyph-name="Wgrave" unicode="&#x1e80;" horiz-adv-x="1658" 
d="M932 1556h-211l-232 330h306zM317 0l-288 1434h278l182 -988l205 988h260l209 -1008l185 1008h282l-307 -1434h-285l-217 1004l-217 -1004h-287z" />
    <glyph glyph-name="wgrave" unicode="&#x1e81;" horiz-adv-x="1249" 
d="M727 1245h-211l-231 330h305zM231 0l-217 1122h250l109 -737l162 737h186l162 -747l114 747h240l-225 -1122h-228l-161 717l-166 -717h-226z" />
    <glyph glyph-name="Wacute" unicode="&#x1e82;" horiz-adv-x="1658" 
d="M727 1556l135 330h307l-231 -330h-211zM317 0l-288 1434h278l182 -988l205 988h260l209 -1008l185 1008h282l-307 -1434h-285l-217 1004l-217 -1004h-287z" />
    <glyph glyph-name="wacute" unicode="&#x1e83;" horiz-adv-x="1249" 
d="M522 1245l135 330h308l-232 -330h-211zM231 0l-217 1122h250l109 -737l162 737h186l162 -747l114 747h240l-225 -1122h-228l-161 717l-166 -717h-226z" />
    <glyph glyph-name="Wdieresis" unicode="&#x1e84;" horiz-adv-x="1658" 
d="M879 1569v295h233v-295h-233zM547 1569v295h231v-295h-231zM317 0l-288 1434h278l182 -988l205 988h260l209 -1008l185 1008h282l-307 -1434h-285l-217 1004l-217 -1004h-287z" />
    <glyph glyph-name="wdieresis" unicode="&#x1e85;" horiz-adv-x="1249" 
d="M674 1257v295h233v-295h-233zM342 1257v295h231v-295h-231zM231 0l-217 1122h250l109 -737l162 737h186l162 -747l114 747h240l-225 -1122h-228l-161 717l-166 -717h-226z" />
    <glyph glyph-name="uni1E9E" unicode="&#x1e9e;" horiz-adv-x="1234" 
d="M131 0v961q0 240 137 364.5t379 124.5q148 0 418 -35v-233l-223 -336l61 -27q154 -68 226.5 -171.5t72.5 -246.5q0 -193 -119 -305t-325 -112q-173 0 -277 67l80 228q71 -50 170 -50q86 0 136.5 47t50.5 127q0 74 -39.5 121t-128.5 78l-148 51v199l219 348
q-80 14 -174 14q-119 0 -178 -56.5t-59 -176.5v-981h-279z" />
    <glyph glyph-name="Ygrave" unicode="&#x1ef2;" 
d="M614 1556h-211l-231 330h305zM371 0v530l-365 904h289l227 -603l217 603h279l-367 -910v-524h-280z" />
    <glyph glyph-name="ygrave" unicode="&#x1ef3;" horiz-adv-x="866" 
d="M537 1245h-211l-232 330h305zM604 1122h256l-311 -1177q-54 -206 -134.5 -288.5t-228.5 -82.5q-56 0 -108 14l-8 230q30 -6 69 -6q76 0 110 39.5t66 168.5l-309 1102h270l175 -727z" />
    <glyph glyph-name="endash" unicode="&#x2013;" 
d="M96 498v243h832v-243h-832z" />
    <glyph glyph-name="emdash" unicode="&#x2014;" horiz-adv-x="2048" 
d="M96 498v243h1856v-243h-1856z" />
    <glyph glyph-name="quoteleft" unicode="&#x2018;" horiz-adv-x="505" 
d="M385 836h-285v284q0 172 64.5 240.5t224.5 73.5l17 -162q-76 0 -103 -22t-27 -87v-53h109v-274z" />
    <glyph glyph-name="quoteright" unicode="&#x2019;" horiz-adv-x="505" 
d="M121 1434h285v-287q0 -172 -64.5 -240t-224.5 -71l-17 161q76 0 102.5 22t26.5 87v53h-108v275z" />
    <glyph glyph-name="quotesinglbase" unicode="&#x201a;" horiz-adv-x="505" 
d="M111 274h284v-284q0 -173 -64.5 -242t-224.5 -72l-16 162q77 0 103 21.5t26 87.5v53h-108v274z" />
    <glyph glyph-name="quotedblleft" unicode="&#x201c;" horiz-adv-x="901" 
d="M100 836v284q0 172 64.5 240.5t224.5 73.5l17 -162q-76 0 -103 -22t-27 -87v-53h109v-274h-285zM496 836v284q0 172 64 240.5t224 73.5l17 -162q-76 0 -102.5 -22t-26.5 -87v-53h108v-274h-284z" />
    <glyph glyph-name="quotedblright" unicode="&#x201d;" horiz-adv-x="901" 
d="M121 1434h285v-287q0 -172 -64.5 -240t-224.5 -71l-17 161q76 0 102.5 22t26.5 87v53h-108v275zM516 1434h285v-287q0 -172 -64.5 -240t-224.5 -71l-16 161q76 0 102.5 22t26.5 87v53h-109v275z" />
    <glyph glyph-name="quotedblbase" unicode="&#x201e;" horiz-adv-x="901" 
d="M111 274h284v-284q0 -173 -64.5 -242t-224.5 -72l-16 162q77 0 103 21.5t26 87.5v53h-108v274zM506 274h285v-284q0 -173 -64.5 -242t-224.5 -72l-15 162q74 0 100.5 22t26.5 87v53h-108v274z" />
    <glyph glyph-name="dagger" unicode="&#x2020;" horiz-adv-x="1036" 
d="M954 866h-297v-1173h-278v1173h-295v246h295v424h278v-424h297v-246z" />
    <glyph glyph-name="daggerdbl" unicode="&#x2021;" horiz-adv-x="1056" 
d="M94 362h295v504h-295v246h295v424h279v-424h297v-246h-297v-504h297v-245h-297v-424h-279v424h-295v245z" />
    <glyph glyph-name="bullet" unicode="&#x2022;" horiz-adv-x="634" 
d="M129 453v417h375v-417h-375z" />
    <glyph glyph-name="ellipsis" unicode="&#x2026;" horiz-adv-x="1400" 
d="M111 0v274h284v-274h-284zM557 0v274h285v-274h-285zM1006 0v274h284v-274h-284z" />
    <glyph glyph-name="perthousand" unicode="&#x2030;" horiz-adv-x="2271" 
d="M416 737q-154 0 -252 100.5t-98 258.5q0 155 98 254.5t252 99.5q153 0 251.5 -99t98.5 -255q0 -158 -98.5 -258.5t-251.5 -100.5zM598 0h-260l856 1434h262zM416 940q59 0 93 42t34 114q0 69 -34.5 110t-92.5 41q-60 0 -93.5 -40t-33.5 -111t34 -113.5t93 -42.5z
M1372 -16q-153 0 -248.5 98.5t-95.5 255.5q0 158 95.5 258t248.5 100q157 0 244 -104q90 104 246 104q153 0 248.5 -99.5t95.5 -258.5q0 -157 -95.5 -255.5t-248.5 -98.5q-155 0 -246 102q-88 -102 -244 -102zM1378 190q58 0 92.5 40t34.5 108t-34 108.5t-93 40.5
q-60 0 -93.5 -40t-33.5 -109q0 -68 33.5 -108t93.5 -40zM1855 190q60 0 93.5 40t33.5 108t-34 108.5t-93 40.5q-60 0 -93 -40t-33 -109q0 -68 34 -108t92 -40z" />
    <glyph glyph-name="guilsinglleft" unicode="&#x2039;" horiz-adv-x="626" 
d="M539 391v-291l-463 322v283l463 321v-283l-287 -176z" />
    <glyph glyph-name="guilsinglright" unicode="&#x203a;" horiz-adv-x="626" 
d="M551 422l-463 -322v283l287 176l-287 176v291l463 -321v-283z" />
    <glyph glyph-name="fraction" unicode="&#x2044;" horiz-adv-x="1091" 
d="M238 0h-238l854 1434h238z" />
    <glyph glyph-name="zerosuperior" unicode="&#x2070;" horiz-adv-x="718" 
d="M358 928q-141 0 -218 97t-77 269q0 173 77 270t218 97q143 0 220 -96.5t77 -270.5q0 -172 -77 -269t-220 -97zM358 1087q99 0 99 207t-99 207q-98 0 -98 -207t98 -207z" />
    <glyph glyph-name="foursuperior" unicode="&#x2074;" horiz-adv-x="686" 
d="M549 936h-178v123h-320v131l328 465h170v-457h86v-139h-86v-123zM211 1198h160v232z" />
    <glyph glyph-name="fivesuperior" unicode="&#x2075;" horiz-adv-x="643" 
d="M317 928q-110 0 -177.5 49t-84.5 145l174 29q12 -82 86 -82q40 0 63 26.5t23 75.5q0 52 -22 79.5t-62 27.5q-45 0 -77 -49l-158 16l29 408h432v-152h-283l-8 -129q42 37 115 37q98 0 157.5 -61.5t59.5 -167.5q0 -119 -74 -185.5t-193 -66.5z" />
    <glyph glyph-name="sixsuperior" unicode="&#x2076;" horiz-adv-x="667" 
d="M63 1288q0 180 80.5 276.5t208.5 96.5q89 0 150.5 -44.5t87.5 -127.5l-158 -39q-28 68 -88 68q-97 0 -106 -195q53 66 147 66q104 0 164.5 -61t60.5 -161q0 -103 -72 -171t-190 -68q-129 0 -207 90.5t-78 269.5zM350 1061q43 0 67.5 27t24.5 73q0 47 -23.5 74t-66.5 27
q-42 0 -68 -27t-26 -74t25 -73.5t67 -26.5z" />
    <glyph glyph-name="sevensuperior" unicode="&#x2077;" horiz-adv-x="577" 
d="M526 1528l-221 -592h-194l227 565h-289v152h477v-125z" />
    <glyph glyph-name="eightsuperior" unicode="&#x2078;" horiz-adv-x="669" 
d="M336 928q-130 0 -203.5 55.5t-73.5 149.5q0 120 115 174q-94 53 -94 155q0 91 69 145t187 54q116 0 185 -54t69 -145q0 -99 -92 -155q112 -53 112 -168q0 -98 -72 -154.5t-202 -56.5zM336 1532q-41 0 -63.5 -21t-22.5 -59q0 -40 22.5 -61t63.5 -21q40 0 62 21t22 61
q0 37 -22.5 58.5t-61.5 21.5zM336 1057q44 0 69 24t25 66q0 45 -24.5 68.5t-69.5 23.5q-96 0 -96 -92q0 -42 25.5 -66t70.5 -24z" />
    <glyph glyph-name="ninesuperior" unicode="&#x2079;" horiz-adv-x="667" 
d="M604 1300q0 -181 -80 -276.5t-207 -95.5q-90 0 -151.5 44t-87.5 128l158 39q28 -70 88 -70q97 0 106 195q-53 -66 -147 -66q-104 0 -165 61.5t-61 159.5q0 104 72 173t190 69q130 0 207.5 -91t77.5 -270zM317 1528q-43 0 -67.5 -28t-24.5 -75t24.5 -72.5t67.5 -25.5
q41 0 67 26t26 74q0 46 -26 73.5t-67 27.5z" />
    <glyph glyph-name="zeroinferior" unicode="&#x2080;" horiz-adv-x="718" 
d="M358 -227q-141 0 -218 97t-77 269q0 173 77 270t218 97q143 0 220 -96.5t77 -270.5q0 -172 -77 -269t-220 -97zM358 -68q99 0 99 207t-99 207q-98 0 -98 -207t98 -207z" />
    <glyph glyph-name="oneinferior" unicode="&#x2081;" horiz-adv-x="600" 
d="M70 -219v151h155v410l-143 -31v148l166 39h162v-566h139v-151h-479z" />
    <glyph glyph-name="twoinferior" unicode="&#x2082;" horiz-adv-x="649" 
d="M74 -86l225 207q52 48 72 82.5t20 72.5q0 84 -74 84q-81 0 -84 -114l-174 24q8 109 79.5 172.5t189.5 63.5q110 0 175.5 -60t65.5 -161q0 -71 -30.5 -126t-120.5 -141l-94 -88h251v-149h-501v133z" />
    <glyph glyph-name="threeinferior" unicode="&#x2083;" horiz-adv-x="653" 
d="M588 -18q0 -93 -73 -151t-196 -58q-120 0 -191 55.5t-77 161.5l164 22q9 -98 98 -98q45 0 69 21.5t24 62.5q0 37 -25.5 57.5t-71.5 20.5h-61v135h65q40 0 62 21t22 59q0 74 -82 74q-41 0 -66.5 -25.5t-29.5 -73.5l-162 23q9 101 80 159t189 58q114 0 183 -52.5t69 -140.5
q0 -119 -115 -163q125 -42 125 -168z" />
    <glyph glyph-name="fourinferior" unicode="&#x2084;" horiz-adv-x="686" 
d="M549 -219h-178v123h-320v131l328 465h170v-457h86v-139h-86v-123zM211 43h160v231z" />
    <glyph glyph-name="fiveinferior" unicode="&#x2085;" horiz-adv-x="643" 
d="M317 -227q-110 0 -177.5 49t-84.5 145l174 29q12 -82 86 -82q40 0 63 26.5t23 75.5q0 52 -22 79.5t-62 27.5q-45 0 -77 -49l-158 16l29 408h432v-152h-283l-8 -129q42 37 115 37q98 0 157.5 -61.5t59.5 -167.5q0 -119 -74 -185.5t-193 -66.5z" />
    <glyph glyph-name="sixinferior" unicode="&#x2086;" horiz-adv-x="667" 
d="M63 133q0 180 80.5 276.5t208.5 96.5q89 0 150.5 -44.5t87.5 -127.5l-158 -39q-28 67 -88 67q-98 0 -106 -194q52 65 147 65q104 0 164.5 -60.5t60.5 -160.5q0 -103 -72 -171t-190 -68q-129 0 -207 90.5t-78 269.5zM350 -94q43 0 67.5 27t24.5 73q0 47 -23.5 73.5
t-66.5 26.5q-42 0 -68 -27t-26 -73q0 -47 25 -73.5t67 -26.5z" />
    <glyph glyph-name="seveninferior" unicode="&#x2087;" horiz-adv-x="577" 
d="M526 373l-221 -592h-194l227 565h-289v152h477v-125z" />
    <glyph glyph-name="eightinferior" unicode="&#x2088;" horiz-adv-x="669" 
d="M336 -227q-130 0 -203.5 55.5t-73.5 148.5q0 121 115 175q-94 53 -94 155q0 91 69 145t187 54q116 0 185 -54t69 -145q0 -99 -92 -155q112 -53 112 -168q0 -98 -72 -154.5t-202 -56.5zM336 377q-41 0 -63.5 -21t-22.5 -59q0 -40 22.5 -61t63.5 -21q40 0 62 21t22 61
q0 37 -22.5 58.5t-61.5 21.5zM336 -98q44 0 69 24t25 66q0 45 -24.5 68.5t-69.5 23.5q-96 0 -96 -92q0 -42 25.5 -66t70.5 -24z" />
    <glyph glyph-name="nineinferior" unicode="&#x2089;" horiz-adv-x="667" 
d="M604 145q0 -181 -80 -276.5t-207 -95.5q-90 0 -151.5 44t-87.5 128l158 39q28 -70 88 -70q97 0 106 195q-53 -66 -147 -66q-104 0 -165 61.5t-61 159.5q0 104 72 173t190 69q130 0 207.5 -91t77.5 -270zM317 373q-43 0 -67.5 -28t-24.5 -75t24.5 -72.5t67.5 -25.5
q41 0 67 26t26 74q0 46 -26 73.5t-67 27.5z" />
    <glyph glyph-name="colonmonetary" unicode="&#x20a1;" horiz-adv-x="1130" 
d="M240 -164l49 252q-203 179 -203 629q0 342 121 530t352 201l29 149h106l-30 -151q52 -6 96 -21l35 172h104l-43 -221q167 -118 207 -440l-236 -53q-12 100 -36 168l-162 -822q89 12 138 92t62 238l244 -53q-43 -268 -158.5 -395t-320.5 -127h-14l-29 -148h-105l31 160
q-42 8 -94 31l-37 -191h-106zM438 305q38 -50 88 -67l185 933q-39 29 -95 35zM358 717q0 -117 13 -213l135 684q-148 -75 -148 -471z" />
    <glyph glyph-name="uni20A9" unicode="&#x20a9;" horiz-adv-x="1681" 
d="M330 0l-152 762h-110v106h88l-25 121h-119v107h99l-68 338h279l61 -338h256l70 338h260l69 -338h262l62 338h280l-71 -338h98v-107h-121l-26 -121h90v-106h-113l-162 -762h-286l-215 1001l-218 -1001h-288zM1085 868h172l23 121h-219zM426 868h166l24 121h-213zM1108 762
l70 -336l61 336h-131zM444 762l60 -320l65 320h-125z" />
    <glyph glyph-name="uni20AA" unicode="&#x20aa;" horiz-adv-x="1486" 
d="M813 791q0 122 -48 174.5t-159 52.5h-213v-1018h-262v1286h434q191 0 281 -89t90 -288v-436h-123v318zM1356 514q0 -278 -110 -396t-367 -118h-328v793h123v-525h205q116 0 165.5 52.5t49.5 175.5v770h262v-752z" />
    <glyph glyph-name="dong" unicode="&#x20ab;" horiz-adv-x="972" 
d="M373 -16q-154 0 -233 142t-79 419q0 276 79 418.5t233 142.5t233 -158v293h-176v152h176v143h262v-143h119v-152h-119v-1241h-219l-26 180q-76 -196 -250 -196zM473 219q133 0 133 326q0 334 -135 334q-72 0 -105.5 -80t-33.5 -254q0 -169 34.5 -247.5t106.5 -78.5z
M94 -252v102h778v-102h-778z" />
    <glyph glyph-name="Euro" unicode="&#x20ac;" horiz-adv-x="1183" 
d="M23 553v104h135v60q0 43 2 63h-137v105h143q28 276 151.5 420.5t333.5 144.5q203 0 319 -127.5t148 -386.5l-270 -53q-20 168 -67 245.5t-130 77.5q-169 0 -198 -321h264l-12 -105h-259v-63v-60h244l-12 -104h-225q13 -167 61.5 -246.5t134.5 -79.5q90 0 138 79.5
t63 252.5l276 -53q-43 -268 -158 -395t-319 -127q-211 0 -334 144.5t-149 424.5h-143z" />
    <glyph glyph-name="uni20AD" unicode="&#x20ad;" horiz-adv-x="1118" 
d="M160 0v723h-156v121h156v590h270v-574l385 574h297l-405 -590h245v-121h-237l411 -723h-315l-307 549l-74 -109v-440h-270z" />
    <glyph glyph-name="uni20AE" unicode="&#x20ae;" horiz-adv-x="929" 
d="M324 0v451l-213 -37v104l213 37v115l-213 -37v104l213 37v414h-299v246h880v-246h-303v-365l205 37v-104l-205 -37v-115l205 37v-106l-205 -35v-500h-278z" />
    <glyph glyph-name="uni20B1" unicode="&#x20b1;" horiz-adv-x="1198" 
d="M160 0v731h-156v105h156v122h-156v107h156v369h407q186 0 300 -93.5t149 -275.5h180v-107h-166q2 -20 2 -65q0 -39 -2 -57h166v-105h-178q-35 -182 -156 -276.5t-319 -94.5h-105v-360h-278zM535 1196h-97v-131h291q-48 131 -194 131zM752 893q0 45 -2 65h-312v-122h312
q2 18 2 57zM535 600q152 0 194 131h-291v-131h97z" />
    <glyph glyph-name="uni20B4" unicode="&#x20b4;" horiz-adv-x="1138" 
d="M33 584v104h250q57 51 143 86l102 37h-495v104h667q48 57 48 144q0 74 -42 114.5t-118 40.5q-160 0 -172 -225l-264 35q25 215 133 320.5t307 105.5q201 0 314.5 -108.5t113.5 -299.5q0 -59 -21 -127h117v-104h-203q-49 -72 -127 -123h330v-104h-579q-66 -34 -95.5 -83.5
t-29.5 -123.5q0 -75 44 -116.5t122 -41.5q187 0 202 252l262 -35q-26 -241 -135 -346.5t-329 -105.5q-207 0 -326 109.5t-119 301.5q0 109 41 189h-141z" />
    <glyph glyph-name="uni20B5" unicode="&#x20b5;" horiz-adv-x="1112" 
d="M635 -164h-105v150q-217 19 -330.5 205.5t-113.5 525.5q0 337 113 524t331 207v149h105v-149q177 -17 279 -144t133 -368l-271 -53q-17 138 -51 214t-90 99v-958q120 42 143 321l277 -53q-40 -249 -141.5 -376t-278.5 -144v-150zM375 717q0 -223 38 -341t117 -143v965
q-79 -25 -117 -143t-38 -338z" />
    <glyph glyph-name="uni20B8" unicode="&#x20b8;" horiz-adv-x="935" 
d="M27 1329v105h882v-105h-882zM328 0v961h-301v245h882v-245h-303v-961h-278z" />
    <glyph glyph-name="uni20B9" unicode="&#x20b9;" horiz-adv-x="1003" 
d="M109 528v240h247q164 0 189 160h-436v104h436q-11 80 -59 122t-130 42h-247v238h890v-105h-356q166 -84 184 -297h172v-104h-172q-14 -175 -113.5 -272t-277.5 -107l426 -549h-350z" />
    <glyph glyph-name="uni20BA" unicode="&#x20ba;" horiz-adv-x="1128" 
d="M160 0v575l-156 -26v104l156 27v117l-156 -27v104l156 27v533h278v-484l262 47v-104l-262 -47v-117l262 47v-104l-262 -47v-381h144q121 0 182 56t82 198l274 -52q-37 -233 -166 -339.5t-372 -106.5h-422z" />
    <glyph glyph-name="uni20BC" unicode="&#x20bc;" horiz-adv-x="1304" 
d="M758 205h-211v676q-162 -48 -162 -269v-612h-262v602q0 226 111 363t313 165v304h211v-301q201 -30 312.5 -167t111.5 -364v-602h-262v612q0 221 -162 269v-676z" />
    <glyph glyph-name="uni20BD" unicode="&#x20bd;" horiz-adv-x="1081" 
d="M160 0v209h-156v106h156v127h-156v240h156v752h407q226 0 345.5 -128t119.5 -372q0 -239 -125.5 -365.5t-363.5 -126.5h-105v-127h230v-106h-230v-209h-278zM535 1196h-97v-514h97q112 0 164.5 60.5t52.5 191.5q0 136 -52 199t-165 63z" />
    <glyph glyph-name="uni2113" unicode="&#x2113;" horiz-adv-x="1050" 
d="M16 506l152 61v434q0 207 114.5 328t301.5 121q192 0 298.5 -101.5t106.5 -287.5q0 -206 -123 -354t-417 -279v-20q0 -99 38.5 -141t126.5 -42q101 0 242 56l-4 -248q-139 -49 -289 -49q-179 0 -275.5 82t-115.5 258l-156 -62v244zM449 1034v-358q81 43 136 89.5t84 96.5
t40.5 97.5t11.5 105.5q0 71 -34 110t-97 39q-67 0 -104 -45.5t-37 -134.5z" />
    <glyph glyph-name="uni2116" unicode="&#x2116;" horiz-adv-x="1804" 
d="M1485 952q-115 0 -184.5 69t-69.5 183q0 112 69 179t185 67t186 -68t70 -182q0 -112 -70 -180t-186 -68zM152 0v1434h280l377 -936v936h254v-1434h-281l-376 936v-936h-254zM1485 1307q-40 0 -63 -28t-23 -75q0 -51 23 -79.5t63 -28.5t63 27.5t23 76.5t-23 78t-63 29z
M1251 721v143h469v-143h-469z" />
    <glyph glyph-name="trademark" unicode="&#x2122;" horiz-adv-x="1484" 
d="M229 717v557h-172v160h531v-160h-174v-557h-185zM690 717v717h193l151 -381l152 381h186v-717h-172v430l-100 -273h-137l-103 271v-428h-170z" />
    <glyph glyph-name="estimated" unicode="&#x212e;" horiz-adv-x="1581" 
d="M1417 526h-1016q-8 0 -8 -6v-307q0 -18 15 -37q74 -77 173.5 -120.5t211.5 -43.5q120 0 224 49t179 136h90q-87 -101 -217 -160.5t-278 -59.5q-170 0 -314.5 75.5t-228.5 205.5t-84 283q0 154 84 284.5t228.5 206.5t314.5 76t314.5 -76t228 -206.5t83.5 -284.5v-15z
M1188 565v309q0 22 -17 39q-157 160 -378 160q-111 0 -210.5 -44t-172.5 -122q-17 -14 -17 -39v-303q0 -8 8 -8h781q6 0 6 8z" />
    <glyph glyph-name="oneseventh" unicode="&#x2150;" horiz-adv-x="1710" 
d="M70 717v151h155v410l-143 -31v148l166 39h162v-566h139v-151h-479zM555 0h-238l854 1434h238zM1657 592l-221 -592h-195l227 565h-288v152h477v-125z" />
    <glyph glyph-name="oneninth" unicode="&#x2151;" horiz-adv-x="1732" 
d="M70 717v151h155v410l-143 -31v148l166 39h162v-566h139v-151h-479zM555 0h-238l854 1434h238zM1667 365q0 -181 -80 -277t-207 -96q-90 0 -151.5 44t-87.5 128l157 39q28 -70 88 -70q98 0 107 195q-53 -66 -147 -66q-104 0 -165 61.5t-61 159.5q0 104 72 173t190 69
q130 0 207.5 -90.5t77.5 -269.5zM1380 592q-43 0 -67.5 -28t-24.5 -75t24.5 -72.5t67.5 -25.5q41 0 67 26.5t26 74.5q0 45 -25.5 72.5t-67.5 27.5z" />
    <glyph glyph-name="onethird" unicode="&#x2153;" horiz-adv-x="1724" 
d="M70 717v151h155v410l-143 -31v148l166 39h162v-566h139v-151h-479zM555 0h-238l854 1434h238zM1659 201q0 -93 -72.5 -151t-195.5 -58q-120 0 -191.5 55.5t-77.5 161.5l164 22q9 -98 98 -98q45 0 69 21.5t24 62.5q0 37 -25.5 57.5t-71.5 20.5h-61v135h65q40 0 62 21
t22 59q0 74 -82 74q-41 0 -66.5 -25.5t-29.5 -73.5l-162 23q9 101 80 159t189 58q114 0 183 -52.5t69 -140.5q0 -119 -115 -163q125 -42 125 -168z" />
    <glyph glyph-name="twothirds" unicode="&#x2154;" horiz-adv-x="1753" 
d="M74 850l225 207q52 48 72 82.5t20 72.5q0 84 -74 84q-81 0 -84 -114l-174 24q8 109 79.5 172.5t189.5 63.5q110 0 175.5 -60t65.5 -161q0 -71 -30.5 -126t-120.5 -141l-94 -88h251v-149h-501v133zM584 0h-238l854 1434h238zM1688 201q0 -93 -73 -151t-196 -58
q-120 0 -191 55.5t-77 161.5l164 22q9 -98 98 -98q92 0 92 84q0 37 -25 57.5t-71 20.5h-61v135h65q40 0 62 21t22 59q0 74 -82 74q-41 0 -66.5 -25.5t-29.5 -73.5l-162 23q9 101 80 159t188 58q114 0 183 -52.5t69 -140.5q0 -120 -114 -163q125 -42 125 -168z" />
    <glyph glyph-name="onefifth" unicode="&#x2155;" horiz-adv-x="1726" 
d="M70 717v151h155v410l-143 -31v148l166 39h162v-566h139v-151h-479zM555 0h-238l854 1434h238zM1401 -8q-110 0 -177.5 49t-84.5 145l174 29q12 -82 86 -82q40 0 63 27t23 76q0 52 -22 79t-62 27q-46 0 -78 -49l-158 16l29 408h432v-152h-283l-8 -129q42 37 115 37
q98 0 157.5 -61.5t59.5 -167.5q0 -119 -73.5 -185.5t-192.5 -66.5z" />
    <glyph glyph-name="twofifths" unicode="&#x2156;" horiz-adv-x="1755" 
d="M74 850l225 207q52 48 72 82.5t20 72.5q0 84 -74 84q-81 0 -84 -114l-174 24q8 109 79.5 172.5t189.5 63.5q110 0 175.5 -60t65.5 -161q0 -71 -30.5 -126t-120.5 -141l-94 -88h251v-149h-501v133zM584 0h-238l854 1434h238zM1430 -8q-110 0 -178 49t-85 145l174 29
q12 -82 86 -82q40 0 63 27t23 76q0 106 -83 106q-46 0 -78 -49l-158 16l29 408h432v-152h-283l-8 -129q42 37 115 37q98 0 157.5 -61.5t59.5 -167.5q0 -119 -73.5 -185.5t-192.5 -66.5z" />
    <glyph glyph-name="threefifths" unicode="&#x2157;" horiz-adv-x="1724" 
d="M588 918q0 -93 -73 -151t-196 -58q-120 0 -191 55.5t-77 161.5l164 22q9 -98 98 -98q45 0 69 21.5t24 62.5q0 37 -25.5 57.5t-71.5 20.5h-61v135h65q40 0 62 21t22 59q0 73 -82 73q-41 0 -66.5 -25t-29.5 -73l-162 23q9 101 80 159t189 58q114 0 183 -52.5t69 -140.5
q0 -120 -115 -164q125 -42 125 -167zM553 0h-238l854 1434h238zM1399 -8q-110 0 -177.5 49t-84.5 145l174 29q12 -82 86 -82q40 0 63 27t23 76q0 52 -22 79t-62 27q-46 0 -78 -49l-158 16l29 408h432v-152h-283l-8 -129q42 37 115 37q98 0 157.5 -61.5t59.5 -167.5
q0 -119 -73.5 -185.5t-192.5 -66.5z" />
    <glyph glyph-name="fourfifths" unicode="&#x2158;" horiz-adv-x="1765" 
d="M549 717h-178v123h-320v131l328 465h170v-457h86v-139h-86v-123zM594 0h-238l854 1434h238zM211 979h160v231zM1442 -8q-110 0 -177.5 49t-84.5 145l174 29q12 -82 86 -82q40 0 63 27t23 76q0 52 -22 79t-62 27q-46 0 -78 -49l-158 16l29 408h432v-152h-283l-8 -129
q42 37 115 37q98 0 157.5 -61.5t59.5 -167.5q0 -119 -73.5 -185.5t-192.5 -66.5z" />
    <glyph glyph-name="onesixth" unicode="&#x2159;" horiz-adv-x="1712" 
d="M70 717v151h155v410l-143 -31v148l166 39h162v-566h139v-151h-479zM555 0h-238l854 1434h238zM1106 352q0 180 80.5 276.5t208.5 96.5q89 0 150 -44.5t87 -127.5l-157 -39q-28 68 -89 68q-97 0 -106 -195q53 66 147 66q104 0 165 -61t61 -161q0 -103 -72 -171t-190 -68
q-129 0 -207 90.5t-78 269.5zM1393 125q43 0 67.5 27t24.5 73q0 47 -23.5 74t-66.5 27q-42 0 -68.5 -27.5t-26.5 -73.5q0 -47 25.5 -73.5t67.5 -26.5z" />
    <glyph glyph-name="fivesixths" unicode="&#x215a;" horiz-adv-x="1697" 
d="M317 709q-110 0 -177.5 49t-84.5 145l174 29q12 -82 86 -82q40 0 63 26.5t23 75.5q0 52 -22 79.5t-62 27.5q-45 0 -77 -49l-158 16l29 408h432v-152h-283l-8 -129q42 37 115 37q98 0 157.5 -61.5t59.5 -167.5q0 -119 -74 -185.5t-193 -66.5zM543 0h-238l854 1434h238z
M1094 352q0 180 80 276.5t208 96.5q89 0 150.5 -44.5t87.5 -127.5l-158 -39q-28 68 -88 68q-97 0 -106 -195q53 66 147 66q104 0 164.5 -61t60.5 -161q0 -103 -72 -171t-190 -68q-129 0 -206.5 90.5t-77.5 269.5zM1380 125q43 0 68 27t25 73q0 47 -24 74t-67 27
q-42 0 -68 -27t-26 -74t25 -73.5t67 -26.5z" />
    <glyph glyph-name="oneeighth" unicode="&#x215b;" horiz-adv-x="1732" 
d="M70 717v151h155v410l-143 -31v148l166 39h162v-566h139v-151h-479zM555 0h-238l854 1434h238zM1399 -8q-130 0 -203.5 55.5t-73.5 149.5q0 120 115 174q-94 53 -94 155q0 91 69 145t187 54q116 0 185 -54t69 -145q0 -99 -92 -155q112 -53 112 -168q0 -98 -72 -154.5
t-202 -56.5zM1399 596q-41 0 -63.5 -21t-22.5 -59q0 -40 22.5 -61t63.5 -21q40 0 62 21t22 61q0 37 -22.5 58.5t-61.5 21.5zM1399 121q44 0 69 24t25 66q0 45 -24.5 68.5t-69.5 23.5q-96 0 -96 -92q0 -42 25.5 -66t70.5 -24z" />
    <glyph glyph-name="threeeighths" unicode="&#x215c;" horiz-adv-x="1728" 
d="M588 918q0 -93 -73 -151t-196 -58q-120 0 -191 55.5t-77 161.5l164 22q9 -98 98 -98q45 0 69 21.5t24 62.5q0 37 -25.5 57.5t-71.5 20.5h-61v135h65q40 0 62 21t22 59q0 73 -82 73q-41 0 -66.5 -25t-29.5 -73l-162 23q9 101 80 159t189 58q114 0 183 -52.5t69 -140.5
q0 -120 -115 -164q125 -42 125 -167zM553 0h-238l854 1434h238zM1395 -8q-130 0 -203.5 55.5t-73.5 149.5q0 120 115 174q-94 53 -94 155q0 91 69 145t187 54q116 0 185 -54t69 -145q0 -98 -93 -155q53 -25 83 -68.5t30 -99.5q0 -98 -72 -154.5t-202 -56.5zM1395 596
q-41 0 -63.5 -21t-22.5 -59q0 -40 22.5 -61t63.5 -21q40 0 62 21t22 61q0 37 -22.5 58.5t-61.5 21.5zM1395 121q44 0 69 24t25 66q0 45 -24.5 68.5t-69.5 23.5q-46 0 -71.5 -23.5t-25.5 -68.5q0 -42 26 -66t71 -24z" />
    <glyph glyph-name="fiveeighths" unicode="&#x215d;" horiz-adv-x="1718" 
d="M317 709q-110 0 -177.5 49t-84.5 145l174 29q12 -82 86 -82q40 0 63 26.5t23 75.5q0 52 -22 79.5t-62 27.5q-45 0 -77 -49l-158 16l29 408h432v-152h-283l-8 -129q42 37 115 37q98 0 157.5 -61.5t59.5 -167.5q0 -119 -74 -185.5t-193 -66.5zM543 0h-238l854 1434h238z
M1384 -8q-130 0 -203 55.5t-73 149.5q0 120 115 174q-95 53 -95 155q0 91 69 145t187 54q116 0 185 -54t69 -145q0 -99 -92 -155q53 -25 83 -68.5t30 -99.5q0 -98 -72 -154.5t-203 -56.5zM1384 596q-41 0 -63.5 -21t-22.5 -59q0 -40 22.5 -61t63.5 -21q40 0 62 21t22 61
q0 37 -22.5 58.5t-61.5 21.5zM1384 121q44 0 69.5 24.5t25.5 65.5q0 45 -25 68.5t-70 23.5q-96 0 -96 -92q0 -42 25.5 -66t70.5 -24z" />
    <glyph glyph-name="seveneighths" unicode="&#x215e;" horiz-adv-x="1576" 
d="M526 1309l-221 -592h-194l227 565h-289v152h477v-125zM401 0h-237l854 1434h237zM1243 -8q-130 0 -203 55.5t-73 149.5q0 120 114 174q-94 53 -94 155q0 91 69 145t187 54q116 0 185 -54t69 -145q0 -99 -92 -155q53 -25 83 -68.5t30 -99.5q0 -98 -72 -154.5t-203 -56.5z
M1243 596q-41 0 -63.5 -21t-22.5 -59q0 -40 22.5 -61t63.5 -21q40 0 62 21t22 61q0 37 -22.5 58.5t-61.5 21.5zM1243 121q44 0 69 24t25 66q0 45 -24.5 68.5t-69.5 23.5q-96 0 -96 -92q0 -42 25.5 -66t70.5 -24z" />
    <glyph glyph-name="arrowleft" unicode="&#x2190;" horiz-adv-x="1181" 
d="M649 891l-217 -209h678v-225h-676l217 -211l-143 -152l-477 477l475 473z" />
    <glyph glyph-name="arrowup" unicode="&#x2191;" horiz-adv-x="1181" 
d="M913 489l-211 220v-678h-225v674l-209 -218l-153 146l475 477l473 -475z" />
    <glyph glyph-name="arrowright" unicode="&#x2192;" horiz-adv-x="1181" 
d="M530 891l146 153l475 -473l-477 -477l-146 152l220 211h-676v225h676z" />
    <glyph glyph-name="arrowdown" unicode="&#x2193;" horiz-adv-x="1181" 
d="M268 651l209 -217v676h228v-676l208 217l152 -143l-475 -477l-473 475z" />
    <glyph glyph-name="uni2194" unicode="&#x2194;" horiz-adv-x="1548" 
d="M649 891l-217 -209h682l-217 209l145 153l476 -473l-478 -477l-145 152l219 211h-680l217 -211l-143 -152l-477 477l475 473z" />
    <glyph glyph-name="uni2195" unicode="&#x2195;" horiz-adv-x="1181" 
d="M268 580l209 -218v682l-209 -217l-153 146l475 475l473 -477l-150 -146l-211 219v-682l211 220l150 -146l-473 -475l-475 475z" />
    <glyph glyph-name="uni2196" unicode="&#x2196;" horiz-adv-x="1181" 
d="M874 750h-311l484 -482l-160 -162l-481 482v-309h-203v673h671v-202z" />
    <glyph glyph-name="uni2197" unicode="&#x2197;" horiz-adv-x="1181" 
d="M309 750v202h670v-673h-201v311l-481 -484l-162 162l483 482h-309z" />
    <glyph glyph-name="uni2198" unicode="&#x2198;" horiz-adv-x="1181" 
d="M307 307h309l-481 481l160 164l481 -485v311h201v-672h-670v201z" />
    <glyph glyph-name="uni2199" unicode="&#x2199;" horiz-adv-x="1181" 
d="M874 307v-201h-671v672h203v-309l481 483l160 -164l-484 -481h311z" />
    <glyph glyph-name="partialdiff" unicode="&#x2202;" horiz-adv-x="1087" 
d="M512 -16q-201 0 -318.5 125.5t-117.5 339.5q0 204 105.5 329t275.5 125q83 0 149.5 -38t104.5 -107q-3 172 -26 273t-60 138t-95 37q-48 0 -76 -29.5t-46 -93.5l-265 60q40 147 144 227t241 80q230 0 347.5 -179t117.5 -569q0 -349 -124 -533.5t-357 -184.5zM512 219
q78 0 122 62t44 170q0 105 -45 169t-121 64q-79 0 -121.5 -61t-42.5 -174q0 -108 42.5 -169t121.5 -61z" />
    <glyph glyph-name="product" unicode="&#x220f;" horiz-adv-x="1208" 
d="M152 -246v1680h905v-1680h-281v1434h-344v-1434h-280z" />
    <glyph glyph-name="summation" unicode="&#x2211;" horiz-adv-x="958" 
d="M66 -307v262l319 610l-319 606v263h833v-263h-520l307 -593l-301 -623h539v-262h-858z" />
    <glyph glyph-name="minus" unicode="&#x2212;" horiz-adv-x="915" 
d="M834 612h-752v228h752v-228z" />
    <glyph glyph-name="uni2215" unicode="&#x2215;" horiz-adv-x="1091" 
d="M238 0h-238l854 1434h238z" />
    <glyph glyph-name="radical" unicode="&#x221a;" horiz-adv-x="1191" 
d="M477 0l-219 733l-180 -76l-72 181l440 182l156 -641l313 1055h273l-475 -1434h-236z" />
    <glyph glyph-name="infinity" unicode="&#x221e;" horiz-adv-x="1435" 
d="M1018 238q-89 0 -162.5 45.5t-140.5 156.5q-59 -95 -129.5 -148.5t-167.5 -53.5q-154 0 -245 112t-91 305q0 188 94.5 307t241.5 119q88 0 158 -42.5t139 -149.5q123 192 303 192q154 0 245 -112t91 -305q0 -188 -94.5 -307t-241.5 -119zM328 655q0 -85 30 -130.5
t76 -45.5q49 0 85 47t83 144q-52 102 -85 135t-83 33q-45 0 -75.5 -47.5t-30.5 -135.5zM999 838q-50 0 -88.5 -44.5t-81.5 -129.5q46 -106 83.5 -145.5t86.5 -39.5q47 0 77 48t30 137q0 85 -30 129.5t-77 44.5z" />
    <glyph glyph-name="integral" unicode="&#x222b;" horiz-adv-x="667" 
d="M201 1153q0 200 79.5 291.5t254.5 91.5q71 0 133 -16l-6 -232q-54 8 -91 8q-57 0 -82.5 -30t-25.5 -97v-1212q0 -200 -79.5 -291.5t-254.5 -91.5q-72 0 -131 16l-10 232q42 -10 96 -10q61 0 89 30.5t28 96.5v1214z" />
    <glyph glyph-name="approxequal" unicode="&#x2248;" horiz-adv-x="915" 
d="M270 909q-37 0 -78 -18.5t-110 -65.5v234q112 82 197 82q53 0 108 -20.5t93 -45t83 -45t82 -20.5q72 0 189 84v-236q-105 -80 -197 -80q-54 0 -109 20.5t-92 45t-82.5 45t-83.5 20.5zM270 455q-37 0 -78 -18.5t-110 -65.5v233q112 82 197 82q53 0 108 -20.5t93 -45
t83 -45t82 -20.5q72 0 189 84v-236q-103 -79 -197 -79q-54 0 -109 20.5t-92 45t-82.5 45t-83.5 20.5z" />
    <glyph glyph-name="notequal" unicode="&#x2260;" horiz-adv-x="915" 
d="M375 238h-215l59 153h-137v225h223l86 220h-309v225h395l62 158h215l-62 -158h142v-225h-228l-86 -220h314v-225h-400z" />
    <glyph glyph-name="lessequal" unicode="&#x2264;" horiz-adv-x="917" 
d="M74 735v209l751 395v-270l-444 -219l444 -219v-291zM825 14h-751v228h751v-228z" />
    <glyph glyph-name="greaterequal" unicode="&#x2265;" horiz-adv-x="917" 
d="M846 944v-209l-752 -395v272l443 219l-443 220v288zM846 14h-752v228h752v-228z" />
    <glyph glyph-name="wave" unicode="&#x2307;" horiz-adv-x="1159" 
d="M1159 0q-77 0 -139 33.5t-103 91.5t-73 135t-50.5 163.5t-35 177.5t-26 177.5t-23.5 163.5t-29 135t-40.5 91.5t-59.5 33.5q-42 0 -71 -51.5t-44 -136t-32 -192.5t-32 -221t-46 -221t-73 -192.5t-114.5 -136t-167.5 -51.5v252q50 0 82 66.5t49.5 172.5t34 234t43.5 256
t68 234t118.5 172.5t184.5 66.5q85 0 150.5 -41t107 -110.5t72 -160t48 -190t31.5 -199t27.5 -190t30 -160t45 -110.5t67.5 -41q10 0 10 -125q0 -127 -10 -127z" />
    <glyph glyph-name="lozenge" unicode="&#x25ca;" horiz-adv-x="1112" 
d="M700 0h-292l-351 717l351 717h292l349 -717zM338 717l221 -451l207 463l-217 440z" />
    <glyph glyph-name="commaaccent" unicode="&#xf6c3;" 
d="M244 -418l118 297h304l-197 -297h-225z" />
    <glyph glyph-name="kgreenlandic.case" horiz-adv-x="1460" 
d="M152 0v1434h270v-576l387 576h297l-438 -637l452 -797h-315l-307 549l-76 -109v-440h-270zM1501 1434l-119 -297h-305l199 297h225z" />
    <glyph glyph-name="napostrophe.case" horiz-adv-x="1550" 
d="M487 0v1434h283l375 -932v932h254v-1434h-283l-375 932v-932h-254zM-16 1137l118 297h304l-197 -297h-225z" />
    <glyph glyph-name="i.dot" horiz-adv-x="460" 
d="M96 1257v275h269v-275h-269zM98 0v1122h262v-1122h-262z" />
    <glyph glyph-name="caron.alt" 
d="M584 1087v449h280l-80 -449h-200z" />
    <glyph glyph-name="revcommaaccent" 
d="M776 1542l-119 -297h-305l199 297h225z" />
    <glyph glyph-name="zero.tlf" horiz-adv-x="1060" 
d="M530 -16q-229 0 -348 187t-119 546t119 546t348 187t348 -187t119 -546t-119 -546t-348 -187zM530 227q94 0 136.5 116t42.5 374t-42.5 373.5t-136.5 115.5t-136 -115.5t-42 -373.5t42 -374t136 -116z" />
    <glyph glyph-name="one.tlf" horiz-adv-x="1060" 
d="M113 0v244h305v919l-279 -55v260l285 66h272v-1190h281v-244h-864z" />
    <glyph glyph-name="two.tlf" horiz-adv-x="1060" 
d="M125 244l379 458q87 106 121 178t34 148q0 178 -139 178q-85 0 -126.5 -64.5t-45.5 -203.5l-270 45q13 232 132.5 349.5t324.5 117.5q191 0 302 -108.5t111 -290.5q0 -72 -13.5 -131t-50 -123t-77.5 -118t-117 -144l-246 -291h517v-244h-836v244z" />
    <glyph glyph-name="three.tlf" horiz-adv-x="1060" 
d="M981 399q0 -190 -122 -302.5t-320 -112.5q-211 0 -332.5 111t-134.5 341l272 43q9 -132 53 -196t129 -64q80 0 123 49.5t43 145.5q0 200 -172 200h-106v228h110q75 0 116.5 49t41.5 141q0 85 -39 133.5t-115 48.5q-161 0 -178 -241l-264 43q17 202 135 318t314 116
t308.5 -102t112.5 -279q0 -120 -54 -204.5t-157 -125.5q236 -79 236 -340z" />
    <glyph glyph-name="four.tlf" horiz-adv-x="1060" 
d="M870 0h-262v260h-549v221l566 953h245v-949h150v-225h-150v-260zM313 485h295v502z" />
    <glyph glyph-name="five.tlf" horiz-adv-x="1060" 
d="M526 -16q-189 0 -303.5 94.5t-144.5 283.5l276 52q21 -187 168 -187q79 0 123.5 61.5t44.5 178.5q0 125 -42.5 188.5t-119.5 63.5q-110 0 -161 -111l-254 25l51 801h739v-246h-493l-25 -328q80 86 213 86q172 0 272.5 -123t100.5 -340q0 -237 -122.5 -368t-322.5 -131z
" />
    <glyph glyph-name="six.tlf" horiz-adv-x="1060" 
d="M80 705q0 369 130 557t372 188q158 0 260.5 -91.5t140.5 -268.5l-270 -54q-27 170 -150 170q-99 0 -146 -108t-50 -348q42 71 110.5 110t157.5 39q163 0 260.5 -121t97.5 -323q0 -218 -115 -344.5t-313 -126.5q-235 0 -360 185.5t-125 535.5zM561 219q78 0 120 58.5
t42 166.5q0 115 -41.5 175.5t-122.5 60.5q-75 0 -120.5 -61t-45.5 -162q0 -113 44.5 -175.5t123.5 -62.5z" />
    <glyph glyph-name="seven.tlf" horiz-adv-x="1060" 
d="M928 1188l-420 -1188h-291l440 1188h-522v246h793v-246z" />
    <glyph glyph-name="eight.tlf" horiz-adv-x="1060" 
d="M530 -16q-220 0 -336 106.5t-116 296.5q0 123 57.5 214.5t161.5 139.5q-86 50 -133 134.5t-47 195.5q0 175 110.5 277t302.5 102q191 0 302.5 -102t111.5 -279q0 -112 -46.5 -196t-133.5 -132q105 -48 162 -139t57 -215q0 -190 -116.5 -296.5t-336.5 -106.5zM678 1047
q0 93 -38.5 142.5t-109.5 49.5t-109 -48.5t-38 -141.5q0 -91 38 -140t109 -49t109.5 49t38.5 138zM530 195q80 0 122 53.5t42 154.5q0 103 -42 157t-122 54q-79 0 -121 -54t-42 -157q0 -101 42 -154.5t121 -53.5z" />
    <glyph glyph-name="nine.tlf" horiz-adv-x="1060" 
d="M979 729q0 -368 -130.5 -556.5t-371.5 -188.5q-160 0 -261.5 91.5t-139.5 268.5l270 53q27 -170 150 -170q98 0 144.5 108t49.5 347q-93 -147 -272 -147q-160 0 -256 121t-96 323q0 218 115 344.5t313 126.5q235 0 360 -185.5t125 -535.5zM498 1214q-78 0 -120 -58.5
t-42 -166.5q0 -115 41.5 -175t122.5 -60q75 0 119.5 61t44.5 162q0 113 -43.5 175t-122.5 62z" />
    <glyph glyph-name="zero.posf" horiz-adv-x="1124" 
d="M563 -16q-228 0 -348.5 160.5t-120.5 469.5q0 308 120.5 469.5t348.5 161.5q226 0 346.5 -161.5t120.5 -469.5q0 -309 -120 -469.5t-347 -160.5zM563 227q92 0 135 92.5t43 294.5q0 201 -43.5 294t-134.5 93q-93 0 -136.5 -93t-43.5 -294q0 -203 43.5 -295t136.5 -92z
" />
    <glyph glyph-name="one.posf" horiz-adv-x="845" 
d="M31 0v244h280v714l-254 -55v260l262 66h271v-985h248v-244h-807z" />
    <glyph glyph-name="two.posf" horiz-adv-x="995" 
d="M86 244l348 305q113 98 151 162.5t38 140.5q0 149 -136 149q-155 0 -161 -268l-273 45q15 232 132 349.5t319 117.5q187 0 297 -102t110 -273q0 -137 -61 -238t-232 -251l-155 -137h461v-244h-838v244z" />
    <glyph glyph-name="three.posf" horiz-adv-x="1032" 
d="M958 160q0 -193 -123 -309.5t-321 -116.5q-209 0 -330.5 111t-134.5 341l273 43q9 -132 53 -196t129 -64q80 0 123 51.5t43 153.5q0 209 -172 209h-107v227h111q75 0 116 52.5t41 150.5q0 92 -38.5 144.5t-114.5 52.5q-161 0 -178 -242l-265 43q17 202 135 318t314 116
q197 0 309.5 -102.5t112.5 -280.5q0 -129 -55 -219t-160 -133q239 -81 239 -350z" />
    <glyph glyph-name="four.posf" horiz-adv-x="1017" 
d="M840 -246h-262v246h-549v221l563 1008h248v-1004h151v-225h-151v-246zM276 225h302v545z" />
    <glyph glyph-name="five.posf" horiz-adv-x="1046" 
d="M528 -266q-189 0 -303.5 95t-144.5 284l276 53q21 -189 168 -189q79 0 123.5 70t44.5 203q0 119 -42.5 180.5t-119.5 61.5q-112 0 -161 -111l-254 27l51 821h739v-246h-493l-25 -352q82 88 223 88q166 0 264.5 -120t98.5 -333q0 -253 -122.5 -392.5t-322.5 -139.5z" />
    <glyph glyph-name="six.posf" horiz-adv-x="1079" 
d="M92 705q0 369 130 557t372 188q158 0 260.5 -91.5t140.5 -268.5l-270 -54q-27 170 -150 170q-99 0 -146 -108t-50 -348q42 71 110.5 110t157.5 39q163 0 261 -121t98 -323q0 -218 -115 -344.5t-313 -126.5q-235 0 -360.5 185.5t-125.5 535.5zM573 219q78 0 120 58.5
t42 166.5q0 115 -41.5 175.5t-122.5 60.5q-75 0 -120 -61t-45 -162q0 -113 44 -175.5t123 -62.5z" />
    <glyph glyph-name="seven.posf" horiz-adv-x="831" 
d="M803 983l-436 -1229h-291l454 1229h-518v246h791v-246z" />
    <glyph glyph-name="eight.posf" horiz-adv-x="1075" 
d="M537 -16q-220 0 -336.5 106.5t-116.5 296.5q0 123 57.5 214.5t161.5 139.5q-86 50 -133 134.5t-47 195.5q0 175 111 277t303 102q191 0 302 -102t111 -279q0 -112 -46.5 -196t-133.5 -132q105 -48 162 -139t57 -215q0 -190 -116 -296.5t-336 -106.5zM684 1047
q0 93 -38 142.5t-109 49.5t-109.5 -48.5t-38.5 -141.5q0 -91 38.5 -140t109.5 -49q70 0 108.5 49t38.5 138zM537 195q79 0 121 53.5t42 154.5q0 103 -42 157t-121 54q-80 0 -122 -54t-42 -157q0 -101 42 -154.5t122 -53.5z" />
    <glyph glyph-name="nine.posf" horiz-adv-x="1079" 
d="M987 504q0 -381 -130.5 -575.5t-373.5 -194.5q-158 0 -260.5 91.5t-140.5 268.5l270 53q30 -167 150 -167q100 0 146.5 113t49.5 366q-42 -71 -113 -111.5t-161 -40.5q-160 0 -256 121.5t-96 323.5q0 229 115 361t313 132q236 0 361.5 -191t125.5 -550zM506 1010
q-78 0 -121 -65t-43 -183q0 -114 41.5 -174t122.5 -60q76 0 121 60.5t45 163.5q0 122 -43.5 190t-122.5 68z" />
    <glyph glyph-name="zero.numerator" horiz-adv-x="718" 
d="M358 709q-141 0 -218 97t-77 269q0 173 77 270t218 97q143 0 220 -96.5t77 -270.5q0 -172 -77 -269t-220 -97zM358 868q99 0 99 207t-99 207q-98 0 -98 -207t98 -207z" />
    <glyph glyph-name="one.numerator" horiz-adv-x="600" 
d="M70 717v151h155v410l-143 -31v148l166 39h162v-566h139v-151h-479z" />
    <glyph glyph-name="two.numerator" horiz-adv-x="649" 
d="M74 850l225 207q52 48 72 82.5t20 72.5q0 84 -74 84q-81 0 -84 -114l-174 24q8 109 79.5 172.5t189.5 63.5q110 0 175.5 -60t65.5 -161q0 -71 -30.5 -126t-120.5 -141l-94 -88h251v-149h-501v133z" />
    <glyph glyph-name="three.numerator" horiz-adv-x="653" 
d="M588 918q0 -93 -73 -151t-196 -58q-120 0 -191 55.5t-77 161.5l164 22q9 -98 98 -98q45 0 69 21.5t24 62.5q0 37 -25.5 57.5t-71.5 20.5h-61v135h65q40 0 62 21t22 59q0 73 -82 73q-41 0 -66.5 -25t-29.5 -73l-162 23q9 101 80 159t189 58q114 0 183 -52.5t69 -140.5
q0 -120 -115 -164q125 -42 125 -167z" />
    <glyph glyph-name="four.numerator" horiz-adv-x="686" 
d="M549 717h-178v123h-320v131l328 465h170v-457h86v-139h-86v-123zM211 979h160v231z" />
    <glyph glyph-name="five.numerator" horiz-adv-x="643" 
d="M317 709q-110 0 -177.5 49t-84.5 145l174 29q12 -82 86 -82q40 0 63 26.5t23 75.5q0 52 -22 79.5t-62 27.5q-45 0 -77 -49l-158 16l29 408h432v-152h-283l-8 -129q42 37 115 37q98 0 157.5 -61.5t59.5 -167.5q0 -119 -74 -185.5t-193 -66.5z" />
    <glyph glyph-name="six.numerator" horiz-adv-x="667" 
d="M63 1069q0 180 80.5 276.5t208.5 96.5q89 0 150.5 -44.5t87.5 -127.5l-158 -39q-28 67 -88 67q-98 0 -106 -194q52 65 147 65q104 0 164.5 -60.5t60.5 -160.5q0 -103 -72 -171t-190 -68q-129 0 -207 90.5t-78 269.5zM350 842q43 0 67.5 27t24.5 73q0 47 -23.5 73.5
t-66.5 26.5q-42 0 -68 -27t-26 -73q0 -47 25 -73.5t67 -26.5z" />
    <glyph glyph-name="seven.numerator" horiz-adv-x="577" 
d="M526 1309l-221 -592h-194l227 565h-289v152h477v-125z" />
    <glyph glyph-name="eight.numerator" horiz-adv-x="669" 
d="M336 709q-130 0 -203.5 55.5t-73.5 148.5q0 120 115 174q-94 53 -94 156q0 91 69 145t187 54q116 0 185 -54t69 -145q0 -100 -92 -156q112 -53 112 -167q0 -98 -72 -154.5t-202 -56.5zM336 1313q-41 0 -63.5 -21t-22.5 -59q0 -40 22.5 -61t63.5 -21q40 0 62 21t22 61
q0 37 -22.5 58.5t-61.5 21.5zM336 838q44 0 69 24t25 66q0 45 -24.5 68.5t-69.5 23.5q-96 0 -96 -92q0 -42 25.5 -66t70.5 -24z" />
    <glyph glyph-name="nine.numerator" horiz-adv-x="667" 
d="M604 1081q0 -181 -80 -276.5t-207 -95.5q-90 0 -151.5 44t-87.5 128l158 39q28 -70 88 -70q97 0 106 194q-52 -65 -147 -65q-104 0 -165 61.5t-61 159.5q0 104 72 173t190 69q130 0 207.5 -91t77.5 -270zM317 1309q-43 0 -67.5 -28t-24.5 -75t24.5 -72.5t67.5 -25.5
q41 0 67 26t26 74q0 46 -26 73.5t-67 27.5z" />
    <glyph glyph-name="zero.denominator" horiz-adv-x="718" 
d="M358 -8q-141 0 -218 97t-77 269q0 173 77 270t218 97q143 0 220 -96.5t77 -270.5q0 -172 -77 -269t-220 -97zM358 152q99 0 99 206q0 207 -99 207q-98 0 -98 -207q0 -106 24 -156t74 -50z" />
    <glyph glyph-name="one.denominator" horiz-adv-x="600" 
d="M70 0v152h155v409l-143 -31v148l166 39h162v-565h139v-152h-479z" />
    <glyph glyph-name="two.denominator" horiz-adv-x="649" 
d="M74 133l225 207q52 48 72 83t20 73q0 84 -74 84q-39 0 -61 -29.5t-23 -85.5l-174 24q8 109 79.5 172.5t189.5 63.5q110 0 175.5 -60t65.5 -161q0 -71 -30.5 -125.5t-120.5 -140.5l-94 -88h251v-150h-501v133z" />
    <glyph glyph-name="three.denominator" horiz-adv-x="653" 
d="M588 201q0 -93 -73 -151t-196 -58q-120 0 -191 55.5t-77 161.5l164 22q9 -98 98 -98q45 0 69 21.5t24 62.5q0 37 -25.5 57.5t-71.5 20.5h-61v135h65q40 0 62 21t22 59q0 74 -82 74q-41 0 -66.5 -25.5t-29.5 -73.5l-162 23q9 101 80 159t189 58q114 0 183 -52.5t69 -140.5
q0 -119 -115 -163q125 -42 125 -168z" />
    <glyph glyph-name="four.denominator" horiz-adv-x="686" 
d="M549 0h-178v123h-320v131l328 465h170v-457h86v-139h-86v-123zM211 262h160v232z" />
    <glyph glyph-name="five.denominator" horiz-adv-x="643" 
d="M317 -8q-110 0 -177.5 49t-84.5 145l174 29q12 -82 86 -82q40 0 63 27t23 76q0 52 -22 79t-62 27q-45 0 -77 -49l-158 16l29 408h432v-152h-283l-8 -129q42 37 115 37q98 0 157.5 -61.5t59.5 -167.5q0 -119 -74 -185.5t-193 -66.5z" />
    <glyph glyph-name="six.denominator" horiz-adv-x="667" 
d="M63 352q0 180 80.5 276.5t208.5 96.5q89 0 150.5 -44.5t87.5 -127.5l-158 -39q-28 68 -88 68q-97 0 -106 -195q53 66 147 66q104 0 164.5 -61t60.5 -161q0 -103 -72 -171t-190 -68q-129 0 -207 90.5t-78 269.5zM350 125q43 0 67.5 27t24.5 73q0 47 -23.5 74t-66.5 27
q-42 0 -68 -27t-26 -74t25 -73.5t67 -26.5z" />
    <glyph glyph-name="seven.denominator" horiz-adv-x="577" 
d="M526 592l-221 -592h-194l227 565h-289v152h477v-125z" />
    <glyph glyph-name="eight.denominator" horiz-adv-x="669" 
d="M336 -8q-130 0 -203.5 55.5t-73.5 149.5q0 120 115 174q-94 53 -94 155q0 91 69 145t187 54q116 0 185 -54t69 -145q0 -99 -92 -155q112 -53 112 -168q0 -98 -72 -154.5t-202 -56.5zM336 596q-41 0 -63.5 -21t-22.5 -59q0 -40 22.5 -61t63.5 -21q40 0 62 21t22 61
q0 37 -22.5 58.5t-61.5 21.5zM336 121q44 0 69 24t25 66q0 45 -24.5 68.5t-69.5 23.5q-96 0 -96 -92q0 -42 25.5 -66t70.5 -24z" />
    <glyph glyph-name="nine.denominator" horiz-adv-x="667" 
d="M604 365q0 -181 -80 -277t-207 -96q-90 0 -151.5 44t-87.5 128l158 39q28 -70 88 -70q97 0 106 195q-53 -66 -147 -66q-104 0 -165 61.5t-61 159.5q0 104 72 173t190 69q130 0 207.5 -90.5t77.5 -269.5zM317 592q-43 0 -67.5 -28t-24.5 -75t24.5 -72.5t67.5 -25.5
q41 0 67 26.5t26 74.5q0 45 -25.5 72.5t-67.5 27.5z" />
    <glyph glyph-name="twosevenths" horiz-adv-x="1738" 
d="M74 850l225 207q52 48 72 82.5t20 72.5q0 84 -74 84q-81 0 -84 -114l-174 24q8 109 79.5 172.5t189.5 63.5q110 0 175.5 -60t65.5 -161q0 -71 -30.5 -126t-120.5 -141l-94 -88h251v-149h-501v133zM584 0h-238l854 1434h238zM1686 592l-222 -592h-194l227 565h-289v152
h478v-125z" />
    <glyph glyph-name="twoninths" horiz-adv-x="1761" 
d="M74 850l225 207q52 48 72 82.5t20 72.5q0 84 -74 84q-81 0 -84 -114l-174 24q8 109 79.5 172.5t189.5 63.5q110 0 175.5 -60t65.5 -161q0 -71 -30.5 -126t-120.5 -141l-94 -88h251v-149h-501v133zM584 0h-238l854 1434h238zM1696 365q0 -181 -80 -277t-207 -96
q-91 0 -152.5 44.5t-87.5 127.5l158 39q28 -70 88 -70q98 0 107 195q-53 -66 -148 -66q-104 0 -164.5 61.5t-60.5 159.5q0 104 72 173t190 69q130 0 207.5 -90.5t77.5 -269.5zM1409 592q-43 0 -67.5 -28t-24.5 -75t24.5 -72.5t67.5 -25.5q41 0 66.5 26.5t25.5 74.5
q0 46 -25.5 73t-66.5 27z" />
    <glyph glyph-name="threesevenths" horiz-adv-x="1705" 
d="M588 918q0 -93 -73 -151t-196 -58q-120 0 -191 55.5t-77 161.5l164 22q9 -98 98 -98q45 0 69 21.5t24 62.5q0 37 -25.5 57.5t-71.5 20.5h-61v135h65q40 0 62 21t22 59q0 73 -82 73q-41 0 -66.5 -25t-29.5 -73l-162 23q9 101 80 159t189 58q114 0 183 -52.5t69 -140.5
q0 -120 -115 -164q125 -42 125 -167zM553 0h-238l854 1434h238zM1655 592l-221 -592h-195l227 565h-288v152h477v-125z" />
    <glyph glyph-name="foursevenths" horiz-adv-x="1746" 
d="M549 717h-178v123h-320v131l328 465h170v-457h86v-139h-86v-123zM594 0h-238l854 1434h238zM211 979h160v231zM1696 592l-221 -592h-195l227 565h-288v152h477v-125z" />
    <glyph glyph-name="fourninths" horiz-adv-x="1771" 
d="M549 717h-178v123h-320v131l328 465h170v-457h86v-139h-86v-123zM594 0h-238l854 1434h238zM211 979h160v231zM1708 365q0 -181 -80 -277t-207 -96q-90 0 -151.5 44t-87.5 128l157 39q28 -70 88 -70q98 0 107 195q-53 -66 -148 -66q-104 0 -164.5 61.5t-60.5 159.5
q0 104 72 173t190 69q130 0 207.5 -90.5t77.5 -269.5zM1421 592q-43 0 -67.5 -28t-24.5 -75t24.5 -72.5t67.5 -25.5q41 0 66.5 26.5t25.5 74.5q0 46 -25.5 73t-66.5 27z" />
    <glyph glyph-name="fivesevenths" horiz-adv-x="1693" 
d="M317 709q-110 0 -177.5 49t-84.5 145l174 29q12 -82 86 -82q40 0 63 26.5t23 75.5q0 52 -22 79.5t-62 27.5q-45 0 -77 -49l-158 16l29 408h432v-152h-283l-8 -129q42 37 115 37q98 0 157.5 -61.5t59.5 -167.5q0 -119 -74 -185.5t-193 -66.5zM543 0h-238l854 1434h238z
M1642 592l-221 -592h-194l227 565h-289v152h477v-125z" />
    <glyph glyph-name="fiveninths" horiz-adv-x="1718" 
d="M317 709q-110 0 -177.5 49t-84.5 145l174 29q12 -82 86 -82q40 0 63 26.5t23 75.5q0 52 -22 79.5t-62 27.5q-45 0 -77 -49l-158 16l29 408h432v-152h-283l-8 -129q42 37 115 37q98 0 157.5 -61.5t59.5 -167.5q0 -119 -74 -185.5t-193 -66.5zM543 0h-238l854 1434h238z
M1655 365q0 -181 -80 -277t-207 -96q-91 0 -152.5 44.5t-87.5 127.5l158 39q28 -70 88 -70q98 0 107 195q-53 -66 -148 -66q-104 0 -164.5 61.5t-60.5 159.5q0 104 72 173t190 69q130 0 207.5 -90.5t77.5 -269.5zM1368 592q-43 0 -67.5 -28t-24.5 -75t24.5 -72.5t67.5 -25.5
q41 0 66.5 26.5t25.5 74.5q0 46 -25.5 73t-66.5 27z" />
    <glyph glyph-name="sixsevenths" horiz-adv-x="1720" 
d="M63 1069q0 180 80.5 276.5t208.5 96.5q89 0 150.5 -44.5t87.5 -127.5l-158 -39q-28 67 -88 67q-98 0 -106 -194q52 65 147 65q104 0 164.5 -60.5t60.5 -160.5q0 -103 -72 -171t-190 -68q-129 0 -207 90.5t-78 269.5zM567 0h-237l854 1434h237zM350 842q43 0 67.5 27
t24.5 73q0 47 -23.5 73.5t-66.5 26.5q-42 0 -68 -27t-26 -73q0 -47 25 -73.5t67 -26.5zM1669 592l-221 -592h-195l228 565h-289v152h477v-125z" />
    <glyph glyph-name="sevenninths" horiz-adv-x="1576" 
d="M526 1309l-221 -592h-194l227 565h-289v152h477v-125zM401 0h-237l854 1434h237zM1513 365q0 -181 -79.5 -277t-206.5 -96q-91 0 -152.5 44.5t-87.5 127.5l158 39q28 -70 88 -70q97 0 106 195q-53 -66 -147 -66q-104 0 -164.5 61.5t-60.5 159.5q0 104 72 173t190 69
q130 0 207 -90.5t77 -269.5zM1227 592q-43 0 -67.5 -28t-24.5 -75t24.5 -72.5t67.5 -25.5q41 0 66.5 26.5t25.5 74.5q0 46 -25.5 73t-66.5 27z" />
    <glyph glyph-name="eightninths" horiz-adv-x="1746" 
d="M336 709q-130 0 -203.5 55.5t-73.5 148.5q0 120 115 174q-94 53 -94 156q0 91 69 145t187 54q116 0 185 -54t69 -145q0 -100 -92 -156q112 -53 112 -167q0 -98 -72 -154.5t-202 -56.5zM571 0h-237l854 1434h237zM336 1313q-41 0 -63.5 -21t-22.5 -59q0 -40 22.5 -61
t63.5 -21q40 0 62 21t22 61q0 37 -22.5 58.5t-61.5 21.5zM336 838q44 0 69 24t25 66q0 45 -24.5 68.5t-69.5 23.5q-96 0 -96 -92q0 -42 25.5 -66t70.5 -24zM1683 365q0 -181 -79.5 -277t-206.5 -96q-91 0 -152.5 44.5t-87.5 127.5l158 39q28 -70 88 -70q97 0 106 195
q-53 -66 -147 -66q-104 0 -164.5 61.5t-60.5 159.5q0 104 72 173t190 69q130 0 207 -90.5t77 -269.5zM1397 592q-43 0 -67.5 -28t-24.5 -75t24.5 -72.5t67.5 -25.5q41 0 66.5 26.5t25.5 74.5q0 46 -25.5 73t-66.5 27z" />
    <glyph glyph-name="mu" horiz-adv-x="958" 
d="M858 1122v-1122h-217l-27 166q-74 -182 -247 -182h-9v-394h-260v1532h262v-735q0 -77 24.5 -114t76.5 -37q69 0 102 61t33 190v635h262z" />
    <glyph glyph-name="Omega" horiz-adv-x="1220" 
d="M899 352v-108h201v-244h-430v457q87 69 127.5 162t40.5 239q0 164 -60 248t-168 84q-109 0 -168 -83.5t-59 -248.5q0 -146 40.5 -239t127.5 -162v-457h-430v244h201v108q-117 95 -169.5 216t-52.5 290q0 280 136 436t374 156t374 -156t136 -436q0 -165 -59.5 -297
t-161.5 -209z" />
    <glyph glyph-name="Delta" horiz-adv-x="1069" 
d="M690 1434l359 -1434h-1031l359 1434h313zM334 240h383l-191 876z" />
    <glyph glyph-name="at.case" horiz-adv-x="1757" 
d="M1270 127q-193 0 -248 145q-70 -145 -231 -145q-121 0 -190 75.5t-69 207.5q0 129 73 208.5t222 114.5l177 41v60q0 81 -26.5 118t-82.5 37q-63 0 -92.5 -45.5t-32.5 -144.5l-219 24q20 178 106.5 264.5t249.5 86.5q328 0 328 -328v-440q0 -123 94 -123q80 0 132 111.5
t52 322.5q0 338 -167 537.5t-445 199.5q-195 0 -345.5 -109t-232 -302.5t-81.5 -440.5q0 -352 165.5 -558t460.5 -206q220 0 422 105l49 -111q-216 -115 -471 -115q-233 0 -405 108.5t-263 308.5t-91 468q0 213 60 395.5t165 309.5t251.5 198.5t315.5 71.5
q160 0 297.5 -60.5t237 -170t156.5 -272t57 -357.5q0 -269 -101 -429.5t-278 -160.5zM768 430q0 -113 98 -113q138 0 138 232v49l-103 -23q-70 -17 -101.5 -51.5t-31.5 -93.5z" />
    <glyph glyph-name="questiondown.case" horiz-adv-x="1011" 
d="M657 1434v-275h-266v275h266zM494 229q83 0 130 65.5t60 201.5l266 -54q-26 -219 -147.5 -338.5t-317.5 -119.5q-182 0 -295.5 107.5t-113.5 275.5q0 75 16.5 135.5t42.5 102t58.5 77t65.5 68t61 67t48 82.5t25 105h262q-5 -83 -29.5 -153t-58 -114t-71.5 -88t-70 -79
t-53 -84t-21 -105q0 -71 37 -111.5t105 -40.5z" />
    <glyph glyph-name="exclamdown.case" horiz-adv-x="583" 
d="M434 1434v-275h-284v275h284zM168 1004h246l20 -1004h-287z" />
    <glyph glyph-name="parenleft.case" horiz-adv-x="692" 
d="M420 -164q-299 410 -299 871q0 454 299 870h256q-135 -235 -198.5 -447.5t-63.5 -422.5q0 -413 262 -871h-256z" />
    <glyph glyph-name="parenright.case" horiz-adv-x="692" 
d="M272 1577q299 -410 299 -870q0 -455 -299 -871h-256q263 460 263 871q0 410 -263 870h256z" />
    <glyph glyph-name="braceleft.case" horiz-adv-x="720" 
d="M244 707q127 -28 184 -111.5t57 -239.5v-133q0 -90 29.5 -126t99.5 -36q24 0 93 11l10 -224q-91 -16 -154 -16q-350 0 -350 363v213q0 92 -36.5 132.5t-133.5 53.5v225q98 13 134 53.5t36 133.5v213q0 362 350 362q63 0 154 -16l-10 -224q-69 11 -93 11q-68 0 -98.5 -38
t-30.5 -126v-150q0 -147 -57 -226t-184 -105z" />
    <glyph glyph-name="braceright.case" horiz-adv-x="720" 
d="M676 819v-225q-96 -13 -132 -53.5t-36 -132.5v-213q0 -363 -350 -363q-63 0 -154 16l10 224q69 -11 92 -11q70 0 100 36t30 126v133q0 156 57 239.5t184 111.5q-127 26 -184 105t-57 226v150q0 88 -31 126t-99 38q-23 0 -92 -11l-10 224q91 16 154 16q350 0 350 -362
v-213q0 -93 36 -133.5t132 -53.5z" />
    <glyph glyph-name="bracketleft.case" horiz-adv-x="688" 
d="M152 -164v1741h524v-238h-244v-1265h244v-238h-524z" />
    <glyph glyph-name="bracketright.case" horiz-adv-x="688" 
d="M537 -164h-525v238h244v1265h-244v238h525v-1741z" />
    <glyph glyph-name="hyphen.case" horiz-adv-x="765" 
d="M96 641v244h574v-244h-574z" />
    <glyph glyph-name="endash.case" 
d="M96 641v244h832v-244h-832z" />
    <glyph glyph-name="emdash.case" horiz-adv-x="2048" 
d="M96 641v244h1856v-244h-1856z" />
    <glyph glyph-name="brokenbar.case" horiz-adv-x="565" 
d="M414 829h-262v830h262v-830zM414 -246h-262v871h262v-871z" />
    <glyph glyph-name="bar.case" horiz-adv-x="565" 
d="M414 -246h-262v1905h262v-1905z" />
    <glyph glyph-name="guillemotleft.case" horiz-adv-x="1177" 
d="M539 535v-291l-463 321v283l463 321v-282l-287 -176zM1087 535v-291l-462 321v283l462 321v-282l-286 -176z" />
    <glyph glyph-name="guillemotright.case" horiz-adv-x="1177" 
d="M551 565l-463 -321v282l287 176l-287 177v290l463 -321v-283zM1100 565l-463 -321v282l287 176l-287 177v290l463 -321v-283z" />
    <glyph glyph-name="guilsinglleft.case" horiz-adv-x="626" 
d="M539 535v-291l-463 321v283l463 321v-282l-287 -176z" />
    <glyph glyph-name="guilsinglright.case" horiz-adv-x="626" 
d="M551 565l-463 -321v282l287 176l-287 177v290l463 -321v-283z" />
    </font>
</defs>
</svg>
